<svg width="26" height="26" viewBox="0 0 26 26" fill="none" xmlns="http://www.w3.org/2000/svg">
<g id="Instagram">
<path id="Instagram_2" fill-rule="evenodd" clip-rule="evenodd" d="M13.0001 0C9.46942 0 9.02671 0.0149805 7.64012 0.0782542C6.25643 0.141376 5.31138 0.361107 4.48446 0.682503C3.6296 1.01471 2.9046 1.45926 2.18193 2.18198C1.4592 2.90465 1.01466 3.62965 0.682452 4.48451C0.361056 5.31138 0.141325 6.25643 0.0782034 7.64012C0.0149297 9.02671 0 9.46942 0 13.0001C0 16.5306 0.0149297 16.9733 0.0782034 18.3599C0.141325 19.7436 0.361056 20.6886 0.682452 21.5155C1.01466 22.3703 1.4592 23.0954 2.18193 23.8181C2.9046 24.5408 3.6296 24.9853 4.48446 25.3175C5.31138 25.6389 6.25643 25.8587 7.64012 25.9218C9.02671 25.985 9.46942 26 13.0001 26C16.5306 26 16.9733 25.985 18.3599 25.9218C19.7436 25.8587 20.6886 25.6389 21.5155 25.3175C22.3703 24.9853 23.0954 24.5408 23.8181 23.8181C24.5408 23.0954 24.9853 22.3703 25.3175 21.5155C25.6389 20.6886 25.8587 19.7436 25.9218 18.3599C25.985 16.9733 26 16.5306 26 13.0001C26 9.46942 25.985 9.02671 25.9218 7.64012C25.8587 6.25643 25.6389 5.31138 25.3175 4.48451C24.9853 3.62965 24.5408 2.90465 23.8181 2.18198C23.0954 1.45926 22.3703 1.01471 21.5155 0.682503C20.6886 0.361107 19.7436 0.141376 18.3599 0.0782542C16.9733 0.0149805 16.5306 0 13.0001 0ZM13.0001 17.3329C10.6068 17.3329 8.66673 15.3928 8.66673 12.9996C8.66673 10.6063 10.6068 8.6662 13.0001 8.6662C15.3933 8.6662 17.3334 10.6063 17.3334 12.9996C17.3334 15.3928 15.3933 17.3329 13.0001 17.3329ZM13.0001 6.32385C9.31317 6.32385 6.32438 9.31264 6.32438 12.9996C6.32438 16.6864 9.31317 19.6752 13.0001 19.6752C16.6869 19.6752 19.6757 16.6864 19.6757 12.9996C19.6757 9.31264 16.6869 6.32385 13.0001 6.32385ZM19.9394 7.62098C20.8009 7.62098 21.4994 6.92258 21.4994 6.06097C21.4994 5.19941 20.8009 4.50102 19.9394 4.50102C19.0778 4.50102 18.3794 5.19941 18.3794 6.06097C18.3794 6.92258 19.0778 7.62098 19.9394 7.62098Z" fill="#A58069"/>
</g>
</svg>
