<svg width="26" height="26" viewBox="0 0 26 26" fill="none" xmlns="http://www.w3.org/2000/svg">
<path d="M12.9755 2.36661C16.4317 2.36661 16.8453 2.36661 18.2114 2.44295C19.0332 2.45012 19.8474 2.60146 20.6171 2.8901C21.7436 3.32839 22.6343 4.22082 23.0718 5.34941C23.3599 6.12055 23.511 6.93629 23.5181 7.75965C23.5834 9.12836 23.5943 9.54279 23.5943 13.0055C23.5943 16.4681 23.5943 16.8826 23.5181 18.2513C23.511 19.0746 23.3599 19.8904 23.0718 20.6615C22.6343 21.7901 21.7436 22.6825 20.6171 23.1208C19.8474 23.4094 19.0332 23.5608 18.2114 23.568C16.8453 23.6334 16.4371 23.6443 12.9755 23.6443C9.51392 23.6443 9.10571 23.6443 7.73959 23.568C6.91778 23.5608 6.10358 23.4094 5.33389 23.1208C4.21665 22.675 3.33646 21.7812 2.90643 20.656C2.61833 19.8849 2.46728 19.0692 2.46012 18.2458C2.36215 16.8771 2.36215 16.4627 2.36215 13C2.36215 9.53733 2.36215 9.1229 2.43835 7.75419C2.45247 6.92954 2.6109 6.11376 2.90643 5.34396C3.34402 4.23114 4.22317 3.35033 5.33389 2.91191C6.10358 2.62327 6.91778 2.47194 7.73959 2.46477C9.10571 2.36661 9.51936 2.36661 12.9755 2.36661ZM12.9755 0.0272651C9.45949 0.0272651 9.01863 0.0272651 7.63617 0.103607C6.55968 0.132857 5.49595 0.344899 4.49027 0.730705C2.73512 1.40056 1.34894 2.78936 0.680343 4.54782C0.302701 5.5567 0.0984275 6.6224 0.0761985 7.69967C0.0163282 9.08473 0 9.52643 0 13.0491C0 16.5717 0 17.0134 0.0761985 18.3985C0.119567 19.462 0.340328 20.5108 0.729328 21.5013C1.39793 23.2597 2.7841 24.6485 4.53925 25.3184C5.54623 25.6967 6.60992 25.9014 7.68516 25.9237C9.06762 25.9836 9.50848 26 13.0245 26C16.5405 26 16.9814 26 18.3638 25.9237C19.4391 25.9014 20.5028 25.6967 21.5097 25.3184C23.2649 24.6485 24.6511 23.2597 25.3197 21.5013C25.6973 20.4924 25.9016 19.4267 25.9238 18.3494C25.9837 16.9643 26 16.5227 26 13C26 9.47735 26 9.03565 25.9238 7.65059C25.9016 6.57332 25.6973 5.50762 25.3197 4.49874C24.6511 2.74028 23.2649 1.35149 21.5097 0.681628C20.5028 0.303272 19.4391 0.0986133 18.3638 0.0763423C16.9814 0.0163591 16.5405 0 13.0245 0L12.9755 0.0272651Z" fill="#A58069" fill-opacity="0.5"/>
<path d="M19.883 7.64699C20.7277 7.64699 21.4124 6.96225 21.4124 6.11758C21.4124 5.27291 20.7277 4.58817 19.883 4.58817C19.0384 4.58817 18.3536 5.27291 18.3536 6.11758C18.3536 6.96225 19.0384 7.64699 19.883 7.64699Z" fill="#A58069" fill-opacity="0.5"/>
</svg>
