<svg width="245" height="45" viewBox="0 0 245 45" fill="none" xmlns="http://www.w3.org/2000/svg">
<g clip-path="url(#clip0_843_1537)">
<path d="M131.535 0.621094H141.16L152.847 22.4821L164.471 0.621094H174.159V43.7221H164.408V19.3681L155.539 36.6121H149.975L141.286 19.5571V43.7311H131.535V0.621094Z" fill="#2C2C2C"/>
<path d="M211.361 18.801V25.551C211.361 31.635 209.84 36.288 206.796 39.51C203.753 42.741 199.611 44.352 194.362 44.352C189.113 44.352 184.971 42.741 181.928 39.51C178.885 36.279 177.363 31.626 177.363 25.551V18.801C177.363 12.681 178.876 8.019 181.892 4.806C184.917 1.602 189.077 0 194.362 0C199.647 0 203.807 1.602 206.832 4.806C209.858 8.019 211.361 12.681 211.361 18.801ZM187.745 18.801V25.551C187.745 32.337 189.95 35.73 194.371 35.73C198.792 35.73 200.998 32.337 200.998 25.551V18.801C200.998 12.015 198.792 8.622 194.371 8.622C189.95 8.622 187.745 12.015 187.745 18.801Z" fill="#2C2C2C"/>
<path d="M244.072 7.056L236.383 12.555C235.546 11.142 234.546 10.134 233.385 9.522C232.214 8.919 230.657 8.613 228.703 8.613C225.407 8.613 223.769 9.864 223.769 12.357C223.769 13.608 224.354 14.652 225.516 15.48C226.677 16.317 228.658 17.127 231.449 17.919C236.194 19.296 239.534 20.979 241.452 22.977C243.406 25.02 244.387 27.846 244.387 31.473C244.387 35.469 243.073 38.619 240.453 40.905C237.833 43.2 234.123 44.343 229.333 44.343C225.29 44.343 221.905 43.794 219.177 42.687C216.449 41.58 214.081 39.78 212.082 37.287L219.834 31.851C221.914 34.434 224.795 35.721 228.46 35.721C230.296 35.721 231.674 35.388 232.61 34.722C233.547 34.056 234.015 33.138 234.015 31.977C234.015 30.726 233.448 29.709 232.322 28.917C231.404 28.206 229.261 27.297 225.885 26.172C221.509 24.759 218.331 22.977 216.359 20.835C214.378 18.693 213.388 15.894 213.388 12.429C213.388 8.595 214.693 5.571 217.295 3.339C219.897 1.116 223.652 0 228.568 0C235.825 0 240.984 2.349 244.072 7.056Z" fill="#2C2C2C"/>
<path d="M21.3027 22.5095L32.9175 0.657437H42.5965V43.7405H32.8545V19.3865L23.9858 36.6215H18.4306L9.751 19.5755V43.7405H0V0.648438H9.61594L21.3027 22.5095Z" fill="#2C2C2C"/>
<path d="M62.0268 0.648438C72.21 0.648438 78.1434 4.20344 78.1434 12.0785C78.1434 16.5155 76.2076 19.0715 73.2094 21.0695C77.144 23.0045 79.521 26.0645 79.521 31.3745C79.521 38.2415 74.9021 43.7405 63.4044 43.7405H46.9727V0.648438H62.0268ZM57.3449 17.0735H61.7207C65.9074 17.0735 67.7802 15.7595 67.7802 13.2665C67.7802 10.7105 66.4656 9.20746 60.7843 9.20746H57.3449V17.0735ZM57.3449 35.1185H62.2789C66.8978 35.1185 69.1487 33.5615 69.1487 30.3755C69.1487 26.8745 66.7718 25.6955 61.5316 25.6955H57.3449V35.1185Z" fill="#2C2C2C"/>
<path d="M104.568 22.5095L116.183 0.657437H125.862L107.242 36.6215H101.687L93.0072 19.5755V43.7405H83.2656V0.648438H92.8811L104.568 22.5095Z" fill="#2C2C2C"/>
<path d="M121.009 43.7577C123.69 43.7577 125.862 41.5858 125.862 38.9067C125.862 36.2275 123.69 34.0557 121.009 34.0557C118.329 34.0557 116.156 36.2275 116.156 38.9067C116.156 41.5858 118.329 43.7577 121.009 43.7577Z" fill="#E40046"/>
</g>
<defs>
<clipPath id="clip0_843_1537">
<rect width="245" height="45" fill="white"/>
</clipPath>
</defs>
</svg>
