<svg width="691" height="1045" viewBox="0 0 691 1045" fill="none" xmlns="http://www.w3.org/2000/svg">
<path d="M655.519 490.847C600.806 410.336 572.266 315.609 572.266 220.882C572.266 104.844 484.252 10.1227 372.446 0.651857C312.98 -4.0871 255.886 17.2309 210.685 57.4899C167.872 97.7494 144.078 154.58 144.078 213.787V220.888C144.078 315.615 115.531 410.342 58.445 495.598C15.625 561.907 -5.78119 640.055 1.35111 720.572C15.6245 895.818 160.731 1035.53 339.145 1045H358.179C450.953 1045 536.586 1009.48 603.193 947.902C674.561 876.862 715 784.505 715 687.408C715 616.367 693.586 550.06 655.527 490.846L655.519 490.847Z" fill="#A58069" fill-opacity="0.1"/>
<path d="M550.483 501.873C515.054 449.405 496.572 387.674 496.572 325.943C496.572 250.324 439.579 188.597 367.178 182.425C328.671 179.337 291.7 193.229 262.43 219.465C234.706 245.701 219.298 282.736 219.298 321.319V325.947C219.298 387.678 200.813 449.409 163.846 504.969C136.118 548.181 122.256 599.108 126.875 651.579C136.118 765.782 230.082 856.828 345.614 863H357.94C418.016 863 473.467 839.852 516.599 799.724C562.814 753.429 589 693.242 589 629.966C589 583.671 575.133 540.46 550.488 501.872L550.483 501.873Z" fill="#FDBF71"/>
</svg>
