<svg width="26" height="26" viewBox="0 0 26 26" fill="none" xmlns="http://www.w3.org/2000/svg">
<path d="M13.0001 0C9.46942 0 9.02671 0.0149805 7.64012 0.0782542C6.25643 0.141376 5.31138 0.361107 4.48446 0.682503C3.6296 1.01471 2.9046 1.45926 2.18193 2.18198C1.4592 2.90465 1.01466 3.62965 0.682452 4.48451C0.361056 5.31138 0.141325 6.25643 0.0782034 7.64012C0.0149297 9.02671 0 9.46942 0 13.0001C0 16.5306 0.0149297 16.9733 0.0782034 18.3599C0.141325 19.7436 0.361056 20.6886 0.682452 21.5155C1.01466 22.3703 1.4592 23.0954 2.18193 23.8181C2.9046 24.5408 3.6296 24.9853 4.48446 25.3175C5.31138 25.6389 6.25643 25.8587 7.64012 25.9218C9.02671 25.985 9.46942 26 13.0001 26C16.5306 26 16.9733 25.985 18.3599 25.9218C19.7436 25.8587 20.6886 25.6389 21.5155 25.3175C22.3703 24.9853 23.0954 24.5408 23.8181 23.8181C24.5408 23.0954 24.9853 22.3703 25.3175 21.5155C25.6389 20.6886 25.8587 19.7436 25.9218 18.3599C25.985 16.9733 26 16.5306 26 13.0001C26 9.46942 25.985 9.02671 25.9218 7.64012C25.8587 6.25643 25.6389 5.31138 25.3175 4.48451C24.9853 3.62965 24.5408 2.90465 23.8181 2.18198C23.0954 1.45926 22.3703 1.01471 21.5155 0.682503C20.6886 0.361107 19.7436 0.141376 18.3599 0.0782542C16.9733 0.0149805 16.5306 0 13.0001 0ZM13.0001 2.3424C16.4712 2.3424 16.8823 2.3556 18.2531 2.41816C19.5206 2.476 20.2089 2.68776 20.667 2.86575C21.2738 3.10158 21.7069 3.38331 22.1618 3.83821C22.6167 4.29312 22.8984 4.72623 23.1343 5.33297C23.3123 5.79107 23.5241 6.47941 23.5819 7.74686C23.6444 9.11771 23.6577 9.52889 23.6577 13.0001C23.6577 16.4712 23.6444 16.8823 23.5819 18.2531C23.5241 19.5206 23.3123 20.2089 23.1343 20.667C22.8984 21.2738 22.6167 21.7069 22.1618 22.1618C21.7069 22.6167 21.2738 22.8984 20.667 23.1343C20.2089 23.3123 19.5206 23.5241 18.2531 23.5818C16.8825 23.6444 16.4714 23.6577 13.0001 23.6577C9.52858 23.6577 9.11756 23.6444 7.74686 23.5818C6.47941 23.5241 5.79107 23.3123 5.33297 23.1343C4.72618 22.8984 4.29311 22.6167 3.83816 22.1618C3.38326 21.7069 3.10153 21.2738 2.86575 20.667C2.68771 20.2089 2.47595 19.5206 2.41811 18.2531C2.35555 16.8823 2.34235 16.4712 2.34235 13.0001C2.34235 9.52889 2.35555 9.11771 2.41811 7.74686C2.47595 6.47941 2.68771 5.79107 2.86575 5.33297C3.10153 4.72623 3.38326 4.29312 3.83816 3.83821C4.29311 3.38331 4.72618 3.10158 5.33297 2.86575C5.79107 2.68776 6.47941 2.476 7.74686 2.41816C9.11771 2.3556 9.52889 2.3424 13.0001 2.3424Z" fill="#A58069" fill-opacity="0.5"/>
<path d="M13.0001 17.333C10.6069 17.333 8.66675 15.3929 8.66675 12.9997C8.66675 10.6064 10.6069 8.66633 13.0001 8.66633C15.3933 8.66633 17.3334 10.6064 17.3334 12.9997C17.3334 15.3929 15.3933 17.333 13.0001 17.333ZM13.0001 6.32398C9.3132 6.32398 6.32441 9.31278 6.32441 12.9997C6.32441 16.6865 9.3132 19.6753 13.0001 19.6753C16.687 19.6753 19.6758 16.6865 19.6758 12.9997C19.6758 9.31278 16.687 6.32398 13.0001 6.32398Z" fill="#A58069" fill-opacity="0.5"/>
<path d="M21.4995 6.06089C21.4995 6.92249 20.8011 7.62089 19.9395 7.62089C19.0779 7.62089 18.3795 6.92249 18.3795 6.06089C18.3795 5.19933 19.0779 4.50093 19.9395 4.50093C20.8011 4.50093 21.4995 5.19933 21.4995 6.06089Z" fill="#A58069" fill-opacity="0.5"/>
</svg>
