<svg width="19" height="18" viewBox="0 0 19 18" fill="none" xmlns="http://www.w3.org/2000/svg">
<g id="Red Cat_logo">
<path d="M1.11765 1.125H2.23529V2.25H1.11765V1.125Z" fill="#A58069"/>
<path d="M1.11765 2.25H2.23529V3.375H1.11765V2.25Z" fill="#A58069"/>
<path d="M1.11765 3.375H2.23529V4.5H1.11765V3.375Z" fill="#A58069"/>
<path d="M1.11765 4.5H2.23529V5.625H1.11765V4.5Z" fill="#A58069"/>
<path d="M1.11765 5.625H2.23529V6.75H1.11765V5.625Z" fill="#A58069"/>
<path d="M1.11765 6.75H2.23529V7.875H1.11765V6.75Z" fill="#A58069"/>
<path d="M0 7.875H1.11765V9H0V7.875Z" fill="#A58069"/>
<path d="M0 9H1.11765V10.125H0V9Z" fill="#A58069"/>
<path d="M0 10.125H1.11765V11.25H0V10.125Z" fill="#A58069"/>
<path d="M0 11.25H1.11765V12.375H0V11.25Z" fill="#A58069"/>
<path d="M0 12.375H1.11765V13.5H0V12.375Z" fill="#A58069"/>
<path d="M0 13.5H1.11765V14.625H0V13.5Z" fill="#A58069"/>
<path d="M1.11765 14.625H2.23529V15.75H1.11765V14.625Z" fill="#A58069"/>
<path d="M2.23529 15.75H3.35294V16.875H2.23529V15.75Z" fill="#A58069"/>
<path d="M2.23529 16.875H3.35294V18H2.23529V16.875Z" fill="#A58069"/>
<path d="M3.35294 16.875H4.47059V18H3.35294V16.875Z" fill="#A58069"/>
<path d="M4.47059 16.875H5.58824V18H4.47059V16.875Z" fill="#A58069"/>
<path d="M5.58824 16.875H6.70588V18H5.58824V16.875Z" fill="#A58069"/>
<path d="M6.70588 16.875H7.82353V18H6.70588V16.875Z" fill="#A58069"/>
<path d="M7.82353 14.625H8.94118V15.75H7.82353V14.625Z" fill="#A58069"/>
<path d="M7.82353 16.875H8.94118V18H7.82353V16.875Z" fill="#A58069"/>
<path d="M8.94118 14.625H10.0588V15.75H8.94118V14.625Z" fill="#A58069"/>
<path d="M8.94118 13.5H10.0588V14.625H8.94118V13.5Z" fill="#A58069"/>
<path d="M1.11765 9H2.23529V10.125H1.11765V9Z" fill="#A58069"/>
<path d="M1.11765 10.125H2.23529V11.25H1.11765V10.125Z" fill="#A58069"/>
<path d="M3.35294 10.125H4.47059V11.25H3.35294V10.125Z" fill="#A58069"/>
<path d="M6.70588 10.125H7.82353V11.25H6.70588V10.125Z" fill="#A58069"/>
<path d="M5.58824 10.125H6.70588V11.25H5.58824V10.125Z" fill="#A58069"/>
<path d="M7.82353 10.125H8.94118V11.25H7.82353V10.125Z" fill="#A58069"/>
<path d="M8.94118 11.25H10.0588V12.375H8.94118V11.25Z" fill="#A58069"/>
<path d="M11.1765 11.25H12.2941V12.375H11.1765V11.25Z" fill="#A58069"/>
<path d="M2.23529 11.25H3.35294V12.375H2.23529V11.25Z" fill="#A58069"/>
<path d="M14.5294 10.125H15.6471V11.25H14.5294V10.125Z" fill="#A58069"/>
<path d="M13.4118 11.25H14.5294V12.375H13.4118V11.25Z" fill="#A58069"/>
<path d="M4.47059 11.25H5.58824V12.375H4.47059V11.25Z" fill="#A58069"/>
<path d="M3.35294 12.375H4.47059V13.5H3.35294V12.375Z" fill="#A58069"/>
<path d="M12.2941 12.375H13.4118V13.5H12.2941V12.375Z" fill="#A58069"/>
<path d="M15.6471 10.125H16.7647V11.25H15.6471V10.125Z" fill="#A58069"/>
<path d="M14.5294 11.25H15.6471V12.375H14.5294V11.25Z" fill="#A58069"/>
<path d="M5.58824 11.25H6.70588V12.375H5.58824V11.25Z" fill="#A58069"/>
<path d="M4.47059 12.375H5.58824V13.5H4.47059V12.375Z" fill="#A58069"/>
<path d="M13.4118 12.375H14.5294V13.5H13.4118V12.375Z" fill="#A58069"/>
<path d="M6.70588 11.25H7.82353V12.375H6.70588V11.25Z" fill="#A58069"/>
<path d="M5.58824 12.375H6.70588V13.5H5.58824V12.375Z" fill="#A58069"/>
<path d="M14.5294 12.375H15.6471V13.5H14.5294V12.375Z" fill="#A58069"/>
<path d="M16.7647 10.125H17.8824V11.25H16.7647V10.125Z" fill="#A58069"/>
<path d="M15.6471 11.25H16.7647V12.375H15.6471V11.25Z" fill="#A58069"/>
<path d="M10.0588 10.125H11.1765V11.25H10.0588V10.125Z" fill="#A58069"/>
<path d="M12.2941 10.125H13.4118V11.25H12.2941V10.125Z" fill="#A58069"/>
<path d="M16.7647 9H17.8824V10.125H16.7647V9Z" fill="#A58069"/>
<path d="M2.23529 9H3.35294V10.125H2.23529V9Z" fill="#A58069"/>
<path d="M3.35294 9H4.47059V10.125H3.35294V9Z" fill="#A58069"/>
<path d="M4.47059 9H5.58824V10.125H4.47059V9Z" fill="#A58069"/>
<path d="M5.58824 9H6.70588V10.125H5.58824V9Z" fill="#A58069"/>
<path d="M6.70588 9H7.82353V10.125H6.70588V9Z" fill="#A58069"/>
<path d="M7.82353 9H8.94118V10.125H7.82353V9Z" fill="#A58069"/>
<path d="M8.94118 9H10.0588V10.125H8.94118V9Z" fill="#A58069"/>
<path d="M10.0588 9H11.1765V10.125H10.0588V9Z" fill="#A58069"/>
<path d="M11.1765 9H12.2941V10.125H11.1765V9Z" fill="#A58069"/>
<path d="M12.2941 9H13.4118V10.125H12.2941V9Z" fill="#A58069"/>
<path d="M13.4118 9H14.5294V10.125H13.4118V9Z" fill="#A58069"/>
<path d="M14.5294 9H15.6471V10.125H14.5294V9Z" fill="#A58069"/>
<path d="M15.6471 9H16.7647V10.125H15.6471V9Z" fill="#A58069"/>
<path d="M8.94118 16.875H10.0588V18H8.94118V16.875Z" fill="#A58069"/>
<path d="M10.0588 14.625H11.1765V15.75H10.0588V14.625Z" fill="#A58069"/>
<path d="M10.0588 16.875H11.1765V18H10.0588V16.875Z" fill="#A58069"/>
<path d="M11.1765 16.875H12.2941V18H11.1765V16.875Z" fill="#A58069"/>
<path d="M12.2941 16.875H13.4118V18H12.2941V16.875Z" fill="#A58069"/>
<path d="M13.4118 16.875H14.5294V18H13.4118V16.875Z" fill="#A58069"/>
<path d="M14.5294 16.875H15.6471V18H14.5294V16.875Z" fill="#A58069"/>
<path d="M15.6471 16.875H16.7647V18H15.6471V16.875Z" fill="#A58069"/>
<path d="M15.6471 15.75H16.7647V16.875H15.6471V15.75Z" fill="#A58069"/>
<path d="M16.7647 14.625H17.8824V15.75H16.7647V14.625Z" fill="#A58069"/>
<path d="M17.8824 13.5H19V14.625H17.8824V13.5Z" fill="#A58069"/>
<path d="M17.8824 12.375H19V13.5H17.8824V12.375Z" fill="#A58069"/>
<path d="M17.8824 11.25H19V12.375H17.8824V11.25Z" fill="#A58069"/>
<path d="M17.8824 10.125H19V11.25H17.8824V10.125Z" fill="#A58069"/>
<path d="M17.8824 9H19V10.125H17.8824V9Z" fill="#A58069"/>
<path d="M17.8824 7.875H19V9H17.8824V7.875Z" fill="#A58069"/>
<path d="M16.7647 6.75H17.8824V7.875H16.7647V6.75Z" fill="#A58069"/>
<path d="M16.7647 5.625H17.8824V6.75H16.7647V5.625Z" fill="#A58069"/>
<path d="M16.7647 4.5H17.8824V5.625H16.7647V4.5Z" fill="#A58069"/>
<path d="M16.7647 3.375H17.8824V4.5H16.7647V3.375Z" fill="#A58069"/>
<path d="M16.7647 2.25H17.8824V3.375H16.7647V2.25Z" fill="#A58069"/>
<path d="M16.7647 1.125H17.8824V2.25H16.7647V1.125Z" fill="#A58069"/>
<path d="M14.5294 0H15.6471V1.125H14.5294V0Z" fill="#A58069"/>
<path d="M15.6471 0H16.7647V1.125H15.6471V0Z" fill="#A58069"/>
<path d="M12.2941 2.25H13.4118V3.375H12.2941V2.25Z" fill="#A58069"/>
<path d="M13.4118 1.125H14.5294V2.25H13.4118V1.125Z" fill="#A58069"/>
<path d="M10.0588 3.375H11.1765V4.5H10.0588V3.375Z" fill="#A58069"/>
<path d="M11.1765 3.375H12.2941V4.5H11.1765V3.375Z" fill="#A58069"/>
<path d="M8.94118 3.375H10.0588V4.5H8.94118V3.375Z" fill="#A58069"/>
<path d="M7.82353 3.375H8.94118V4.5H7.82353V3.375Z" fill="#A58069"/>
<path d="M6.70588 3.375H7.82353V4.5H6.70588V3.375Z" fill="#A58069"/>
<path d="M5.58824 2.25H6.70588V3.375H5.58824V2.25Z" fill="#A58069"/>
<path d="M4.47059 1.125H5.58824V2.25H4.47059V1.125Z" fill="#A58069"/>
<path d="M3.35294 0H4.47059V1.125H3.35294V0Z" fill="#A58069"/>
<path d="M2.23529 0H3.35294V1.125H2.23529V0Z" fill="#A58069"/>
<path d="M2.23529 1.125H3.35294V2.25H2.23529V1.125Z" fill="#A58069" fill-opacity="0.3"/>
<path d="M2.23529 2.25H3.35294V3.375H2.23529V2.25Z" fill="#A58069" fill-opacity="0.3"/>
<path d="M2.23529 3.375H3.35294V4.5H2.23529V3.375Z" fill="#A58069" fill-opacity="0.3"/>
<path d="M2.23529 4.5H3.35294V5.625H2.23529V4.5Z" fill="#A58069" fill-opacity="0.3"/>
<path d="M2.23529 5.625H3.35294V6.75H2.23529V5.625Z" fill="#A58069" fill-opacity="0.3"/>
<path d="M2.23529 6.75H3.35294V7.875H2.23529V6.75Z" fill="#A58069" fill-opacity="0.3"/>
<path d="M2.23529 7.875H3.35294V9H2.23529V7.875Z" fill="#A58069" fill-opacity="0.3"/>
<path d="M5.58824 7.875H6.70588V9H5.58824V7.875Z" fill="#A58069" fill-opacity="0.3"/>
<path d="M5.58824 6.75H6.70588V7.875H5.58824V6.75Z" fill="#A58069" fill-opacity="0.3"/>
<path d="M5.58824 5.625H6.70588V6.75H5.58824V5.625Z" fill="#A58069" fill-opacity="0.3"/>
<path d="M5.58824 4.5H6.70588V5.625H5.58824V4.5Z" fill="#A58069" fill-opacity="0.3"/>
<path d="M5.58824 3.375H6.70588V4.5H5.58824V3.375Z" fill="#A58069" fill-opacity="0.3"/>
<path d="M8.94118 7.875H10.0588V9H8.94118V7.875Z" fill="#A58069" fill-opacity="0.3"/>
<path d="M8.94118 12.375H10.0588V13.5H8.94118V12.375Z" fill="#A58069" fill-opacity="0.3"/>
<path d="M8.94118 15.75H10.0588V16.875H8.94118V15.75Z" fill="#A58069" fill-opacity="0.3"/>
<path d="M5.58824 15.75H6.70588V16.875H5.58824V15.75Z" fill="#A58069" fill-opacity="0.3"/>
<path d="M5.58824 14.625H6.70588V15.75H5.58824V14.625Z" fill="#A58069" fill-opacity="0.3"/>
<path d="M6.70588 13.5H7.82353V14.625H6.70588V13.5Z" fill="#A58069" fill-opacity="0.3"/>
<path d="M12.2941 15.75H13.4118V16.875H12.2941V15.75Z" fill="#A58069" fill-opacity="0.3"/>
<path d="M12.2941 14.625H13.4118V15.75H12.2941V14.625Z" fill="#A58069" fill-opacity="0.3"/>
<path d="M11.1765 13.5H12.2941V14.625H11.1765V13.5Z" fill="#A58069" fill-opacity="0.3"/>
<path d="M8.94118 10.125H10.0588V11.25H8.94118V10.125Z" fill="#A58069" fill-opacity="0.3"/>
<path d="M7.82353 11.25H8.94118V12.375H7.82353V11.25Z" fill="#A58069" fill-opacity="0.3"/>
<path d="M10.0588 11.25H11.1765V12.375H10.0588V11.25Z" fill="#A58069" fill-opacity="0.3"/>
<path d="M8.94118 6.75H10.0588V7.875H8.94118V6.75Z" fill="#A58069" fill-opacity="0.3"/>
<path d="M8.94118 5.625H10.0588V6.75H8.94118V5.625Z" fill="#A58069" fill-opacity="0.3"/>
<path d="M8.94118 4.5H10.0588V5.625H8.94118V4.5Z" fill="#A58069" fill-opacity="0.3"/>
<path d="M12.2941 7.875H13.4118V9H12.2941V7.875Z" fill="#A58069" fill-opacity="0.3"/>
<path d="M12.2941 6.75H13.4118V7.875H12.2941V6.75Z" fill="#A58069" fill-opacity="0.3"/>
<path d="M12.2941 5.625H13.4118V6.75H12.2941V5.625Z" fill="#A58069" fill-opacity="0.3"/>
<path d="M12.2941 4.5H13.4118V5.625H12.2941V4.5Z" fill="#A58069" fill-opacity="0.3"/>
<path d="M12.2941 3.375H13.4118V4.5H12.2941V3.375Z" fill="#A58069" fill-opacity="0.3"/>
<path d="M15.6471 7.875H16.7647V9H15.6471V7.875Z" fill="#A58069" fill-opacity="0.3"/>
<path d="M16.7647 7.875H17.8824V9H16.7647V7.875Z" fill="#A58069" fill-opacity="0.3"/>
<path d="M15.6471 6.75H16.7647V7.875H15.6471V6.75Z" fill="#A58069" fill-opacity="0.3"/>
<path d="M15.6471 5.625H16.7647V6.75H15.6471V5.625Z" fill="#A58069" fill-opacity="0.3"/>
<path d="M15.6471 4.5H16.7647V5.625H15.6471V4.5Z" fill="#A58069" fill-opacity="0.3"/>
<path d="M15.6471 3.375H16.7647V4.5H15.6471V3.375Z" fill="#A58069" fill-opacity="0.3"/>
<path d="M15.6471 2.25H16.7647V3.375H15.6471V2.25Z" fill="#A58069" fill-opacity="0.3"/>
<path d="M15.6471 1.125H16.7647V2.25H15.6471V1.125Z" fill="#A58069" fill-opacity="0.3"/>
<path d="M1.11765 7.875H2.23529V9H1.11765V7.875Z" fill="#A58069" fill-opacity="0.3"/>
<path d="M4.47059 7.875H5.58824V9H4.47059V7.875Z" fill="#A58069" fill-opacity="0.3"/>
<path d="M4.47059 6.75H5.58824V7.875H4.47059V6.75Z" fill="#A58069" fill-opacity="0.3"/>
<path d="M4.47059 5.625H5.58824V6.75H4.47059V5.625Z" fill="#A58069" fill-opacity="0.3"/>
<path d="M4.47059 3.375H5.58824V4.5H4.47059V3.375Z" fill="#A58069" fill-opacity="0.3"/>
<path d="M4.47059 4.5H5.58824V5.625H4.47059V4.5Z" fill="#A58069" fill-opacity="0.3"/>
<path d="M4.47059 2.25H5.58824V3.375H4.47059V2.25Z" fill="#A58069" fill-opacity="0.3"/>
<path d="M7.82353 7.875H8.94118V9H7.82353V7.875Z" fill="#A58069" fill-opacity="0.3"/>
<path d="M7.82353 12.375H8.94118V13.5H7.82353V12.375Z" fill="#A58069" fill-opacity="0.3"/>
<path d="M7.82353 15.75H8.94118V16.875H7.82353V15.75Z" fill="#A58069" fill-opacity="0.3"/>
<path d="M4.47059 15.75H5.58824V16.875H4.47059V15.75Z" fill="#A58069" fill-opacity="0.3"/>
<path d="M4.47059 14.625H5.58824V15.75H4.47059V14.625Z" fill="#A58069" fill-opacity="0.3"/>
<path d="M5.58824 13.5H6.70588V14.625H5.58824V13.5Z" fill="#A58069" fill-opacity="0.3"/>
<path d="M2.23529 12.375H3.35294V13.5H2.23529V12.375Z" fill="white"/>
<path d="M16.7647 11.25H17.8824V12.375H16.7647V11.25Z" fill="white"/>
<path d="M2.23529 13.5H3.35294V14.625H2.23529V13.5Z" fill="white"/>
<path d="M16.7647 12.375H17.8824V13.5H16.7647V12.375Z" fill="white"/>
<path d="M15.6471 12.375H16.7647V13.5H15.6471V12.375Z" fill="white"/>
<path d="M14.5294 13.5H15.6471V14.625H14.5294V13.5Z" fill="white"/>
<path d="M3.35294 13.5H4.47059V14.625H3.35294V13.5Z" fill="white"/>
<path d="M15.6471 13.5H16.7647V14.625H15.6471V13.5Z" fill="white"/>
<path d="M4.47059 13.5H5.58824V14.625H4.47059V13.5Z" fill="white"/>
<path d="M16.7647 13.5H17.8824V14.625H16.7647V13.5Z" fill="white"/>
<path d="M3.35294 11.25H4.47059V12.375H3.35294V11.25Z" fill="white"/>
<path d="M12.2941 11.25H13.4118V12.375H12.2941V11.25Z" fill="white"/>
<path d="M2.23529 10.125H3.35294V11.25H2.23529V10.125Z" fill="white"/>
<path d="M11.1765 10.125H12.2941V11.25H11.1765V10.125Z" fill="white"/>
<path d="M4.47059 10.125H5.58824V11.25H4.47059V10.125Z" fill="white"/>
<path d="M13.4118 10.125H14.5294V11.25H13.4118V10.125Z" fill="white"/>
<path d="M7.82353 6.75H8.94118V7.875H7.82353V6.75Z" fill="#A58069" fill-opacity="0.3"/>
<path d="M7.82353 5.625H8.94118V6.75H7.82353V5.625Z" fill="#A58069" fill-opacity="0.3"/>
<path d="M7.82353 4.5H8.94118V5.625H7.82353V4.5Z" fill="#A58069" fill-opacity="0.3"/>
<path d="M11.1765 7.875H12.2941V9H11.1765V7.875Z" fill="#A58069" fill-opacity="0.3"/>
<path d="M11.1765 12.375H12.2941V13.5H11.1765V12.375Z" fill="#A58069" fill-opacity="0.3"/>
<path d="M11.1765 15.75H12.2941V16.875H11.1765V15.75Z" fill="#A58069" fill-opacity="0.3"/>
<path d="M11.1765 14.625H12.2941V15.75H11.1765V14.625Z" fill="#A58069" fill-opacity="0.3"/>
<path d="M10.0588 13.5H11.1765V14.625H10.0588V13.5Z" fill="#A58069" fill-opacity="0.3"/>
<path d="M14.5294 15.75H15.6471V16.875H14.5294V15.75Z" fill="#A58069" fill-opacity="0.3"/>
<path d="M14.5294 14.625H15.6471V15.75H14.5294V14.625Z" fill="#A58069" fill-opacity="0.3"/>
<path d="M15.6471 14.625H16.7647V15.75H15.6471V14.625Z" fill="#A58069" fill-opacity="0.3"/>
<path d="M11.1765 6.75H12.2941V7.875H11.1765V6.75Z" fill="#A58069" fill-opacity="0.3"/>
<path d="M11.1765 5.625H12.2941V6.75H11.1765V5.625Z" fill="#A58069" fill-opacity="0.3"/>
<path d="M11.1765 4.5H12.2941V5.625H11.1765V4.5Z" fill="#A58069" fill-opacity="0.3"/>
<path d="M14.5294 7.875H15.6471V9H14.5294V7.875Z" fill="#A58069" fill-opacity="0.3"/>
<path d="M14.5294 6.75H15.6471V7.875H14.5294V6.75Z" fill="#A58069" fill-opacity="0.3"/>
<path d="M14.5294 5.625H15.6471V6.75H14.5294V5.625Z" fill="#A58069" fill-opacity="0.3"/>
<path d="M14.5294 4.5H15.6471V5.625H14.5294V4.5Z" fill="#A58069" fill-opacity="0.3"/>
<path d="M14.5294 3.375H15.6471V4.5H14.5294V3.375Z" fill="#A58069" fill-opacity="0.3"/>
<path d="M14.5294 2.25H15.6471V3.375H14.5294V2.25Z" fill="#A58069" fill-opacity="0.3"/>
<path d="M14.5294 1.125H15.6471V2.25H14.5294V1.125Z" fill="#A58069" fill-opacity="0.3"/>
<path d="M3.35294 1.125H4.47059V2.25H3.35294V1.125Z" fill="#A58069" fill-opacity="0.3"/>
<path d="M3.35294 2.25H4.47059V3.375H3.35294V2.25Z" fill="#A58069" fill-opacity="0.3"/>
<path d="M3.35294 3.375H4.47059V4.5H3.35294V3.375Z" fill="#A58069" fill-opacity="0.3"/>
<path d="M3.35294 4.5H4.47059V5.625H3.35294V4.5Z" fill="#A58069" fill-opacity="0.3"/>
<path d="M3.35294 5.625H4.47059V6.75H3.35294V5.625Z" fill="#A58069" fill-opacity="0.3"/>
<path d="M1.11765 11.25H2.23529V12.375H1.11765V11.25Z" fill="#A58069" fill-opacity="0.3"/>
<path d="M3.35294 6.75H4.47059V7.875H3.35294V6.75Z" fill="#A58069" fill-opacity="0.3"/>
<path d="M1.11765 12.375H2.23529V13.5H1.11765V12.375Z" fill="#A58069" fill-opacity="0.3"/>
<path d="M3.35294 7.875H4.47059V9H3.35294V7.875Z" fill="#A58069" fill-opacity="0.3"/>
<path d="M1.11765 13.5H2.23529V14.625H1.11765V13.5Z" fill="#A58069" fill-opacity="0.3"/>
<path d="M6.70588 7.875H7.82353V9H6.70588V7.875Z" fill="#A58069" fill-opacity="0.3"/>
<path d="M6.70588 12.375H7.82353V13.5H6.70588V12.375Z" fill="#A58069" fill-opacity="0.3"/>
<path d="M6.70588 15.75H7.82353V16.875H6.70588V15.75Z" fill="#A58069" fill-opacity="0.3"/>
<path d="M6.70588 14.625H7.82353V15.75H6.70588V14.625Z" fill="#A58069" fill-opacity="0.3"/>
<path d="M7.82353 13.5H8.94118V14.625H7.82353V13.5Z" fill="#A58069" fill-opacity="0.3"/>
<path d="M3.35294 15.75H4.47059V16.875H3.35294V15.75Z" fill="#A58069" fill-opacity="0.3"/>
<path d="M3.35294 14.625H4.47059V15.75H3.35294V14.625Z" fill="#A58069" fill-opacity="0.3"/>
<path d="M2.23529 14.625H3.35294V15.75H2.23529V14.625Z" fill="#A58069" fill-opacity="0.3"/>
<path d="M6.70588 6.75H7.82353V7.875H6.70588V6.75Z" fill="#A58069" fill-opacity="0.3"/>
<path d="M6.70588 5.625H7.82353V6.75H6.70588V5.625Z" fill="#A58069" fill-opacity="0.3"/>
<path d="M6.70588 4.5H7.82353V5.625H6.70588V4.5Z" fill="#A58069" fill-opacity="0.3"/>
<path d="M10.0588 7.875H11.1765V9H10.0588V7.875Z" fill="#A58069" fill-opacity="0.3"/>
<path d="M10.0588 12.375H11.1765V13.5H10.0588V12.375Z" fill="#A58069" fill-opacity="0.3"/>
<path d="M10.0588 15.75H11.1765V16.875H10.0588V15.75Z" fill="#A58069" fill-opacity="0.3"/>
<path d="M13.4118 15.75H14.5294V16.875H13.4118V15.75Z" fill="#A58069" fill-opacity="0.3"/>
<path d="M13.4118 14.625H14.5294V15.75H13.4118V14.625Z" fill="#A58069" fill-opacity="0.3"/>
<path d="M12.2941 13.5H13.4118V14.625H12.2941V13.5Z" fill="#A58069" fill-opacity="0.3"/>
<path d="M13.4118 13.5H14.5294V14.625H13.4118V13.5Z" fill="#A58069" fill-opacity="0.3"/>
<path d="M10.0588 6.75H11.1765V7.875H10.0588V6.75Z" fill="#A58069" fill-opacity="0.3"/>
<path d="M10.0588 5.625H11.1765V6.75H10.0588V5.625Z" fill="#A58069" fill-opacity="0.3"/>
<path d="M10.0588 4.5H11.1765V5.625H10.0588V4.5Z" fill="#A58069" fill-opacity="0.3"/>
<path d="M13.4118 7.875H14.5294V9H13.4118V7.875Z" fill="#A58069" fill-opacity="0.3"/>
<path d="M13.4118 6.75H14.5294V7.875H13.4118V6.75Z" fill="#A58069" fill-opacity="0.3"/>
<path d="M13.4118 5.625H14.5294V6.75H13.4118V5.625Z" fill="#A58069" fill-opacity="0.3"/>
<path d="M13.4118 4.5H14.5294V5.625H13.4118V4.5Z" fill="#A58069" fill-opacity="0.3"/>
<path d="M13.4118 3.375H14.5294V4.5H13.4118V3.375Z" fill="#A58069" fill-opacity="0.3"/>
<path d="M13.4118 2.25H14.5294V3.375H13.4118V2.25Z" fill="#A58069" fill-opacity="0.3"/>
</g>
</svg>
