<svg width="26" height="26" viewBox="0 0 26 26" fill="none" xmlns="http://www.w3.org/2000/svg">
<path fill-rule="evenodd" clip-rule="evenodd" d="M1.82765 1.82765C0 3.65531 0 6.59685 0 12.48V13.52C0 19.4031 0 22.3447 1.82765 24.1724C3.65531 26 6.59685 26 12.48 26H13.52C19.4031 26 22.3447 26 24.1724 24.1724C26 22.3447 26 19.4031 26 13.52V12.48C26 6.59685 26 3.65531 24.1724 1.82765C22.3447 0 19.4031 0 13.52 0H12.48C6.59685 0 3.65531 0 1.82765 1.82765ZM4.3877 7.90869C4.52853 14.6687 7.90848 18.7312 13.8343 18.7312H14.1703V14.8637C16.3478 15.0804 17.9943 16.6729 18.6551 18.7312H21.7319C20.8869 15.6545 18.6659 13.9537 17.2793 13.3037C18.6659 12.502 20.6159 10.552 21.0818 7.90869H18.2867C17.68 10.0537 15.8819 12.0037 14.1703 12.1879V7.90869H11.3751V15.4054C9.64181 14.972 7.45353 12.8704 7.35603 7.90869H4.3877Z" fill="#A58069" fill-opacity="0.5"/>
</svg>
