<svg width="60" height="42" viewBox="0 0 60 42" fill="none" xmlns="http://www.w3.org/2000/svg">
<g id="YouTube">
<path id="Vector" d="M58.7509 6.56188C58.4062 5.28734 57.7325 4.126 56.7975 3.1945C55.8624 2.263 54.6989 1.59413 53.4238 1.25506C48.7435 0 29.9877 0 29.9877 0C29.9877 0 11.2269 0 6.55641 1.25506C5.28544 1.597 4.12659 2.26725 3.19597 3.19864C2.26536 4.13003 1.59567 5.28985 1.25401 6.56188C0 11.2412 0 21.0099 0 21.0099C0 21.0099 0 30.7786 1.25401 35.4579C1.59567 36.7299 2.26536 37.8897 3.19597 38.8211C4.12659 39.7525 5.28544 40.4228 6.55641 40.7647C11.2318 42 29.9877 42 29.9877 42C29.9877 42 48.7485 42 53.4238 40.7449C54.6966 40.4076 55.8584 39.7417 56.7933 38.8139C57.7282 37.886 58.4032 36.7288 58.7509 35.4579C60 30.7786 60 21.0099 60 21.0099C60 21.0099 59.9753 11.2412 58.7509 6.56188Z" fill="#FF0000"/>
<path id="Vector_2" d="M23.989 30.0115L39.5753 21.0087L23.989 12.0059V30.0115Z" fill="white"/>
</g>
</svg>
