<svg width="161" height="60" viewBox="0 0 161 60" fill="none" xmlns="http://www.w3.org/2000/svg">
<g clip-path="url(#clip0_843_1546)">
<path fill-rule="evenodd" clip-rule="evenodd" d="M9.6095 23.2299C6.72482 23.2299 4.38732 20.8924 4.38732 18.0077C4.38732 15.1248 6.72482 12.7855 9.6095 12.7855C12.4924 12.7855 14.8317 15.1248 14.8317 18.0077C14.8317 20.8924 12.4924 23.2299 9.6095 23.2299ZM11.5893 1.62393V5.58529C13.9392 5.58529 16.2873 4.68747 18.0812 2.89539L15.2815 0.0957031C14.2615 1.1157 12.9245 1.62393 11.5893 1.62393ZM9.6095 7.56508V3.60549C4.53784 3.60549 0.427734 7.7156 0.427734 12.7855H2.0569C1.02982 14.2695 0.427734 16.0686 0.427734 18.0077C0.427734 23.0793 4.53784 27.1895 9.6095 27.1895C14.6794 27.1895 18.7895 23.0793 18.7895 18.0077C18.7895 12.9378 14.6794 8.82591 9.6095 8.82591C8.02638 8.82591 6.53534 9.22789 5.23555 9.93268C6.167 8.50716 7.77846 7.56508 9.6095 7.56508ZM142.039 18.052C142.039 16.8389 142.248 15.6897 142.67 14.6095C143.088 13.5292 143.695 12.5801 144.489 11.7637C145.284 10.9474 146.243 10.2957 147.368 9.81049C148.494 9.32529 149.762 9.08268 151.175 9.08268C153.072 9.08268 154.689 9.48997 156.024 10.3063C157.357 11.1227 158.356 12.194 159.018 13.5168L154.683 14.8414C154.308 14.2022 153.81 13.7099 153.194 13.3681C152.576 13.0263 151.891 12.8546 151.142 12.8546C150.501 12.8546 149.906 12.9821 149.355 13.2353C148.802 13.4903 148.322 13.8427 147.915 14.2942C147.506 14.7476 147.187 15.293 146.955 15.9323C146.723 16.5733 146.606 17.2799 146.606 18.052C146.606 18.824 146.729 19.5288 146.971 20.1699C147.214 20.8091 147.54 21.3599 147.947 21.8238C148.356 22.2878 148.836 22.6473 149.387 22.9005C149.939 23.1537 150.524 23.2812 151.142 23.2812C151.935 23.2812 152.668 23.0811 153.343 22.6845C154.016 22.2878 154.485 21.8026 154.749 21.2288L159.084 22.5516C158.489 23.8762 157.506 24.9564 156.139 25.7958C154.77 26.6352 153.127 27.0531 151.207 27.0531C149.796 27.0531 148.526 26.8105 147.402 26.3253C146.275 25.8401 145.317 25.1831 144.522 24.3561C143.727 23.5291 143.116 22.5693 142.686 21.4767C142.256 20.3841 142.039 19.242 142.039 18.052ZM126.904 16.5946C126.793 15.293 126.313 14.2517 125.464 13.4673C124.614 12.6846 123.584 12.2932 122.371 12.2932C121.774 12.2932 121.216 12.3977 120.699 12.6066C120.18 12.8174 119.722 13.1096 119.325 13.485C118.928 13.8586 118.603 14.312 118.349 14.8414C118.094 15.3709 117.946 15.9553 117.901 16.5946H126.904ZM122.403 27.0531C121.013 27.0531 119.755 26.8158 118.629 26.3412C117.505 25.8666 116.545 25.2221 115.751 24.4057C114.956 23.5893 114.344 22.6402 113.913 21.56C113.485 20.478 113.269 19.3429 113.269 18.1511C113.269 16.9151 113.478 15.7516 113.897 14.659C114.317 13.5664 114.923 12.6066 115.718 11.7797C116.511 10.9527 117.476 10.2957 118.613 9.81049C119.75 9.32529 121.023 9.08268 122.436 9.08268C123.848 9.08268 125.11 9.32529 126.226 9.81049C127.34 10.2957 128.289 10.9474 129.072 11.7637C129.854 12.5801 130.451 13.5292 130.858 14.6095C131.268 15.6914 131.471 16.8159 131.471 17.9847C131.471 18.2715 131.466 18.5478 131.455 18.8116C131.443 19.0773 131.416 19.2986 131.372 19.4739H117.969C118.034 20.1592 118.201 20.7649 118.464 21.2943C118.73 21.8238 119.072 22.2772 119.491 22.6508C119.909 23.0262 120.384 23.3131 120.913 23.5114C121.443 23.7115 121.994 23.8107 122.569 23.8107C123.451 23.8107 124.283 23.5947 125.068 23.1643C125.851 22.734 126.385 22.1674 126.672 21.459L130.478 22.5198C129.838 23.8426 128.818 24.9299 127.416 25.7781C126.015 26.6281 124.344 27.0531 122.403 27.0531ZM89.0756 15.9323H95.9606V9.38018H100.361V26.722H95.9606V19.7059H89.0756V26.722H84.6733V9.38018H89.0756V15.9323ZM59.1078 11.2661C59.9685 10.5171 60.9052 9.96456 61.9217 9.61216C62.9364 9.25799 63.9741 9.08268 65.033 9.08268C65.8051 9.08268 66.5329 9.17654 67.2165 9.36424C67.9 9.55195 68.5021 9.83174 69.021 10.2072C69.538 10.5826 69.9471 11.0518 70.2446 11.6132C70.5421 12.1763 70.6926 12.8227 70.6926 13.5505C70.6926 14.4766 70.4447 15.2877 69.9471 15.9818C69.4513 16.6778 68.75 17.1134 67.8451 17.2905C69.1042 17.5331 70.0516 18.0466 70.6926 18.8293C71.3319 19.6121 71.6524 20.5896 71.6524 21.7583C71.6524 22.5516 71.4806 23.2759 71.1389 23.9258C70.7953 24.5775 70.3278 25.1335 69.7328 25.5975C69.1361 26.0597 68.4242 26.4191 67.5972 26.6724C66.7702 26.9256 65.8706 27.0531 64.9002 27.0531C63.5544 27.0531 62.329 26.8317 61.2257 26.3908C60.1225 25.9499 59.23 25.3318 58.5465 24.5385L60.6644 21.691C61.1053 22.2435 61.6507 22.6561 62.3024 22.9324C62.9523 23.2086 63.6642 23.3467 64.4363 23.3467C65.3624 23.3467 66.0867 23.159 66.6055 22.7836C67.1226 22.4082 67.3829 21.8681 67.3829 21.1615C67.3829 20.3682 67.089 19.7555 66.5046 19.3252C65.9202 18.8949 64.9339 18.6806 63.5438 18.6806H62.1855V16.1324H63.5101C64.5691 16.1324 65.3801 15.9287 65.9432 15.5197C66.5046 15.1106 66.7862 14.5882 66.7862 13.9472C66.7862 13.3964 66.5825 12.9767 66.1734 12.6899C65.7662 12.403 65.2314 12.2596 64.5691 12.2596C63.9953 12.2596 63.3897 12.3871 62.7487 12.6403C62.1094 12.8935 61.5232 13.2636 60.9955 13.7488L59.1078 11.2661ZM34.4012 20.4018L42.6072 9.38018H45.885V26.722H41.4827V15.9996L33.3741 26.722H29.9989V9.38018H34.4012V20.4018Z" fill="#231F20"/>
<path fill-rule="evenodd" clip-rule="evenodd" d="M3.12271 54.5719C3.49812 54.7933 3.85583 54.9473 4.1976 55.0359C4.53937 55.1244 4.86521 55.1687 5.17333 55.1687C5.72583 55.1687 6.20041 54.8977 6.59708 54.3576C6.99375 53.8158 7.34614 52.8507 7.65604 51.4623L0.804688 34.1188H5.37344L10.0715 47.6232L14.2418 34.1188H18.4121L11.5944 53.7113C10.9321 55.6096 10.121 56.9661 9.16302 57.7824C8.20146 58.5988 7.02739 59.0078 5.63729 59.0078C5.12906 59.0078 4.6775 58.9618 4.28083 58.875C3.88417 58.7865 3.49812 58.6218 3.12271 58.3792V54.5719ZM34.4009 45.1405L42.607 34.1188H45.8848V51.4623H41.4825V40.7382L33.3738 51.4623H29.9986V34.1188H34.4009V45.1405ZM69.1695 34.1188H73.9348L67.1843 42.5249L74.4642 51.4623H69.4333L64.073 44.7757H62.9149V51.4623H58.5462V34.1188H62.9149V41.0038H63.9065L69.1695 34.1188ZM97.0512 41.3349C96.9414 40.0334 96.4615 38.9904 95.6115 38.2059C94.7633 37.4232 93.7309 37.0318 92.5179 37.0318C91.9211 37.0318 91.3651 37.1363 90.8462 37.3453C90.3274 37.556 89.8705 37.8482 89.4721 38.2236C89.0754 38.599 88.7495 39.0506 88.4963 39.58C88.2413 40.1095 88.0943 40.6939 88.0501 41.3349H97.0512ZM92.5498 51.7917C91.1596 51.7917 89.9041 51.5544 88.7779 51.0798C87.6516 50.607 86.6918 49.9607 85.8985 49.1443C85.1034 48.328 84.4907 47.3806 84.0622 46.2986C83.6318 45.2166 83.4158 44.0815 83.4158 42.8897C83.4158 41.6537 83.6248 40.4902 84.0444 39.3976C84.4641 38.3068 85.0715 37.3452 85.8649 36.5183C86.66 35.6913 87.6233 35.0343 88.7619 34.5491C89.8971 34.0639 91.172 33.8213 92.5834 33.8213C93.9948 33.8213 95.2591 34.0639 96.373 34.5491C97.4868 35.0343 98.436 35.686 99.2205 36.5023C100.001 37.3187 100.598 38.2679 101.007 39.3481C101.415 40.43 101.618 41.5545 101.618 42.725C101.618 43.0101 101.613 43.2864 101.602 43.552C101.592 43.8159 101.563 44.0372 101.519 44.2143H88.1156C88.1811 44.8979 88.3476 45.5035 88.6114 46.0347C88.877 46.5624 89.2188 47.0158 89.6385 47.3912C90.0564 47.7666 90.531 48.0535 91.0605 48.2518C91.59 48.4501 92.1425 48.5493 92.7162 48.5493C93.5981 48.5493 94.4322 48.3333 95.2149 47.903C95.9976 47.4726 96.5324 46.906 96.8192 46.1994L100.627 47.2584C99.9855 48.5812 98.9655 49.6685 97.5648 50.5185C96.1623 51.3685 94.4924 51.7917 92.5498 51.7917ZM118.928 40.6726H125.811V34.1188H130.214V51.4623H125.811V44.4445H118.928V51.4623H114.526V34.1188H118.928V40.6726ZM154.311 47.6232V37.8269H150.438L150.107 40.4407C149.888 42.2274 149.617 43.6831 149.298 44.8093C148.977 45.9338 148.574 46.8723 148.088 47.6232H154.311ZM141.701 47.6232H142.629C143.158 47.5559 143.594 47.3859 143.936 47.1096C144.278 46.8334 144.575 46.3924 144.83 45.785C145.083 45.1794 145.292 44.3684 145.459 43.3537C145.623 42.339 145.793 41.0481 145.97 39.4809L146.567 34.1188H158.713V47.6232H161.03V56.426H157.091V51.4623H145.508V56.426H141.701V47.6232Z" fill="#E51E27"/>
</g>
<defs>
<clipPath id="clip0_843_1546">
<rect width="161" height="60" fill="white"/>
</clipPath>
</defs>
</svg>
