<svg width="237" height="88" viewBox="0 0 237 88" fill="none" xmlns="http://www.w3.org/2000/svg">
<g id="&#208;&#177;&#208;&#184;&#208;&#183;&#208;&#189;&#208;&#181;&#209;&#129; &#209;&#131;&#208;&#184;&#208;&#186;&#208;&#181;&#208;&#189;&#208;&#180;" clip-path="url(#clip0_1957_993)">
<g id="Group">
<path id="Vector" fill-rule="evenodd" clip-rule="evenodd" d="M14.1457 34.0707C9.89926 34.0707 6.45834 30.6424 6.45834 26.4115C6.45834 22.1832 9.89926 18.7523 14.1457 18.7523C18.3895 18.7523 21.833 22.1832 21.833 26.4115C21.833 30.6424 18.3895 34.0707 14.1457 34.0707ZM17.06 2.38203V8.19201C20.5192 8.19201 23.9757 6.87522 26.6164 4.24683L22.4951 0.140625C20.9936 1.63662 19.0255 2.38203 17.06 2.38203ZM14.1457 11.0957V5.28832C6.67991 5.28832 0.629639 11.3165 0.629639 18.7523H3.02785C1.51594 20.9288 0.629639 23.5676 0.629639 26.4115C0.629639 33.85 6.67991 39.8781 14.1457 39.8781C21.6088 39.8781 27.6591 33.85 27.6591 26.4115C27.6591 18.9757 21.6088 12.9449 14.1457 12.9449C11.8152 12.9449 9.62033 13.5345 7.70698 14.5682C9.07813 12.4774 11.4503 11.0957 14.1457 11.0957ZM209.089 26.4765C209.089 24.6974 209.397 23.0118 210.017 21.4275C210.632 19.8431 211.526 18.451 212.694 17.2537C213.865 16.0564 215.278 15.1006 216.933 14.389C218.591 13.6773 220.457 13.3215 222.537 13.3215C225.329 13.3215 227.709 13.9189 229.675 15.1162C231.638 16.3135 233.108 17.8848 234.083 19.825L227.701 21.7677C227.149 20.8301 226.416 20.1081 225.509 19.6068C224.599 19.1055 223.591 18.8536 222.488 18.8536C221.544 18.8536 220.668 19.0406 219.858 19.412C219.044 19.786 218.338 20.3029 217.738 20.9651C217.136 21.63 216.667 22.43 216.326 23.3676C215.984 24.3078 215.812 25.3441 215.812 26.4765C215.812 27.6088 215.992 28.6425 216.349 29.5827C216.706 30.5203 217.186 31.3281 217.785 32.0085C218.387 32.689 219.094 33.2162 219.905 33.5877C220.718 33.9591 221.578 34.146 222.488 34.146C223.656 34.146 224.735 33.8526 225.728 33.2708C226.719 32.689 227.409 31.9774 227.798 31.1359L234.179 33.076C233.303 35.0187 231.857 36.603 229.844 37.8341C227.829 39.0652 225.41 39.6781 222.584 39.6781C220.507 39.6781 218.638 39.3223 216.982 38.6107C215.324 37.899 213.914 36.9355 212.744 35.7226C211.573 34.5097 210.674 33.102 210.041 31.4995C209.407 29.897 209.089 28.2218 209.089 26.4765ZM186.809 24.3389C186.645 22.43 185.939 20.9028 184.69 19.7522C183.439 18.6043 181.922 18.0303 180.136 18.0303C179.257 18.0303 178.436 18.1835 177.675 18.49C176.911 18.7991 176.236 19.2276 175.652 19.7782C175.068 20.3262 174.589 20.9911 174.216 21.7677C173.841 22.5443 173.622 23.4013 173.556 24.3389H186.809ZM180.183 39.6781C178.137 39.6781 176.286 39.3301 174.628 38.6341C172.973 37.938 171.56 36.9926 170.392 35.7953C169.221 34.598 168.32 33.2059 167.686 31.6216C167.055 30.0346 166.737 28.3698 166.737 26.6219C166.737 24.809 167.045 23.1027 167.663 21.5002C168.28 19.8977 169.172 18.49 170.342 17.2771C171.51 16.0642 172.931 15.1006 174.604 14.389C176.278 13.6773 178.152 13.3215 180.232 13.3215C182.31 13.3215 184.169 13.6773 185.811 14.389C187.45 15.1006 188.848 16.0564 190 17.2537C191.152 18.451 192.031 19.8431 192.63 21.4275C193.232 23.0144 193.532 24.6636 193.532 26.3778C193.532 26.7985 193.524 27.2037 193.509 27.5907C193.49 27.9802 193.451 28.3049 193.386 28.562H173.656C173.752 29.5671 173.997 30.4554 174.385 31.232C174.776 32.0085 175.28 32.6734 175.897 33.2214C176.513 33.7721 177.211 34.1928 177.991 34.4837C178.77 34.7772 179.581 34.9226 180.428 34.9226C181.726 34.9226 182.951 34.6058 184.106 33.9746C185.258 33.3435 186.045 32.5124 186.468 31.4735L192.07 33.0292C191.129 34.9694 189.627 36.5641 187.563 37.8081C185.501 39.0548 183.04 39.6781 180.183 39.6781ZM131.124 23.3676H141.259V13.7579H147.737V39.1925H141.259V28.9023H131.124V39.1925H124.643V13.7579H131.124V23.3676ZM87.0096 16.5239C88.2765 15.4253 89.6555 14.6149 91.1518 14.0981C92.6455 13.5786 94.173 13.3215 95.7318 13.3215C96.8684 13.3215 97.9398 13.4592 98.946 13.7345C99.9522 14.0098 100.838 14.4201 101.602 14.9708C102.363 15.5214 102.966 16.2096 103.404 17.033C103.841 17.8589 104.063 18.8069 104.063 19.8743C104.063 21.2327 103.698 22.4222 102.966 23.4403C102.236 24.461 101.203 25.0999 99.8714 25.3596C101.725 25.7155 103.119 26.4687 104.063 27.6166C105.004 28.7646 105.476 30.1983 105.476 31.9124C105.476 33.076 105.223 34.1383 104.72 35.0914C104.214 36.0472 103.526 36.8628 102.65 37.5432C101.772 38.2211 100.724 38.7483 99.5064 39.1197C98.2891 39.4911 96.9648 39.6781 95.5363 39.6781C93.5552 39.6781 91.7513 39.3535 90.1273 38.7068C88.5033 38.0601 87.1895 37.1536 86.1833 35.9901L89.301 31.8137C89.9501 32.6241 90.7529 33.2292 91.7122 33.6344C92.6689 34.0396 93.7168 34.2421 94.8534 34.2421C96.2167 34.2421 97.2829 33.9668 98.0466 33.4162C98.8078 32.8656 99.191 32.0735 99.191 31.0372C99.191 29.8736 98.7583 28.975 97.8981 28.3439C97.0378 27.7127 95.5859 27.3985 93.5396 27.3985H91.5402V23.6611H93.49C95.0489 23.6611 96.2428 23.3624 97.0717 22.7624C97.8981 22.1625 98.3125 21.3963 98.3125 20.4561C98.3125 19.6484 98.0127 19.0328 97.4106 18.6121C96.811 18.1913 96.0238 17.9809 95.0489 17.9809C94.2043 17.9809 93.3128 18.1679 92.3691 18.5393C91.4281 18.9107 90.5653 19.4536 89.7884 20.1652L87.0096 16.5239ZM50.6402 29.923L62.7199 13.7579H67.545V39.1925H61.0646V23.4663L49.1283 39.1925H44.1598V13.7579H50.6402V29.923Z" fill="#A58069"/>
</g>
<path id="Vector_2" fill-rule="evenodd" clip-rule="evenodd" d="M4.59681 80.0387C5.14944 80.3634 5.67601 80.5894 6.17911 80.7192C6.68221 80.8491 7.16186 80.914 7.61543 80.914C8.42874 80.914 9.12735 80.5166 9.71126 79.7245C10.2952 78.9297 10.8139 77.5142 11.2701 75.478L1.18457 50.0408H7.91L14.8257 69.8472L20.9646 50.0408H27.1035L17.0675 78.7765C16.0926 81.5607 14.8987 83.5502 13.4884 84.7475C12.073 85.9448 10.3447 86.5448 8.2984 86.5448C7.55026 86.5448 6.88554 86.4773 6.30163 86.35C5.71771 86.2201 5.14944 85.9786 4.59681 85.6228V80.0387ZM50.6399 66.2059L62.7196 50.0408H67.5447V75.478H61.0643V59.7492L49.128 75.478H44.1595V50.0408H50.6399V66.2059ZM101.821 50.0408H108.836L98.8987 62.3698L109.615 75.478H102.209L94.3187 65.6709H92.6138V75.478H86.183V50.0408H92.6138V60.1388H94.0736L101.821 50.0408ZM142.864 60.6245C142.703 58.7156 141.996 57.1858 140.745 56.0352C139.496 54.8872 137.977 54.3133 136.191 54.3133C135.312 54.3133 134.494 54.4665 133.73 54.773C132.966 55.082 132.294 55.5106 131.707 56.0612C131.123 56.6118 130.644 57.2741 130.271 58.0507C129.896 58.8272 129.679 59.6843 129.614 60.6245H142.864ZM136.238 75.9611C134.192 75.9611 132.343 75.6131 130.685 74.917C129.028 74.2236 127.615 73.2756 126.447 72.0783C125.276 70.8809 124.375 69.4914 123.744 67.9045C123.11 66.3176 122.792 64.6528 122.792 62.9049C122.792 61.092 123.1 59.3856 123.718 57.7831C124.335 56.1833 125.23 54.773 126.397 53.5601C127.568 52.3472 128.986 51.3836 130.662 50.672C132.333 49.9603 134.21 49.6045 136.287 49.6045C138.365 49.6045 140.226 49.9603 141.866 50.672C143.505 51.3836 144.903 52.3394 146.058 53.5367C147.207 54.734 148.086 56.1261 148.688 57.7104C149.287 59.2973 149.587 60.9466 149.587 62.6633C149.587 63.0815 149.579 63.4866 149.564 63.8762C149.548 64.2632 149.506 64.5879 149.441 64.8476H129.711C129.807 65.8501 130.052 66.7384 130.44 67.5175C130.831 68.2915 131.335 68.9564 131.952 69.507C132.568 70.0576 133.266 70.4784 134.046 70.7693C134.825 71.0601 135.638 71.2056 136.483 71.2056C137.781 71.2056 139.009 70.8887 140.161 70.2576C141.313 69.6265 142.1 68.7954 142.523 67.7591L148.127 69.3122C147.184 71.2523 145.682 72.847 143.62 74.0937C141.556 75.3404 139.097 75.9611 136.238 75.9611ZM175.068 59.6531H185.201V50.0408H191.681V75.478H185.201V65.1852H175.068V75.478H168.588V50.0408H175.068V59.6531ZM227.154 69.8472V55.4794H221.453L220.965 59.3129C220.642 61.9335 220.243 64.0684 219.774 65.7203C219.302 67.3695 218.708 68.746 217.993 69.8472H227.154ZM208.591 69.8472H209.957C210.736 69.7485 211.378 69.4992 211.881 69.094C212.384 68.6889 212.822 68.0422 213.197 67.1513C213.57 66.2631 213.877 65.0735 214.122 63.5853C214.365 62.0971 214.615 60.2038 214.876 57.9052L215.754 50.0408H233.634V69.8472H237.044V82.758H231.246V75.478H214.195V82.758H208.591V69.8472Z" fill="#A58069"/>
</g>
<defs>
<clipPath id="clip0_1957_993">
<rect width="237" height="88" fill="white"/>
</clipPath>
</defs>
</svg>
