<svg width="240" height="51" viewBox="0 0 240 51" fill="none" xmlns="http://www.w3.org/2000/svg">
<path d="M0.938053 0.882901H43.5352V39.8211C43.5352 43.9526 40.661 46.4203 35.8504 46.4203H30.6672C27.2516 46.4203 24.4855 47.3485 22.2487 49.2614C19.9878 47.3598 17.2337 46.4203 13.8303 46.4203H8.65895C3.82437 46.4203 0.938053 43.9526 0.938053 39.8211V0.882901ZM0 39.8211C0 44.4393 3.31927 47.3031 8.65895 47.3031H13.8423C17.1014 47.3031 19.7111 48.2087 21.8278 50.0764L22.2607 50.4612L22.6937 50.0764C24.7982 48.2087 27.408 47.3031 30.6792 47.3031H35.8625C41.1781 47.3031 44.4853 44.4393 44.4853 39.8211V0H0V39.8211Z" fill="#A58069"/>
<path d="M8.77861 27.4595C9.07925 27.0747 9.1875 26.622 9.19952 26.1691C9.22357 25.3541 9.46409 24.5957 9.84895 23.8714C10.0293 23.5204 10.2458 23.1808 10.4623 22.8073C10.3781 22.8526 10.318 22.8752 10.2578 22.9092C10.0053 23.1129 9.75273 23.3393 9.48815 23.5431C9.42803 23.5883 9.34383 23.6223 9.24763 23.6788C9.24763 23.5996 9.22357 23.5544 9.2356 23.5204C9.71666 22.6602 10.342 21.9244 11.2801 21.4603C11.5326 21.3359 11.7972 21.2792 12.0738 21.2905C12.9517 21.3471 13.6613 21.7433 14.2747 22.3206C14.3588 22.3998 14.4189 22.479 14.3468 22.5922C14.2747 22.7167 14.1904 22.7846 14.0341 22.7621C13.6733 22.7281 13.3125 22.6941 12.9517 22.6714C11.9896 22.6035 11.3402 23.0676 10.8592 23.792C10.4863 24.3467 10.2699 24.9466 10.1616 25.5919C10.0293 26.3729 9.63247 27.0068 8.99508 27.5275C8.92291 27.584 8.83873 27.618 8.76658 27.6632C8.74253 27.6406 8.7305 27.618 8.70644 27.5954C8.7305 27.55 8.74252 27.4935 8.77861 27.4595ZM15.7538 23.1921C16.2711 22.9657 16.8362 22.8978 17.3894 22.8073C17.63 22.7733 17.6781 22.83 17.6901 23.0564C17.7141 23.4525 17.7502 23.8374 17.7864 24.2335C17.8825 25.2523 17.4857 26.1238 16.9084 26.9501C16.5476 27.4708 16.1387 27.935 15.5614 28.2518C15.333 28.3763 15.1406 28.5574 14.936 28.716C14.8519 28.7838 14.7918 28.863 14.6715 28.9876C15.1285 29.214 15.5614 29.1687 15.9704 29.2367C16.0425 29.3724 15.9824 29.4517 15.8621 29.497C15.6216 29.5875 15.3931 29.6668 15.1526 29.7574C14.7316 29.8931 14.3107 30.0063 13.9018 30.1649C13.096 30.4817 12.5068 31.0137 12.0738 31.7268C11.9656 31.8967 11.8694 32.0665 11.7611 32.2362C11.701 32.3267 11.6288 32.4286 11.5086 32.3607C11.4484 32.3267 11.4003 32.2023 11.4003 32.123C11.4484 31.4326 11.7852 30.9118 12.3865 30.5157C13.0479 30.0855 13.4689 29.5196 13.541 28.75C13.6613 27.4595 13.8417 26.1918 14.1784 24.9353C14.3949 24.1203 14.948 23.5544 15.7538 23.1921ZM16.0665 18.9928C15.3209 18.9361 14.6234 18.721 13.9378 18.4721C13.1802 18.1891 12.4226 18.223 11.713 18.6191C11.689 18.6305 11.6529 18.6418 11.6168 18.6531C11.4725 18.5173 11.5326 18.3929 11.6409 18.2683C11.8814 17.9966 12.1941 17.8268 12.5549 17.7363C13.4449 17.4872 14.3228 17.2269 15.2127 16.9778C15.3931 16.9213 15.5614 16.8647 15.7418 16.7967C15.802 16.7741 15.8621 16.7175 15.9704 16.6497C14.7678 16.4573 13.6853 16.593 12.603 16.9892C12.3023 16.5138 12.3504 16.2874 12.7954 15.9704C13.1923 15.6988 13.6373 15.6083 14.1063 15.6083C14.7556 15.6083 15.4051 15.6761 16.0305 15.846C16.5958 16.0044 17.173 16.1742 17.7382 16.3327C17.7622 16.3327 17.7622 16.3666 17.7984 16.3892C17.642 16.5591 17.4014 16.5703 17.209 16.6835C17.0166 16.7854 16.8122 16.8759 16.6198 16.9666C16.4153 17.0685 16.1988 17.159 15.9944 17.2609C15.802 17.3514 15.5976 17.442 15.3931 17.5212C15.1766 17.6004 14.9602 17.6571 14.7556 17.7703C14.936 17.8495 15.0925 17.7703 15.2729 17.7589C15.4531 17.7363 15.6457 17.7136 15.826 17.6909C16.0064 17.6684 16.1988 17.6457 16.3792 17.6117C16.5596 17.5779 16.74 17.5439 16.9324 17.4985C16.8242 17.7928 16.6438 17.9174 15.8381 18.2343C15.8861 18.257 15.9222 18.291 15.9584 18.291C16.5596 18.2683 17.1489 18.2343 17.6781 17.9287C17.8104 17.8495 17.9666 17.7703 18.1111 17.7136C18.1592 17.6909 18.2553 17.6909 18.2915 17.7249C18.3275 17.7589 18.3275 17.8495 18.3155 17.8947C18.1832 18.2116 17.9666 18.4721 17.6661 18.6645C17.161 18.9361 16.6318 19.038 16.0665 18.9928ZM14.6715 10.6731C14.912 10.9787 15.1285 11.273 15.357 11.556C16.8603 13.5142 18.3516 15.461 19.8549 17.4193C20.9253 18.8115 21.9835 20.2039 23.0538 21.5848C24.1843 23.045 25.3148 24.5051 26.4452 25.9654C27.1549 26.8936 27.8644 27.8104 28.5739 28.7386C28.6822 28.8857 28.7905 29.0216 29.0069 29.0329C29.1511 29.0329 29.1993 29.1575 29.2113 29.2705C29.2474 29.5423 29.2834 29.8252 29.3316 30.1649C28.9347 29.9837 28.5859 29.8252 28.2252 29.6555C28.2612 29.565 28.2854 29.497 28.3214 29.4404C28.4416 29.2819 28.4176 29.1461 28.2974 28.9876C27.5277 27.9802 26.7699 26.9728 26.0003 25.9767C24.9781 24.6297 23.9439 23.2713 22.9095 21.9244C22.0677 20.8265 21.2378 19.7284 20.396 18.6305C18.58 16.2535 16.764 13.8651 14.948 11.488C14.8279 11.3409 14.7076 11.1937 14.5874 11.0353C14.5031 10.9221 14.5031 10.8089 14.6715 10.6731ZM18.2915 11.7144C18.6763 11.9748 19.025 12.2691 19.3858 12.5634C19.7225 12.835 20.0232 13.1407 20.4562 13.2765C20.6727 13.3444 20.9011 13.3557 21.1898 13.401C20.9253 13.5481 20.6727 13.6161 20.4322 13.5935C20.1796 13.5821 19.9271 13.4916 19.6624 13.4236C19.8789 13.7859 20.6967 14.0348 21.6468 14.0009C21.6468 14.0915 21.6708 14.2047 21.6348 14.2839C21.5385 14.499 21.4304 14.7254 21.2859 14.9178C21.0454 15.2461 20.7087 15.3366 20.2999 15.2461C18.7484 14.9065 17.7021 13.9783 17.0166 12.6652C16.9444 12.5407 16.9084 12.3936 16.8843 12.2464C16.8603 12.0427 16.8002 11.8616 16.5958 11.7484C16.5476 11.7258 16.5236 11.6578 16.4635 11.5786C17.1369 11.3522 17.7382 11.3409 18.2915 11.7144ZM20.7087 6.96034C20.3479 7.14145 20.0112 7.36784 19.6022 7.43575C19.3017 7.48103 19.037 7.4018 18.7844 7.25464C18.7244 7.22069 18.7003 7.15277 18.6402 7.05089C18.8687 7.07354 19.037 7.07354 19.2174 7.09618C19.5542 7.14145 19.8549 7.08486 20.1435 6.92639C20.4682 6.74527 20.805 6.56417 21.1417 6.37174C21.3822 6.23592 21.6468 6.2246 21.9113 6.30383C21.9595 6.31515 22.0076 6.37174 22.0556 6.41702C22.0076 6.45097 21.9956 6.48494 21.9595 6.48494C21.4784 6.50758 21.0935 6.75659 20.7087 6.96034ZM19.2775 7.92247C19.2655 7.89985 19.2655 7.8772 19.2535 7.85456C19.6144 7.70742 19.9872 7.54894 20.384 7.39048C20.1435 7.77533 19.6985 7.97908 19.2775 7.92247ZM22.3563 7.84324C22.4646 8.04699 22.5367 8.26206 22.6208 8.47713C22.681 8.62427 22.7051 8.78275 22.7532 8.97517C22.4646 8.95253 22.236 8.95253 22.0196 8.92989C21.779 8.90725 21.6708 8.77143 21.7069 8.54504C21.743 8.2847 21.8392 8.04699 22.0076 7.83192C22.1519 7.65082 22.2481 7.6395 22.3563 7.84324ZM21.7189 9.94863C21.9956 9.94863 22.0316 9.99391 21.9715 10.2429C21.9355 10.3901 21.8993 10.5146 22.1399 10.5599C22.1639 10.3788 22.188 10.209 22.212 10.0279C22.8494 9.92599 22.9697 10.0279 22.8012 10.5599C22.7051 10.8542 22.5608 11.1371 22.4044 11.4088C22.2841 11.6126 22.1759 11.6012 21.9715 11.4654C21.6348 11.239 21.5025 10.8994 21.3702 10.5599C21.2859 10.3335 21.2378 10.0958 21.1537 9.88072C21.0935 9.71092 21.1417 9.59774 21.2619 9.48454C21.6468 9.09969 22.4284 9.13364 22.7892 9.54113C22.6088 9.7562 22.3083 9.80147 22.0316 9.68829C21.8993 9.63169 21.743 9.59772 21.5986 9.59772C21.5145 9.59772 21.4182 9.67697 21.3341 9.72224C21.4182 9.89204 21.5505 9.94863 21.7189 9.94863ZM24.6654 11.273C24.6774 11.2617 24.7015 11.2843 24.7616 11.2843C24.7375 11.3409 24.7135 11.3975 24.6774 11.4314C24.4248 11.6578 24.2444 11.9182 24.1001 12.2238C24.04 12.337 23.9679 12.4502 23.8716 12.5181C23.2102 12.9369 22.8374 13.5481 22.633 14.2386C22.4526 14.8159 22.3804 15.4158 22.224 15.9931C22.1639 16.2422 22.0316 16.4798 21.8873 16.6949C21.767 16.8759 21.5505 16.944 21.2499 16.9213C21.3822 17.2156 21.5866 17.408 21.803 17.5665C22.0076 17.7249 22.2601 17.8268 22.5007 17.9627C22.3563 18.257 22.2 18.5513 22.0316 18.8909C21.5385 18.2683 21.0815 17.7023 20.6366 17.1477C20.9253 16.7402 21.2018 16.3779 21.4544 16.0044C21.791 15.5064 21.9595 14.9405 21.9956 14.3518C22.0076 14.0575 22.0917 13.7972 22.224 13.5481C22.7411 12.5068 23.583 11.771 24.6654 11.273ZM25.3629 13.4916C25.447 13.5935 25.3749 13.684 25.3148 13.7745C24.6774 14.7254 24.449 15.7555 24.5331 16.8647C24.5691 17.3174 24.5932 17.7816 24.6052 18.2343C24.6052 18.9022 24.2204 19.3436 23.595 19.604C23.4146 19.6832 23.2222 19.7171 23.0298 19.7511C22.8975 19.7737 22.8134 19.6945 22.8494 19.5587C22.9577 19.0833 23.0779 18.6191 23.5109 18.3022C23.6792 18.1778 23.7273 18.0306 23.7033 17.8381C23.6672 17.6004 23.6432 17.3628 23.607 17.125C23.5589 16.7741 23.6432 16.4346 23.7513 16.1176C23.8596 15.8007 24.016 15.5064 24.1483 15.2008C24.1603 15.1668 24.1723 15.1329 24.1964 15.0989C23.8716 15.2008 23.6552 15.461 23.2823 15.5177C23.2943 15.4385 23.2943 15.3932 23.3185 15.348C23.595 14.8273 23.9317 14.3404 24.3767 13.9217C24.5691 13.7405 24.8097 13.6048 25.0382 13.4576C25.1465 13.401 25.2787 13.3784 25.3629 13.4916ZM25.5072 14.2726C25.7357 13.1067 26.2648 12.1106 27.4314 11.5107C27.5517 11.4428 27.696 11.4088 27.8283 11.3522C28.0448 11.273 28.2492 11.2617 28.4656 11.3522C28.5859 11.3975 28.7303 11.4088 28.8506 11.4541C28.9587 11.4994 29.067 11.5107 29.1633 11.4428C29.3316 11.3409 29.4638 11.3862 29.6202 11.488C29.8487 11.6465 30.1012 11.7823 30.3298 11.9408C30.462 12.0314 30.5943 12.1332 30.7026 12.2578C30.859 12.4275 30.7989 12.5634 30.5823 12.6313C30.474 12.6652 30.3659 12.6652 30.2576 12.6992C30.2095 12.7105 30.1735 12.7445 30.0892 12.8011C30.1975 12.8237 30.2456 12.835 30.2938 12.835C30.3538 12.8464 30.4019 12.8464 30.438 12.8464C30.5222 12.9595 30.5703 13.0954 30.6664 13.152C30.7627 13.2086 30.919 13.1746 31.0393 13.1973C31.1115 13.2086 31.1837 13.2312 31.2438 13.2765C31.2918 13.3104 31.34 13.367 31.3641 13.4236C31.6406 14.0236 32.1337 14.4536 32.6389 14.8725C32.6749 14.8951 32.699 14.9291 32.735 14.963C32.7471 14.9743 32.7471 14.997 32.7471 15.031C32.711 15.1554 32.6147 15.1442 32.5186 15.1442C32.242 15.1216 31.9773 15.1442 31.7128 15.2461C31.6166 15.28 31.4964 15.2573 31.4001 15.2348C30.907 15.0876 30.4139 14.9405 29.9209 14.7933C29.7164 14.7367 29.512 14.6914 29.3196 14.6235C28.658 14.3858 28.4536 13.8764 28.7783 13.2765C28.8265 13.1746 28.8866 13.0727 28.9347 12.9709C28.9347 12.9709 28.9227 12.9595 28.8986 12.9143C28.5859 13.1293 28.3695 13.3897 28.3334 13.7632C28.2854 14.2386 28.4416 14.6687 28.6702 15.0762C28.8866 15.461 29.1633 15.8233 29.3316 16.2195C29.5961 16.8194 29.7885 17.4533 30.0051 18.0646C30.0652 18.223 30.1012 18.3815 30.1493 18.5399C30.3659 19.3097 30.2696 20.068 30.0772 20.8152C29.9811 21.2 29.8487 21.5735 29.6924 21.9358C29.5721 22.2414 29.512 22.2527 29.1633 22.162C28.8265 22.0715 28.4898 21.9923 28.1409 21.9131C27.8644 21.8564 27.5877 21.8226 27.2992 21.9471C27.4916 22.0942 27.7201 22.1508 27.9605 22.196C28.4176 22.2866 28.8866 22.3771 29.3196 22.5809C29.488 22.6602 29.5961 22.7733 29.6442 22.9432C29.7044 23.1694 29.7645 23.4072 29.8487 23.6336C29.9088 23.792 29.8487 23.8826 29.6924 23.9052C29.4037 23.9619 29.1151 24.0184 28.8145 24.0411C28.4898 24.0638 28.1529 24.0411 27.8283 24.0411C27.8163 24.0638 27.8043 24.0863 27.8043 24.109C27.8644 24.1543 27.9245 24.2109 27.9847 24.2335C28.5499 24.4259 29.1271 24.607 29.6924 24.7994C29.7645 24.8221 29.8247 24.8674 29.8728 24.924C30.0171 25.0825 30.1975 25.1617 30.426 25.1731C31.0874 25.1844 31.7489 25.1957 32.4103 25.0712C32.8673 24.992 33.3484 24.958 33.8295 25.0145C34.094 25.0485 34.2864 25.1617 34.4187 25.3655C34.5028 25.49 34.5871 25.6144 34.6473 25.739C34.6593 25.773 34.6473 25.8522 34.6231 25.8748C34.5991 25.8975 34.515 25.9088 34.4788 25.8862C34.3586 25.8295 34.2503 25.773 34.1302 25.7051C33.8896 25.5692 33.6611 25.5692 33.4085 25.6938C32.8553 25.9314 32.302 26.1578 31.7489 26.3842C31.1957 26.5993 30.6304 26.6672 30.0291 26.6218C29.2834 26.5653 28.5379 26.4861 27.8163 26.2597C27.239 26.0786 26.7219 25.807 26.3491 25.3428C25.8199 24.6976 25.3148 24.0524 24.7976 23.4072C24.485 23.0224 24.4008 22.5922 24.5331 22.1168C24.7255 21.3924 24.7616 20.6339 24.8698 19.8983C24.9781 19.1398 25.1103 18.3815 25.2186 17.6231C25.2667 17.2722 25.2787 16.9213 25.3148 16.5703C25.3389 15.7893 25.3629 15.0197 25.5072 14.2726ZM32.3382 23.5657C32.4464 23.2713 32.6389 23.0564 32.9635 22.9318C33.3124 22.8073 33.6371 22.6375 33.9737 22.4903C34.2023 22.3998 34.2023 22.3998 34.4908 22.4903C34.2984 22.7281 34.1302 22.9432 33.9376 23.1356C33.6851 23.3845 33.4325 23.6223 33.144 23.8374C33.0117 23.9392 32.7951 23.9732 32.6268 23.9844C32.3622 23.9958 32.254 23.8034 32.3382 23.5657ZM29.512 30.5949C29.7285 30.6968 29.8007 30.8553 29.8247 31.1043C29.7164 31.0477 29.6562 31.0364 29.5961 30.9911C29.4278 30.878 29.2594 30.8666 29.079 30.9685C28.9707 31.0364 28.9347 31.1156 29.0069 31.2288C29.1271 31.3985 29.2233 31.5911 29.3677 31.7495C29.6924 32.1457 30.0171 32.5418 30.1253 33.0399C30.1613 33.2323 30.1855 33.436 30.1975 33.6284C30.2095 33.9115 30.3298 34.1039 30.6063 34.2171C30.6424 34.2285 30.6786 34.2623 30.7507 34.319C30.6304 34.4661 30.5222 34.6246 30.4019 34.7604C30.2456 34.9303 30.0892 35.1113 29.9088 35.2698C29.5721 35.5754 29.1753 35.5867 28.7663 35.4283C28.3935 35.2811 28.0568 34.9416 28.1049 34.5114C28.1289 34.2397 28.1529 33.9794 28.1891 33.7078C28.2492 33.0739 28.3214 32.4286 28.3815 31.7948C28.3935 31.693 28.3815 31.5911 28.3695 31.4892C28.3094 31.0251 28.0568 30.7873 27.5637 30.81C27.1909 30.8213 26.8301 30.9119 26.4574 30.9911C26.2168 31.0364 25.9883 31.1269 25.7597 31.1609C25.6516 31.1836 25.5072 31.1609 25.411 31.1043C25.0382 30.9005 24.6894 30.6742 24.3165 30.4705C23.8957 30.2327 23.4508 30.0063 23.0178 29.7799C22.9937 29.7686 22.9577 29.7799 22.9335 29.7799C23.0058 30.0517 23.1261 30.3119 23.1381 30.5724C23.1381 30.8326 23.0298 31.0929 22.9697 31.376C22.9937 31.3986 23.0418 31.4439 23.0779 31.4892C23.1261 31.5571 23.2102 31.6703 23.1861 31.693C23.1139 31.7608 23.0178 31.8287 22.9215 31.84C22.681 31.8514 22.4284 31.8627 22.2 31.8287C21.5986 31.7382 21.0094 31.6136 20.42 31.5004C20.1435 31.4552 19.8669 31.4099 19.5662 31.3873C20.0473 31.8854 20.5764 32.3267 20.8891 32.9493C20.853 32.9833 20.829 33.0173 20.805 33.0173C20.3119 33.0173 19.8548 33.1984 19.3978 33.3228C19.2174 33.3682 19.0971 33.3455 19.001 33.1984C18.8687 32.9947 18.7364 32.7909 18.592 32.5985C18.3516 32.2475 18.4959 31.9419 18.7484 31.6703C18.8687 31.5458 18.989 31.4212 19.1333 31.3193C19.6144 31.0137 19.9271 30.5724 20.2757 30.1649C20.36 30.063 20.42 29.9498 20.5163 29.8704C20.5764 29.8139 20.6727 29.7574 20.7568 29.746C21.6106 29.6215 22.4526 29.497 23.3063 29.3837C24.5571 29.214 25.7357 28.7952 26.8902 28.3537C27.0466 28.2971 27.1307 28.3198 27.227 28.4443C27.4074 28.6593 27.5998 28.8857 27.8043 29.0895C27.9485 29.2253 27.9365 29.3499 27.8524 29.5083C27.696 29.7799 27.696 29.7799 27.9847 29.9158C28.4898 30.1195 28.9949 30.3573 29.512 30.5949ZM30.2816 30.0177C30.6063 30.4592 30.6786 30.9911 31.0033 31.4326C31.1235 31.3533 31.2317 31.308 31.328 31.2401C31.4482 31.1496 31.5565 31.1609 31.6526 31.2515C31.7489 31.3307 31.7248 31.4099 31.6526 31.5004C31.4482 31.7835 31.5805 32.0211 31.9653 32.0438C32.1337 32.0551 32.2299 32.123 32.29 32.2702C32.4103 32.5758 32.5426 32.8815 32.6629 33.2097C32.5907 33.2436 32.5186 33.2776 32.4223 33.3116C32.4344 33.4587 32.4584 33.5946 32.4704 33.7416C32.3502 33.8435 32.266 33.7643 32.1819 33.6964C31.8932 33.436 31.6045 33.1871 31.328 32.9155C31.1595 32.7456 31.0273 32.5532 30.859 32.3607C30.919 32.2929 30.9431 32.2589 30.9791 32.2135C31.1716 31.9646 31.1115 31.7948 30.8109 31.659C30.6304 31.5798 30.4982 31.4892 30.45 31.2855C30.3899 31.0477 30.2696 30.8213 30.1975 30.5836C30.1613 30.3911 30.0892 30.2101 30.2816 30.0177ZM31.0994 35.3491C30.7747 35.9829 30.2215 36.379 29.5481 36.6394C29.3797 36.7073 29.2233 36.7527 29.043 36.8092C28.9107 37.1827 28.7783 37.5676 28.646 37.9638C28.2974 37.8733 28.0087 37.7261 27.7803 37.4996C27.5877 37.3186 27.5877 37.0583 27.8043 36.8545C28.0448 36.6168 28.3094 36.3904 28.61 36.2206C29.2474 35.8923 29.9088 35.6094 30.5583 35.3038C30.7387 35.2245 30.9311 35.134 31.1115 35.0435C31.2197 35.1792 31.1475 35.2584 31.0994 35.3491ZM27.0947 32.2929C27.1789 32.0098 27.239 31.7155 27.3112 31.4212C27.5757 31.4099 27.7681 31.5571 27.7803 31.8174C27.7803 31.9533 27.7561 32.1117 27.708 32.2475C27.5757 32.5758 27.4314 32.8928 27.2752 33.2211C27.239 33.2889 27.1789 33.3341 27.0826 33.4248C26.9985 33.006 26.9865 32.655 27.0947 32.2929ZM27.2752 35.9377C27.0105 36.4584 26.5896 36.8432 26.1085 37.1827C26.0845 37.2054 26.0484 37.194 25.9521 37.2167C26.1687 36.7753 26.3491 36.379 26.5415 35.9942C26.5295 35.9829 26.5174 35.9715 26.5054 35.9603C26.325 36.0622 26.1447 36.1641 25.9643 36.2546C25.7718 36.3452 25.5673 36.413 25.3389 36.4584C25.6394 36.0395 25.8199 35.598 25.9041 35.1227C25.6154 35.2359 25.3629 35.3943 25.0863 35.4396C24.6534 35.5075 24.2204 35.5075 23.7754 35.5415C23.7634 35.5188 23.7513 35.4962 23.7393 35.4735C23.7994 35.4283 23.8476 35.3716 23.9197 35.3378C24.2324 35.2019 24.5451 35.0773 24.8578 34.9416C24.9179 34.9189 24.9661 34.8849 25.0863 34.8171C24.7856 34.783 24.5691 34.7604 24.3527 34.7378C24.1363 34.7152 23.9197 34.6925 23.6913 34.6133C23.9799 34.5001 24.2685 34.3982 24.5331 34.251C24.7976 34.1039 25.0262 33.9115 25.3269 33.7078C25.2066 33.6851 25.1465 33.6624 25.0983 33.6624C24.2204 33.7303 23.3545 33.6398 22.5127 33.3908C22.3924 33.3568 22.2841 33.2889 22.1759 33.2097C23.0178 33.1984 23.8476 33.1079 24.6172 32.7909C24.1843 32.8022 23.7513 32.7796 23.3305 32.6664C22.9215 32.5532 22.5247 32.44 22.1279 32.2815C22.1279 32.2589 22.1279 32.2362 22.1279 32.2135C22.2 32.2023 22.2841 32.1797 22.3563 32.1797C23.1019 32.2362 23.8236 32.1343 24.5451 31.9646C24.8939 31.8854 25.2546 31.806 25.5914 31.693C26.301 31.4666 26.6016 32.0665 26.5415 32.508C26.4814 32.9267 26.4332 33.3455 26.3731 33.7756C26.3371 34.0473 26.4452 34.2397 26.6858 34.3756C26.9745 34.5341 27.1549 34.7831 27.2752 35.066C27.4314 35.3491 27.4194 35.6434 27.2752 35.9377ZM23.7994 36.7186C23.7273 36.7073 23.6552 36.696 23.583 36.6846C23.1982 36.5714 22.8134 36.4922 22.4164 36.5149C21.8993 36.5376 21.3822 36.5716 20.8651 36.5489C20.4562 36.5262 20.0352 36.5489 19.6264 36.413C19.2535 36.2772 18.9528 36.0622 18.7364 35.7566C18.5079 35.4396 18.544 35.0887 18.6643 34.7378C18.7604 34.4548 18.7364 34.3529 18.4357 34.2964C18.1231 34.2285 17.8104 34.1718 17.4857 34.1718C16.9084 34.1491 16.3432 34.1266 15.778 34.285C15.2607 34.4322 14.7918 34.6585 14.4791 35.1C13.998 35.7678 13.974 36.4922 14.2627 37.2394C14.2867 37.2959 14.2987 37.3639 14.3228 37.4318C14.2987 37.4431 14.2867 37.4658 14.2627 37.4771C14.1784 37.4091 14.0823 37.3412 14.0221 37.262C13.5771 36.73 13.529 36.1187 13.6613 35.4848C13.7334 35.1905 13.8777 34.8963 14.0341 34.6246C14.3468 34.0926 14.912 33.8549 15.4893 33.6511C16.1267 33.4247 16.7882 33.3455 17.4615 33.4814C17.7864 33.5492 18.0991 33.6172 18.4237 33.6624C18.9649 33.7303 19.5061 33.7191 20.0352 33.5832C20.0833 33.5719 20.1435 33.5606 20.1916 33.5379C20.5524 33.4135 20.805 33.5266 21.0575 33.7983C21.3341 34.1039 21.6829 34.3529 21.9956 34.6246C22.0557 34.6812 22.1157 34.7378 22.1759 34.7831C22.1639 34.8057 22.1519 34.8284 22.1279 34.8509C22.0076 34.8397 21.8993 34.8284 21.743 34.8171C21.779 34.8963 21.791 34.9528 21.8272 34.9981C22.1759 35.5075 22.6931 35.8131 23.2583 36.0734C23.3545 36.1187 23.4628 36.1641 23.5589 36.2093C23.8476 36.3338 23.8596 36.3565 23.7994 36.7186ZM21.2859 38.7448C21.0094 38.9259 20.2637 38.8353 19.7466 38.575C19.2295 38.3146 18.7844 37.7601 18.7844 37.3412C19.1934 37.3639 19.5662 37.4431 19.9029 37.6582C20.2637 37.8958 20.6004 38.1676 20.9373 38.4278C21.0454 38.5297 21.1657 38.6429 21.2859 38.7448ZM15.9944 36.5828C15.7298 36.7073 15.2487 36.5714 15.1406 36.3225C15.1165 36.2546 15.1285 36.1527 15.1766 36.0961C15.2729 35.9715 15.381 35.8471 15.5133 35.7566C15.7538 35.598 16.0184 35.4622 16.3311 35.4056C16.6198 35.8471 16.4153 36.3678 15.9944 36.5828ZM17.4014 30.7308C17.2571 30.9119 17.0647 31.0591 16.9084 31.2288C16.4995 31.6816 16.5716 32.1117 17.1009 32.4286C17.3293 32.5645 17.5338 32.7117 17.63 32.9607C17.6541 33.0285 17.654 33.0965 17.6661 33.1757C17.2691 33.1644 16.9204 33.1531 16.5716 33.1417C15.814 33.1192 15.1165 33.3003 14.4671 33.6738C14.3949 33.7191 14.2747 33.753 14.1904 33.7416C13.6373 33.6738 13.084 33.5492 12.5789 33.3003C12.3985 33.2097 12.2061 33.1304 12.0257 33.0512C12.0618 32.7342 12.3504 32.2249 12.5909 32.0325C13.0239 31.693 13.4929 31.4552 14.0702 31.376C14.4069 31.3307 14.7316 31.2175 15.0443 31.1156C15.8621 30.8553 16.6438 30.527 17.3894 30.1195C17.4255 30.0969 17.4737 30.0855 17.5097 30.0855C17.5338 30.0855 17.5458 30.0855 17.606 30.0969C17.7262 30.3573 17.5458 30.5497 17.4014 30.7308ZM18.3275 30.1082C18.592 29.7912 18.7724 29.7574 19.1333 29.9837C19.1814 30.0063 19.2174 30.0403 19.2655 30.0742C19.2775 30.0855 19.2897 30.1082 19.3017 30.1649C18.8807 30.6742 18.1952 30.878 17.6901 31.3307C17.5458 31.0817 17.5578 30.9799 17.7141 30.7986C17.9306 30.561 18.1351 30.3346 18.3275 30.1082ZM20.2156 20.3737C19.8188 20.5661 19.4098 20.7698 19.001 20.9509C18.7966 21.0414 18.568 21.1094 18.3395 21.1546C18.0268 21.2226 17.7742 21.0981 17.5698 20.8944C17.4375 20.7698 17.4375 20.6566 17.5818 20.5434C17.9066 20.3058 18.2915 20.1246 18.7123 20.2378C19.1093 20.351 19.446 20.2831 19.7826 20.0907C19.8428 20.0567 19.8909 20.0227 19.9511 19.9888C20.2877 19.7737 20.3359 19.7851 20.5403 20.1926C20.42 20.2604 20.3239 20.3283 20.2156 20.3737ZM22.2841 22.7167C21.4784 22.4903 20.6366 22.3319 19.8789 21.9471C19.7466 21.8791 19.5662 21.8226 19.5662 21.664C19.5782 21.4829 19.7826 21.4603 19.9149 21.4377C20.2637 21.4037 20.6126 21.4037 20.9733 21.4037C21.0454 21.4037 21.1177 21.4489 21.1778 21.4829C21.6588 21.7999 22.0436 22.2074 22.4284 22.6714C22.3443 22.6941 22.3083 22.7167 22.2841 22.7167ZM20.7688 26.5199C20.2036 26.6106 19.6504 26.7237 19.0851 26.8482C18.4597 26.9841 18.3636 26.9162 18.2793 26.3275C18.2553 26.1351 18.2313 25.9314 18.2072 25.739C18.1952 25.739 18.1832 25.739 18.1712 25.7276C18.2793 25.0372 18.3876 24.3354 18.5079 23.6449C18.544 23.4299 18.592 23.2148 18.6643 23.011C18.7244 22.8073 18.7724 22.7846 19.001 22.8073C19.7948 22.9092 20.5884 22.9997 21.3942 23.1129C21.4664 23.1242 21.5385 23.1582 21.6106 23.1808C21.743 23.2261 21.791 23.3053 21.779 23.4412C21.6708 24.3467 21.4784 25.2409 21.2378 26.1238C21.1657 26.3615 21.0334 26.4747 20.7688 26.5199ZM23.4146 26.1918C23.619 25.5465 23.8356 24.9013 24.064 24.2109C24.1603 24.2789 24.2204 24.3127 24.2685 24.3694C24.497 24.607 24.7255 24.8448 24.9541 25.0825C25.1585 25.2976 25.0983 25.7843 24.8458 25.9427C24.6414 26.0672 23.7273 26.237 23.4146 26.1918ZM22.3083 27.0973C22.6088 27.4481 22.9095 27.7878 23.1982 28.1387C23.3185 28.2858 23.4386 28.433 23.5349 28.6028C23.571 28.6706 23.595 28.8065 23.5589 28.8518C23.4988 28.9197 23.3665 28.9762 23.2823 28.9649C22.8012 28.8744 22.3443 28.716 22.0917 28.2745C21.9956 28.0934 21.8873 27.9915 21.6588 28.0481C21.6106 28.0594 21.5265 28.0369 21.4784 28.0028C21.3341 27.8896 21.1898 27.7764 21.0575 27.6519C20.9613 27.5727 20.9373 27.4821 21.0094 27.3803C21.1055 27.2331 21.2138 27.086 21.2859 26.9274C21.4544 26.5539 21.6468 26.1918 21.755 25.807C21.9475 25.1504 22.0797 24.4826 22.2481 23.7807C22.5728 23.7015 22.9335 23.5996 23.3665 23.4977C23.3545 23.6449 23.3545 23.7582 23.3305 23.86C23.0899 24.5618 22.8254 25.2523 22.5728 25.9427C22.4766 26.2031 22.3804 26.4747 22.2721 26.735C22.2 26.8596 22.212 26.9841 22.3083 27.0973ZM13.2644 34.5793C12.7353 34.4548 12.2422 34.2623 11.7852 34.0021C11.6048 33.9002 11.6048 33.8435 11.7732 33.5606C12.4226 33.7643 13.084 33.9794 13.7454 34.1945C13.7214 34.4774 13.529 34.636 13.2644 34.5793ZM11.1237 32.4853C10.8231 32.3721 10.6307 32.2023 10.5224 31.9533C10.4863 31.874 10.5465 31.7608 10.5946 31.6703C10.7509 31.342 10.9433 31.0137 11.0756 30.6854C11.4244 29.8366 11.5086 28.9424 11.3883 28.0481C11.3282 27.5387 11.0395 27.086 10.6667 26.7125C10.5705 26.6106 10.5224 26.5199 10.5585 26.3842C10.7509 25.7843 10.9313 25.1731 11.1358 24.5618C11.3883 23.7807 11.9535 23.3053 12.7834 23.0789C13.1442 22.977 13.517 22.9092 13.8898 22.9658C13.95 22.977 14.0101 22.9997 14.1063 23.0337C14.0581 23.1242 14.0341 23.1921 13.974 23.2601C13.4689 23.9166 13.2283 24.6637 13.1081 25.456C12.9998 26.1351 12.9878 26.8144 12.9998 27.5048C13.0119 27.7764 13.0119 28.0481 13.06 28.3085C13.1081 28.6593 13.06 28.9876 13.0239 29.3272C12.9758 29.7234 12.7593 30.029 12.4346 30.2667C12.2422 30.4025 12.0377 30.5384 11.8333 30.6629C11.6168 30.7873 11.4845 30.9685 11.4244 31.2061C11.3402 31.6023 11.232 32.0211 11.1237 32.4853ZM11.5928 36.8659C11.4845 36.8997 11.4003 36.9224 11.3162 36.9564C11.232 37.1148 11.3763 37.194 11.4244 37.3072C11.4484 37.3639 11.4364 37.4431 11.4484 37.511C11.3763 37.4996 11.2801 37.511 11.2199 37.4771C10.9554 37.3186 10.8952 37.1715 11.0155 36.8997C11.0877 36.73 11.1117 36.5828 11.0516 36.3904C10.9433 36.0961 10.9674 35.8923 11.0516 35.7112C11.2079 35.8018 11.5447 36.4922 11.5928 36.8659ZM10.799 33.2436C10.5585 32.9041 10.3059 32.621 10.1616 32.2702C10.1857 32.2475 10.2097 32.2362 10.2338 32.2135C10.3059 32.2815 10.3901 32.3381 10.4623 32.4061C10.5825 32.5192 10.6908 32.655 10.8231 32.7682C10.9914 32.9493 10.9914 32.9493 10.799 33.2436ZM12.9036 8.83934C12.4707 8.26206 12.0498 7.68478 11.6168 7.1075C11.5446 7.00562 11.3883 6.85847 11.5326 6.75659C11.713 6.6434 11.7491 6.85847 11.8213 6.96034C12.2422 7.49235 12.6511 8.03567 13.06 8.56768C13.1321 8.65823 13.1802 8.77143 13.2524 8.88462C13.06 8.98649 12.9758 8.94121 12.9036 8.83934ZM7.21518 25.5239C7.41962 25.6824 7.64813 25.807 7.87663 25.9314C8.09311 26.0446 8.10512 26.0672 7.99689 26.271C7.97283 26.3162 7.93676 26.3615 7.91271 26.4069C7.23924 27.6067 7.07086 28.8405 7.56394 30.1309C7.64813 30.3686 7.76839 30.5949 7.90068 30.8892C8.02094 30.3459 8.11715 29.8818 8.2254 29.4177C8.3697 28.7838 8.67036 28.2518 9.25965 27.8783C9.45208 27.7538 9.62044 27.6067 9.80084 27.4708C9.83692 27.4368 9.89704 27.4256 9.95718 27.4029C10.1376 27.6406 10.2939 27.8896 10.3059 28.1726C10.342 28.7612 10.2699 29.3272 9.95718 29.8592C9.7407 30.2327 9.53626 30.6062 9.35586 31.0024C8.98305 31.8174 9.09128 32.5872 9.64449 33.2889C9.83692 33.5379 10.0654 33.753 10.2939 34.0134C10.2097 34.1153 10.1135 34.2171 10.0173 34.3304C9.84895 34.5341 9.84895 34.7152 10.0053 34.9303C10.0774 35.0208 10.1736 35.1 10.2458 35.1905C10.3661 35.3378 10.5224 35.4848 10.5825 35.6547C10.7389 36.1074 10.8832 36.5602 10.7389 37.0583C10.7028 37.2394 10.7148 37.4431 10.9433 37.5676C11.3522 37.7827 11.7972 37.8393 12.2542 37.7939C12.4587 37.7714 12.4827 37.7147 12.4587 37.511C12.4226 37.2507 12.3384 37.0129 12.158 36.7979C11.9415 36.5376 11.725 36.2772 11.5086 36.0055C11.1718 35.564 11.1358 34.9416 11.4244 34.5341C12.0498 34.8284 12.7232 35.0095 13.4207 35.1C13.4207 35.1905 13.4327 35.2359 13.4207 35.2924C13.3726 35.6999 13.3486 36.0961 13.3967 36.5036C13.4569 37.0808 13.95 37.6921 14.5272 37.8619C15.1766 38.043 15.802 37.9525 16.3912 37.6809C16.9926 37.3978 17.3774 36.8432 17.2571 36.0509C17.2211 35.8245 17.1489 35.598 17.0889 35.3378C17.2211 35.1565 17.4615 35.2019 17.6781 35.1905C17.8945 35.1792 18.0629 35.2584 18.1471 35.4622C18.2433 35.6886 18.3395 35.9263 18.4477 36.1527C18.5079 36.2772 18.4839 36.3565 18.4237 36.4697C18.2433 36.7865 18.0749 37.1148 17.8945 37.4431C17.7864 37.6355 17.8465 37.7827 18.0028 37.9185C18.1111 38.009 18.2313 38.077 18.3395 38.1676C18.5199 38.326 18.5079 38.4732 18.2673 38.5184C18.0629 38.5637 17.8224 38.5637 17.618 38.5184C17.2331 38.4392 16.9806 38.5524 16.8122 38.8807C16.764 38.9825 16.7039 39.0731 16.5596 39.0957C16.2109 39.1523 16.0425 39.39 15.9222 39.673C15.8982 39.7183 15.9222 39.7749 15.9222 39.8654C16.0665 39.8089 16.1748 39.7522 16.2831 39.7183C16.9926 39.4466 17.7141 39.4919 18.4357 39.639C19.1814 39.7862 19.8789 40.0918 20.5283 40.4766C20.5644 40.4993 20.6126 40.4993 20.6606 40.5106C20.7327 40.1824 20.6727 39.9221 20.3479 39.7635C20.2637 39.7183 20.1796 39.6617 20.0833 39.639C19.6264 39.5032 19.1814 39.3787 18.7244 39.2428C18.6042 39.209 18.4597 39.1976 18.4357 39.0052C18.7123 38.9372 18.989 38.9259 19.2535 38.9825C19.9391 39.1183 20.6246 39.2882 21.3101 39.4466C21.5145 39.4919 21.7189 39.5711 21.9475 39.639C21.9715 39.5711 22.0076 39.5032 22.0076 39.4579C21.9715 39.175 21.9233 38.892 21.755 38.6316C21.6228 38.4392 21.5145 38.2354 21.3942 38.043C21.2379 37.8053 21.2138 37.5563 21.3341 37.2734C21.9113 37.2507 22.4526 37.4544 22.9937 37.5902C23.5589 37.7261 24.1001 37.9185 24.7015 38.0883C24.7255 37.8506 24.7375 37.6355 24.7616 37.4318C24.8578 37.3978 24.9419 37.3639 25.0142 37.3412C25.3269 37.2394 25.3148 37.2394 25.5433 37.4771C26.1567 38.1335 26.9383 38.5524 27.8283 38.7901C28.0087 38.8353 28.2011 38.8693 28.4416 38.8015C28.2974 38.6996 28.1891 38.6316 28.1049 38.541C28.0087 38.4505 27.8764 38.3713 27.8884 38.2241C27.9245 38.2128 27.9485 38.1902 27.9605 38.1902C28.2974 38.2808 28.634 38.3826 28.9707 38.4845C29.2354 38.5524 29.3196 38.5184 29.4278 38.2808C29.536 38.043 29.5841 37.7827 29.5601 37.5223C29.5481 37.4431 29.5601 37.3752 29.5601 37.2734C29.8127 37.2959 29.9689 37.4204 30.1373 37.511C30.5943 37.7601 30.5943 37.7601 30.9913 37.4204C31.0273 37.3864 31.0754 37.3526 31.1115 37.3072C31.8331 36.5489 32.302 35.6659 32.5066 34.6698C32.5426 34.5228 32.6027 34.3869 32.6389 34.251C32.8794 34.2171 33.1078 34.3529 33.2882 34.1945C33.2642 34.0021 32.9755 33.9794 33.0477 33.753C33.3724 33.7078 33.7092 33.7756 34.0339 33.5946C33.9737 33.5492 33.9376 33.5154 33.8896 33.4927C33.4446 33.2549 33.0838 32.9493 32.8313 32.5305C32.5546 32.0665 32.302 31.6023 32.0255 31.1383C31.8091 30.7761 31.6768 30.7421 31.328 30.9685C31.316 30.9799 31.2918 30.9685 31.2077 30.9685C31.0634 30.7308 30.883 30.4592 30.7266 30.1987C30.6184 30.0177 30.5583 29.8252 30.5463 29.6102C30.5463 29.4517 30.462 29.2932 30.3659 29.1575C30.2576 28.9989 30.1493 28.9989 29.9689 29.1008C29.9088 29.1348 29.8367 29.1687 29.7525 29.2253C29.7164 28.9989 29.6924 28.7952 29.6562 28.5688C29.5 28.5688 29.3797 28.5574 29.2474 28.5688C29.091 28.5801 28.9949 28.5236 28.9107 28.4103C28.7783 28.2179 28.646 28.0255 28.5379 27.8218C28.4416 27.6632 28.4898 27.5727 28.6942 27.55C28.7423 27.55 28.7783 27.55 28.8265 27.55C29.9931 27.5387 31.0994 27.3011 32.1338 26.7804C32.5787 26.5539 33.0357 26.4069 33.5168 26.2823C33.7092 26.237 33.9136 26.2143 34.07 26.3842C34.4067 26.7237 34.7434 27.052 35.0681 27.3916C35.2245 27.5614 35.3086 27.7538 35.2606 27.9915C35.2245 28.1839 35.3086 28.3198 35.4409 28.4669C35.5973 28.6254 35.7176 28.8178 35.8379 28.9989C35.9941 29.2253 36.0061 29.4631 35.922 29.712C35.8619 29.8704 35.8137 30.029 35.7416 30.1761C35.6333 30.4025 35.6935 30.5949 35.8859 30.7308C36.1626 30.9232 36.4511 31.0929 36.7518 31.2515C36.9683 31.3647 37.1006 31.2855 37.1366 31.0477C37.1848 30.6402 37.1608 30.2327 36.9202 29.8704C36.6195 29.4064 36.4632 28.9084 36.4632 28.365C36.4632 27.8443 36.2227 27.4368 35.8499 27.0633C35.5612 26.7804 35.3206 26.4521 35.0922 26.1238C34.9358 25.9088 34.8397 25.6598 34.7074 25.4333C34.4908 25.0712 34.2263 24.7882 33.7212 24.8334C33.4926 24.8561 33.2642 24.8561 33.0237 24.8561C32.9635 24.8561 32.9034 24.8221 32.8433 24.7994C32.8433 24.7769 32.8313 24.7542 32.8313 24.7316C33.2642 24.6183 33.5168 24.3014 33.8053 24.0071C34.1422 23.6563 34.4788 23.3167 34.8277 22.9884C35.0079 22.8186 35.0561 22.8186 35.2365 22.977C35.2966 23.0224 35.3448 23.0789 35.3929 23.1356C35.6575 23.4072 35.91 23.6788 36.1866 23.9279C36.355 24.0863 36.4511 24.2449 36.4271 24.4826C36.4031 24.7202 36.5112 24.8788 36.7638 24.958C36.8481 24.9806 36.9442 25.0485 36.9923 25.1277C37.2689 25.5239 37.2329 25.739 36.8962 26.1012C36.8721 26.1351 36.8361 26.1691 36.7999 26.1918C36.5955 26.3842 36.5955 26.5993 36.7037 26.8256C36.8601 27.1425 37.1126 27.3689 37.4613 27.4821C37.75 27.5727 37.8943 27.5275 37.9304 27.2444C37.9665 27.0068 37.9544 26.769 37.9064 26.5313C37.7861 25.988 37.6417 25.456 37.726 24.9013C37.774 24.5731 37.6177 24.3241 37.3892 24.0976C37.0285 23.7468 36.6797 23.3845 36.343 23.011C36.0061 22.6375 35.6815 22.2527 35.5612 21.7659C35.5372 21.6867 35.501 21.6075 35.465 21.5396C35.3086 21.2792 35.0681 21.2 34.8035 21.3584C34.5991 21.4829 34.4307 21.6415 34.2744 21.8226C34.0099 22.1168 33.6972 22.3433 33.3364 22.5017C33.1198 22.6035 32.9875 22.5583 32.8914 22.3433C32.8313 22.23 32.7951 22.1055 32.7831 21.9923C32.6749 21.4037 32.4344 20.8604 32.0616 20.3737C31.8932 20.1699 31.7128 19.9775 31.5444 19.7624C31.2558 19.4003 30.907 19.0833 30.7387 18.6305C30.4139 17.7589 30.0652 16.8986 29.7405 16.0271C29.6684 15.8573 29.6202 15.6761 29.5481 15.461C29.7765 15.4837 29.9689 15.4837 30.1493 15.5177C30.5583 15.5743 30.9551 15.6423 31.2918 15.8912C31.4602 16.0158 31.6045 16.1628 31.7849 16.2647C31.9172 16.344 32.0736 16.4119 32.2299 16.4459C32.302 16.4685 32.4223 16.4119 32.4824 16.3554C32.5066 16.3327 32.4464 16.2195 32.4223 16.1403C32.4103 16.1063 32.3983 16.0723 32.3863 16.0384C32.5066 16.061 32.5907 16.1063 32.6629 16.1516C32.8553 16.276 32.9997 16.2874 33.156 16.1176C33.2281 16.0271 33.2642 15.9025 33.2762 15.778C33.2882 15.5856 33.2642 15.3818 33.2522 15.1894C33.2401 14.9857 33.156 14.8386 32.9515 14.7479C32.8193 14.6801 32.699 14.5782 32.6147 14.4763C32.1939 13.9329 31.7849 13.367 31.3761 12.8124C31.304 12.7105 31.2438 12.5973 31.2077 12.4841C31.1355 12.2464 31.0634 12.0314 30.871 11.8503C30.8469 11.8276 30.859 11.7823 30.8469 11.7257C30.9671 11.7031 31.0634 11.6918 31.2077 11.6692C31.0874 11.4428 31.0153 11.2164 30.871 11.0353C30.7747 10.8994 30.6063 10.7636 30.45 10.7183C30.2456 10.6617 30.0051 10.6391 29.8007 10.6844C29.3797 10.7749 29.079 10.6504 28.7905 10.3901C28.622 10.2429 28.4176 10.1297 28.2372 10.0052C28.1891 9.98259 28.1289 9.9939 28.0448 9.98259C28.0568 10.1071 28.0688 10.209 28.0929 10.3448C27.5877 10.2316 27.227 10.1863 26.8422 10.1411C26.8181 10.4127 27.1187 10.5033 27.1789 10.741C27.0706 10.7636 26.9865 10.7862 26.8902 10.7862C26.4212 10.8089 25.9401 10.7862 25.4712 10.9221C25.423 10.9447 25.3148 10.8994 25.2546 10.8542C25.0262 10.6957 24.7856 10.6617 24.5091 10.7297C24.1001 10.8202 23.7153 10.99 23.3665 11.2051C23.2823 11.2277 23.2102 11.2503 23.0779 11.3183C23.0779 11.1032 23.0298 10.9221 23.0899 10.7749C23.3305 10.0958 23.2943 9.42794 23.0659 8.76011C22.9697 8.47713 22.8374 8.20547 22.7171 7.89985C22.7411 7.8772 22.7652 7.83192 22.8012 7.79797C23.0899 7.57158 23.2102 7.25464 23.2342 6.91507C23.2462 6.74527 23.1741 6.55285 23.0779 6.39438C22.9937 6.25855 22.8134 6.36042 22.681 6.33779C22.5367 6.32647 22.3683 6.30383 22.2481 6.2246C21.8632 5.99821 21.4784 6.00953 21.0815 6.19064C20.5884 6.42834 20.0833 6.62077 19.5301 6.7C19.1213 6.75659 18.7244 6.77924 18.3275 6.6434C18.2192 6.60945 18.1111 6.58681 17.9666 6.55285C18.0991 7.03957 18.4357 7.31125 18.8086 7.56026C18.6883 7.76401 18.4719 7.56026 18.3516 7.68478C18.3516 7.71874 18.3516 7.74137 18.3636 7.75269C18.7123 8.02435 19.0971 8.19415 19.5662 8.17151C19.6745 8.16018 19.7826 8.17151 19.8909 8.19415C20.1675 8.27338 20.4322 8.29602 20.6847 8.17151C20.7688 8.12622 20.8651 8.09227 20.9493 8.16018C20.9493 8.19415 20.9613 8.19415 20.9493 8.20547C20.9373 8.2281 20.9253 8.26206 20.9011 8.2847C20.4322 8.63559 20.2877 9.09969 20.2877 9.63169C20.2877 9.91467 20.2517 10.1863 20.1195 10.4467C20.0593 10.5485 20.0593 10.6617 20.0232 10.7749C19.9992 10.8542 19.9751 10.9221 19.9391 11.0013C19.6985 10.9447 19.4941 10.8768 19.2775 10.8429C19.1333 10.8202 18.9649 10.8089 18.8326 10.8655C18.6402 10.9334 18.5079 10.9108 18.3395 10.8089C17.9908 10.5938 17.618 10.5599 17.2451 10.7749C17.0046 10.9108 16.7882 11.0579 16.5596 11.2051C16.3912 11.3183 16.2229 11.4428 16.0425 11.5446C15.9222 11.6126 15.778 11.6239 15.7058 11.4767C15.5614 11.1711 15.4171 10.8542 15.2729 10.5372C15.1406 10.2769 15.0443 9.98259 14.6354 10.0052C14.4671 10.0165 14.4069 9.90334 14.4069 9.7562C14.4069 9.67697 14.4309 9.55245 14.3828 9.51849C14.1784 9.36003 14.1183 9.14496 14.0581 8.91857C14.0341 8.80539 13.962 8.72614 13.8417 8.78275C13.8297 8.91857 13.8297 9.03176 13.8297 9.07705C13.9018 9.26947 13.962 9.4053 14.0221 9.5751C14.0101 9.5751 14.0461 9.58642 14.0943 9.59772C14.2385 9.64301 14.2627 9.7562 14.1664 9.83543C14.0461 9.94863 13.9018 10.0618 13.7454 10.1297C13.6853 10.1637 13.529 10.1297 13.4809 10.0731C13.3005 9.88072 13.0119 9.72224 13.2043 9.39399C13.1321 9.07705 13.2885 8.90726 13.5891 8.82802C13.6012 8.82802 13.6132 8.79407 13.6132 8.78275C13.517 8.65823 13.4087 8.54504 13.3125 8.42052C12.9036 7.89985 12.5188 7.37916 12.1099 6.85847C12.0137 6.74527 11.9054 6.65472 11.7852 6.58681C11.6409 6.49626 11.4605 6.53022 11.3643 6.6434C11.244 6.75659 11.268 6.89243 11.3402 7.01695C11.3883 7.1075 11.4605 7.19805 11.5206 7.27728C11.9776 7.88853 12.4346 8.49977 12.8916 9.111C12.9638 9.21287 13.0479 9.30342 12.9638 9.41662C12.8555 9.58642 12.9277 9.72224 13.0359 9.84675C13.1442 9.98259 13.2644 10.0958 13.3606 10.2316C13.4569 10.3674 13.5771 10.5146 13.6011 10.6617C13.6613 10.99 13.8297 11.2617 13.998 11.5446C14.0943 11.6918 14.1904 11.8503 14.2747 11.9974C14.4309 12.2804 14.3949 12.5181 14.1424 12.7332C13.998 12.8577 13.8297 12.9709 13.7094 13.118C13.529 13.3218 13.3726 13.5481 13.2404 13.7859C13.1562 13.9329 13.1201 14.1255 13.2885 14.2952C13.4929 14.2499 13.7094 14.216 13.9138 14.148C14.2505 14.0348 14.5272 14.2612 14.4671 14.6235C14.4309 14.8386 14.3107 15.0084 14.0702 15.0876C13.962 15.1216 13.8417 15.1442 13.7214 15.1894C13.3125 15.3253 12.9036 15.461 12.5188 15.6196C11.9054 15.8799 11.8694 16.5478 12.1821 16.9326C12.4466 17.2609 12.3985 17.4307 12.0498 17.7023C11.8934 17.8155 11.725 17.9174 11.5687 18.0306C11.3763 18.1551 11.256 18.3248 11.2921 18.5626C11.3162 18.7097 11.244 18.8003 11.1358 18.8796C10.9313 19.0606 10.787 19.2757 10.7028 19.536C10.6547 19.6605 10.6547 19.7851 10.7629 19.8756C10.8712 19.9775 10.9674 19.8983 11.0636 19.8643C11.3041 19.7737 11.5326 19.6605 11.7732 19.6152C12.3624 19.5021 12.9638 19.4116 13.5771 19.4341C14.0822 19.4568 14.5754 19.5247 14.9842 19.8077C15.3089 20.0227 15.5976 20.2831 15.8982 20.5209C16.0184 20.6227 16.1508 20.7358 16.2951 20.7925C16.4635 20.8604 16.6799 20.8377 16.8122 20.9284C16.9564 21.0302 17.0166 21.2113 17.1249 21.3584C17.1369 21.3697 17.1369 21.3697 17.1489 21.3811C17.2933 21.4943 17.2691 21.6415 17.2331 21.7886C17.197 21.9358 17.0527 21.9131 16.9324 21.9244C16.2831 22.0036 15.6457 22.0828 15.0203 22.2866C14.9 22.3206 14.8158 22.3093 14.7196 22.2414C14.5512 22.1168 14.3949 21.9923 14.2145 21.8904C13.529 21.4489 12.8074 21.1208 11.9656 21.0641C11.3522 21.0189 10.8111 21.2113 10.354 21.5961C9.80084 22.0602 9.42803 22.6489 9.10331 23.2713C8.94697 23.5769 8.83873 23.8826 8.76658 24.2109C8.69442 24.5505 8.59821 24.8788 8.502 25.2069C8.44186 25.3881 8.35769 25.4333 8.21337 25.3428C7.84054 25.1164 7.44368 24.924 7.19113 24.5618C6.86641 24.0976 6.86641 23.86 7.3595 23.3959C7.43165 23.328 7.5399 23.3053 7.64813 23.2601C7.73231 23.4525 7.6361 23.6449 7.8165 23.792C7.94879 23.9052 8.045 24.0638 8.16526 24.1995C8.5501 23.86 8.46592 23.2148 8.03297 23.011C7.94879 22.977 7.84054 22.9432 7.74434 22.9545C7.20315 22.9997 6.81831 23.1808 6.64994 23.7468C6.45752 24.4146 6.5898 25.0598 7.21518 25.5239Z" fill="#A58069"/>
<path d="M22.3462 10.8886C22.1658 10.7182 21.9613 10.7523 21.7207 10.7977C21.8891 11.15 22.0817 11.1727 22.3462 10.8886Z" fill="#A58069"/>
<path d="M57.5452 1.70899H59.1206V5.93106H56.3425C57.1122 5.0708 57.509 3.75777 57.5452 1.70899ZM55.633 7.16487H60.0707V8.60241H61.5258V5.93106H60.5758V0.463867H56.1501V1.57315C56.1501 4.02943 55.645 5.21795 54.731 5.93106H54.1777V8.60241H55.633V7.16487Z" fill="#A58069"/>
<path d="M63.0898 0.463867V7.16487H68.0086V5.93106H64.545V4.23317H66.9984V3.06729H64.545V1.70898H67.8763V0.463867H63.0898Z" fill="#A58069"/>
<path d="M69.7402 0.463867V7.16487H71.1954V1.70898H74.0937V7.16487H75.5489V0.463867H69.7402Z" fill="#A58069"/>
<path d="M80.3962 2.89995L81.3463 5.1638H79.4461L80.3962 2.89995ZM80.1556 0.341797L76.9688 7.16731H78.5322L78.929 6.29573H81.8394L82.2362 7.16731H83.7996L80.6487 0.341797H80.1556Z" fill="#A58069"/>
<path d="M86.6996 1.67502H87.9142C88.5877 1.67502 88.9965 2.0712 88.9965 2.62585C88.9965 3.20313 88.5997 3.5993 87.9142 3.5993H86.6996V1.67502ZM86.6996 4.79914H87.9142C89.4175 4.79914 90.4758 3.91624 90.4758 2.62585C90.4758 1.31281 89.4055 0.463867 87.9142 0.463867H85.2324V7.16487H86.6876V4.79914H86.6996Z" fill="#A58069"/>
<path d="M91.6035 0.463867V1.70898H93.8765V7.16487H95.3318V1.70898H97.6167V0.463867H91.6035Z" fill="#A58069"/>
<path d="M100.984 2.89995L101.934 5.1638H100.034L100.984 2.89995ZM100.744 0.341797L97.5566 7.16731H99.1201L99.5169 6.29573H102.427L102.824 7.16731H104.388L101.237 0.341797H100.744Z" fill="#A58069"/>
<path d="M112.326 0.341797L109.32 3.97528L106.313 0.341797H105.832V7.16731H107.287V3.59042L109.079 5.70713H109.56L111.352 3.59042V7.16731H112.807V0.341797H112.326Z" fill="#A58069"/>
<path d="M114.912 0.463867V7.16487H119.831V5.93106H116.367V4.23317H118.809V3.06729H116.367V1.70898H119.699V0.463867H114.912Z" fill="#A58069"/>
<path d="M126.155 0.463867V3.03334H123.016V0.463867H121.561V7.16487H123.016V4.27845H126.155V7.16487H127.622V0.463867H126.155Z" fill="#A58069"/>
<path d="M129.043 0.463867V1.70898H131.316V7.16487H132.771V1.70898H135.056V0.463867H129.043Z" fill="#A58069"/>
<path d="M60.5884 19.3553V12.6543H54.7676V19.3553H56.2229V13.8881H59.1332V19.3553H60.5884Z" fill="#A58069"/>
<path d="M64.1368 13.8654H65.3516C66.0369 13.8654 66.4339 14.2617 66.4339 14.8163C66.4339 15.3935 66.0369 15.7897 65.3516 15.7897H64.1368V13.8654ZM64.1368 16.9896H65.3516C66.8547 16.9896 67.9251 16.1066 67.9251 14.8163C67.9251 13.5032 66.8547 12.6543 65.3516 12.6543H62.6816V19.3553H64.1368V16.9896Z" fill="#A58069"/>
<path d="M74.3601 18.1102H70.9086V16.4236H73.3499V15.2464H70.9086V13.8881H74.2399V12.6543H69.4414V19.3553H74.3601V18.1102Z" fill="#A58069"/>
<path d="M79.0021 13.8897H80.5775V18.1117H77.7994C78.5692 17.2515 78.9781 15.9385 79.0021 13.8897ZM77.0899 19.3568H81.5277V20.7831H82.9829V18.1117H82.0328V12.6445H77.607V13.7538C77.607 16.2101 77.1019 17.3986 76.188 18.1117H75.6348V20.7831H77.0899V19.3568Z" fill="#A58069"/>
<path d="M86.0001 13.8881H88.9104V19.3553H90.3657V12.6543H84.5449V19.3553H86.0001V13.8881Z" fill="#A58069"/>
<path d="M95.1408 15.7897H93.9262V13.8654H95.1408C95.8143 13.8654 96.2233 14.2617 96.2233 14.8163C96.2233 15.3935 95.8143 15.7897 95.1408 15.7897ZM95.1408 12.6543H92.459V19.3553H93.9142V16.9896H95.1288C96.6321 16.9896 97.6904 16.1066 97.6904 14.8163C97.7024 13.5032 96.6441 12.6543 95.1408 12.6543Z" fill="#A58069"/>
<path d="M100.684 12.6548H99.2285V19.4803H99.6975L103.943 15.2356V19.3557H105.398V12.5303H104.905L100.684 16.7297V12.6548Z" fill="#A58069"/>
<path d="M112.098 15.2238H108.947V12.6543H107.492V19.3553H108.947V16.4576H112.098V19.3553H113.553V12.6543H112.098V15.2238Z" fill="#A58069"/>
<path d="M117.1 16.7297V12.6548H115.645V19.4803H116.114L120.359 15.2469V19.3557H121.814V12.5303H121.333L117.1 16.7297Z" fill="#A58069"/>
<path d="M127.394 16.1524L124.387 12.5303H123.906V19.3557H125.361V15.779L127.153 17.8956H127.635L129.426 15.779V19.3557H130.882V12.5303H130.401L127.394 16.1524Z" fill="#A58069"/>
<path d="M135.729 15.0884L136.678 17.3523H134.778L135.729 15.0884ZM133.877 19.3557L134.273 18.4842H137.184L137.581 19.3557H139.144L135.969 12.5303H135.487L132.301 19.3557H133.877Z" fill="#A58069"/>
<path d="M141.383 19.3553H142.838V13.8881H145.123V12.6543H139.109V13.8881H141.383V19.3553Z" fill="#A58069"/>
<path d="M151.46 18.1102H148.008V16.4236H150.449V15.2464H148.008V13.8881H151.34V12.6543H146.541V19.3553H151.46V18.1102Z" fill="#A58069"/>
<path d="M157.496 19.3572H158.952V12.6562H154.321V13.8901C154.321 16.8217 153.768 17.9877 152.625 18.1121V19.4026C154.429 19.278 155.668 18.1914 155.704 13.8901H157.484V19.3572H157.496Z" fill="#A58069"/>
<path d="M163.966 18.1457H162.511V16.1535H163.966C164.676 16.1535 165.073 16.5724 165.073 17.161C165.073 17.7382 164.676 18.1457 163.966 18.1457ZM166.564 17.1496C166.564 15.8479 165.494 14.9536 163.966 14.9536H162.511V12.6445H161.057V19.3455H163.966C165.494 19.3568 166.564 18.4853 166.564 17.1496Z" fill="#A58069"/>
<path d="M171.663 19.4808C173.047 19.4808 174.202 18.8469 174.814 17.817L173.721 17.0812C173.239 17.7943 172.578 18.2018 171.675 18.2018C170.352 18.2018 169.379 17.2963 169.379 16.0058C169.379 14.7041 170.352 13.7873 171.675 13.7873C172.566 13.7873 173.239 14.2061 173.721 14.9192L174.814 14.1834C174.189 13.1534 173.047 12.5195 171.675 12.5195C169.547 12.5195 167.875 14.025 167.875 15.9945C167.887 17.9754 169.559 19.4808 171.663 19.4808Z" fill="#A58069"/>
<path d="M175.992 13.8881H178.264V19.3553H179.72V13.8881H182.005V12.6543H175.992V13.8881Z" fill="#A58069"/>
<path d="M184.833 18.1781V16.4916H186.491C187.129 16.4916 187.502 16.8197 187.502 17.3404C187.502 17.8725 187.129 18.1781 186.491 18.1781H184.833ZM184.833 13.8315H185.83C186.431 13.8315 186.757 14.1258 186.757 14.5899C186.757 15.0427 186.431 15.3596 185.83 15.3596H184.833V13.8315ZM188.945 17.3858C188.945 16.5595 188.465 15.9934 187.682 15.7331C188.019 15.4275 188.211 15.02 188.211 14.522C188.211 13.4127 187.274 12.6543 185.951 12.6543H183.426V19.3553H186.601C187.983 19.3553 188.945 18.5403 188.945 17.3858Z" fill="#A58069"/>
<path d="M192.302 17.3523L193.251 15.0884L194.202 17.3523H192.302ZM193.011 12.5303L189.824 19.3557H191.387L191.784 18.4842H194.695L195.091 19.3557H196.655L193.48 12.5303H193.011Z" fill="#A58069"/>
<path d="M60.9371 31.5348V24.7207H60.4561L56.2229 28.9201V24.8339H54.7676V31.6593H55.2487L59.4819 27.426V31.5348H60.9371Z" fill="#A58069"/>
<path d="M66.7363 24.8339V31.6593H67.2173L71.4507 27.426V31.5348H72.9058V24.7207H72.4247L68.1915 28.9201V24.8339H66.7363Z" fill="#A58069"/>
<path d="M76.4513 28.6495H79.6021V31.536H81.0573V24.835H79.6021V27.4045H76.4513V24.835H74.9961V31.536H76.4513V28.6495Z" fill="#A58069"/>
<path d="M89.2233 31.535V24.834H87.7682V27.4035H84.6173V24.834H83.1621V31.535H84.6173V28.6486H87.7682V31.535H89.2233Z" fill="#A58069"/>
<path d="M92.3959 28.185C92.3959 26.8946 93.358 25.9778 94.6808 25.9778C95.9797 25.9778 96.9659 26.8946 96.9659 28.185C96.9659 29.4867 95.9797 30.3924 94.6808 30.3924C93.346 30.3924 92.3959 29.4867 92.3959 28.185ZM98.4691 28.185C98.4691 26.2155 96.7614 24.71 94.6688 24.71C92.5763 24.71 90.8926 26.2155 90.8926 28.185C90.8926 30.1546 92.5763 31.66 94.6688 31.66C96.7614 31.66 98.4691 30.1546 98.4691 28.185Z" fill="#A58069"/>
<path d="M103.198 30.3588H101.538V28.6722H103.198C103.835 28.6722 104.208 29.0004 104.208 29.5098C104.208 30.0419 103.835 30.3588 103.198 30.3588ZM101.526 26.0121H102.524C103.126 26.0121 103.45 26.3064 103.45 26.7706C103.45 27.2233 103.126 27.5402 102.524 27.5402H101.526V26.0121ZM104.377 27.9138C104.713 27.6082 104.906 27.2007 104.906 26.7027C104.906 25.5934 103.968 24.835 102.645 24.835H100.119V31.536H103.294C104.677 31.536 105.639 30.721 105.639 29.5664C105.639 28.7514 105.158 28.1741 104.377 27.9138Z" fill="#A58069"/>
<path d="M108.993 29.5426L109.943 27.2787L110.893 29.5426H108.993ZM109.703 24.7207L106.516 31.5461H108.079L108.476 30.6746H111.386L111.783 31.5461H113.347L110.172 24.7207H109.703Z" fill="#A58069"/>
<path d="M120.588 24.834H119.133V30.3012H116.246V24.834H114.791V31.535H120.071V32.9725H121.526V30.3012H120.588V24.834Z" fill="#A58069"/>
<path d="M123.115 24.8339V31.6593H123.596L127.83 27.426V31.5348H129.285V24.7207H128.804L124.57 28.9201V24.8339H123.115Z" fill="#A58069"/>
<path d="M134.731 30.3916C133.409 30.3916 132.447 29.4861 132.447 28.1844C132.447 26.8939 133.409 25.9771 134.731 25.9771C136.03 25.9771 137.017 26.8939 137.017 28.1844C137.017 29.4861 136.03 30.3916 134.731 30.3916ZM134.719 24.7207C132.627 24.7207 130.943 26.2261 130.943 28.1956C130.943 30.1652 132.627 31.6706 134.719 31.6706C136.813 31.6706 138.52 30.1652 138.52 28.1956C138.508 26.2148 136.813 24.7207 134.719 24.7207Z" fill="#A58069"/>
<path d="M146.239 31.535V24.834H144.783V27.4035H141.633V24.834H140.178V31.535H141.633V28.6486H144.783V31.535H146.239Z" fill="#A58069"/>
<path d="M152.938 27.4045H149.787V24.835H148.332V31.536H149.787V28.6495H152.938V31.536H154.392V24.835H152.938V27.4045Z" fill="#A58069"/>
<path d="M159.855 30.3916C158.532 30.3916 157.569 29.4861 157.569 28.1844C157.569 26.8939 158.532 25.9771 159.855 25.9771C161.165 25.9771 162.14 26.8939 162.14 28.1844C162.14 29.4861 161.165 30.3916 159.855 30.3916ZM159.843 24.7207C157.751 24.7207 156.066 26.2261 156.066 28.1956C156.066 30.1652 157.751 31.6706 159.843 31.6706C161.935 31.6706 163.643 30.1652 163.643 28.1956C163.643 26.2148 161.935 24.7207 159.843 24.7207Z" fill="#A58069"/>
<path d="M165.301 31.536H166.756V26.0801H169.894V24.835H165.301V31.536Z" fill="#A58069"/>
<path d="M174.611 30.3916C173.288 30.3916 172.326 29.4861 172.326 28.1844C172.326 26.8939 173.288 25.9771 174.611 25.9771C175.923 25.9771 176.896 26.8939 176.896 28.1844C176.896 29.4861 175.911 30.3916 174.611 30.3916ZM174.599 24.7207C172.506 24.7207 170.822 26.2261 170.822 28.1956C170.822 30.1652 172.506 31.6706 174.599 31.6706C176.692 31.6706 178.399 30.1652 178.399 28.1956C178.399 26.2148 176.692 24.7207 174.599 24.7207Z" fill="#A58069"/>
<path d="M186.469 27.9694H185.254V26.0451H186.469C187.142 26.0451 187.551 26.4413 187.551 26.996C187.551 27.5846 187.142 27.9694 186.469 27.9694ZM186.469 24.834H183.787V31.535H185.242V29.1694H186.457C187.961 29.1694 189.018 28.2864 189.018 26.996C189.03 25.6943 187.973 24.834 186.469 24.834Z" fill="#A58069"/>
<path d="M191.77 29.5426L192.72 27.2787L193.671 29.5426H191.77ZM192.48 24.7207L189.293 31.5461H190.856L191.253 30.6746H194.164L194.56 31.5461H196.124L192.949 24.7207H192.48Z" fill="#A58069"/>
<path d="M201.561 27.9926C201.969 27.6756 202.211 27.2341 202.211 26.6909C202.211 25.5476 201.128 24.71 199.769 24.71C198.626 24.71 197.676 25.2985 197.208 26.1702L198.217 26.8493C198.614 26.3061 199.132 25.9778 199.757 25.9778C200.358 25.9778 200.754 26.3061 200.754 26.7701C200.754 27.2003 200.43 27.5398 199.841 27.5398H198.746V28.6717H200.153C200.79 28.6717 201.152 29.0227 201.152 29.4867C201.152 30.0641 200.574 30.3922 199.877 30.3922C199.156 30.3922 198.566 30.0753 198.097 29.4188L197.074 30.1093C197.592 31.0375 198.59 31.66 199.889 31.66C201.404 31.66 202.595 30.8224 202.595 29.5547C202.595 28.8416 202.211 28.2982 201.561 27.9926Z" fill="#A58069"/>
<path d="M207.358 30.3587H205.698V28.6722H207.358C207.995 28.6722 208.368 29.0004 208.368 29.5098C208.368 30.0417 207.995 30.3587 207.358 30.3587ZM205.698 26.0121H206.696C207.298 26.0121 207.623 26.3064 207.623 26.7706C207.623 27.2233 207.298 27.5402 206.696 27.5402H205.698V26.0121ZM208.548 27.9137C208.886 27.6081 209.078 27.2006 209.078 26.7026C209.078 25.5933 208.139 24.835 206.828 24.835H204.303V31.536H207.478C208.862 31.536 209.823 30.721 209.823 29.5664C209.811 28.7514 209.318 28.1741 208.548 27.9137Z" fill="#A58069"/>
<path d="M212.901 28.9201V24.8339H211.445V31.6593H211.915L216.16 27.426V31.5348H217.615V24.7207H217.122L212.901 28.9201Z" fill="#A58069"/>
<path d="M219.037 26.0801H221.309V31.536H222.765V26.0801H225.062V24.835H219.037V26.0801Z" fill="#A58069"/>
<path d="M227.933 28.9201V24.8339H226.479V31.6593H226.948L231.193 27.426V31.5348H232.648V24.7207H232.167L227.933 28.9201Z" fill="#A58069"/>
<path d="M238.471 28.275H237.388C236.619 28.275 236.149 27.811 236.149 27.1544C236.149 26.5206 236.619 26.0451 237.388 26.0451H238.471V28.275ZM237.412 24.834C235.801 24.834 234.659 25.7622 234.659 27.1544C234.659 28.0034 235.104 28.6939 235.813 29.09L234.117 31.535H235.741L237.184 29.4636C237.256 29.475 237.328 29.475 237.4 29.475H238.459V31.535H239.914V24.834H237.412Z" fill="#A58069"/>
<path d="M54.7676 43.7274H56.2229V38.2602H59.3496V37.0264H54.7676V43.7274Z" fill="#A58069"/>
<path d="M64.0754 42.5826C62.7525 42.5826 61.7904 41.6771 61.7904 40.3754C61.7904 39.0851 62.7525 38.1682 64.0754 38.1682C65.3743 38.1682 66.3603 39.0851 66.3603 40.3754C66.3603 41.6771 65.3743 42.5826 64.0754 42.5826ZM64.0634 36.9004C61.9708 36.9004 60.2871 38.4058 60.2871 40.3754C60.2871 42.345 61.9708 43.8505 64.0634 43.8505C66.1559 43.8505 67.8636 42.345 67.8636 40.3754C67.8636 38.4058 66.1559 36.9004 64.0634 36.9004Z" fill="#A58069"/>
<path d="M72.1955 40.1618H70.9808V38.2375H72.1955C72.869 38.2375 73.2779 38.6337 73.2779 39.1883C73.2779 39.7656 72.881 40.1618 72.1955 40.1618ZM72.1955 37.0264H69.5137V43.7274H70.9688V41.3616H72.1835C73.6868 41.3616 74.7451 40.4787 74.7451 39.1883C74.7691 37.8752 73.6988 37.0264 72.1955 37.0264Z" fill="#A58069"/>
<path d="M79.8293 42.5826C78.5064 42.5826 77.5443 41.6771 77.5443 40.3754C77.5443 39.0851 78.5064 38.1682 79.8293 38.1682C81.1282 38.1682 82.1144 39.0851 82.1144 40.3754C82.1144 41.6771 81.1402 42.5826 79.8293 42.5826ZM79.8173 36.9004C77.7247 36.9004 76.041 38.4058 76.041 40.3754C76.041 42.345 77.7247 43.8505 79.8173 43.8505C81.9099 43.8505 83.6177 42.345 83.6177 40.3754C83.6177 38.4058 81.9099 36.9004 79.8173 36.9004Z" fill="#A58069"/>
<path d="M89.4994 42.4822H86.7213C87.5031 41.622 87.8999 40.3089 87.9239 38.2602H89.4994V42.4822ZM90.9667 37.0264H86.5409V38.1356C86.5409 40.5919 86.0358 41.7804 85.1099 42.4935H84.5566V45.1649H86.0118V43.7387H90.4496V45.1649H91.9047V42.4935H90.9547V37.0264H90.9667Z" fill="#A58069"/>
<path d="M95.5381 41.7225L96.4881 39.4586L97.4382 41.7225H95.5381ZM96.2476 36.9004L93.0605 43.7259H94.624L95.0209 42.8544H97.9313L98.3281 43.7259H99.8916L96.7167 36.9004H96.2476Z" fill="#A58069"/>
<path d="M108.525 40.5226L105.518 36.9004H105.037V43.7259H106.492V40.149L108.284 42.2657H108.765L110.557 40.149V43.7259H112.013V36.9004H111.531L108.525 40.5226Z" fill="#A58069"/>
<path d="M117.486 42.5826C116.163 42.5826 115.201 41.6771 115.201 40.3754C115.201 39.0851 116.163 38.1682 117.486 38.1682C118.784 38.1682 119.77 39.0851 119.77 40.3754C119.77 41.6771 118.784 42.5826 117.486 42.5826ZM117.474 36.9004C115.381 36.9004 113.697 38.4058 113.697 40.3754C113.697 42.345 115.381 43.8505 117.474 43.8505C119.566 43.8505 121.274 42.345 121.274 40.3754C121.262 38.4058 119.566 36.9004 117.474 36.9004Z" fill="#A58069"/>
<path d="M126.42 38.1682C127.31 38.1682 127.983 38.587 128.452 39.3002L129.547 38.5644C128.921 37.5343 127.779 36.9004 126.408 36.9004C124.279 36.9004 122.607 38.4058 122.607 40.3754C122.607 42.345 124.279 43.8505 126.396 43.8505C127.779 43.8505 128.933 43.2166 129.547 42.1865L128.452 41.4507C127.983 42.1638 127.31 42.5826 126.42 42.5826C125.097 42.5826 124.123 41.6771 124.123 40.3868C124.123 39.0851 125.097 38.1682 126.42 38.1682Z" fill="#A58069"/>
<path d="M137.064 37.0264H135.331L132.602 40.1278V37.0264H131.146V43.7274H132.602V40.2297L135.657 43.7274H137.424L134.334 40.1845L137.064 37.0264Z" fill="#A58069"/>
<path d="M141.913 42.5501H140.252V40.8636H141.913C142.55 40.8636 142.922 41.1919 142.922 41.7012C142.922 42.2331 142.538 42.5501 141.913 42.5501ZM140.24 38.2035H141.239C141.841 38.2035 142.165 38.4978 142.165 38.962C142.165 39.4147 141.841 39.7316 141.239 39.7316H140.24V38.2035ZM143.091 40.1051C143.427 39.7995 143.621 39.392 143.621 38.894C143.621 37.7847 142.682 37.0264 141.371 37.0264H138.846V43.7274H142.021C143.403 43.7274 144.366 42.9124 144.366 41.7578C144.354 40.9314 143.873 40.3655 143.091 40.1051Z" fill="#A58069"/>
<path d="M148.874 42.5162H147.419V40.5239H148.874C149.583 40.5239 149.981 40.9428 149.981 41.5313C149.993 42.1087 149.595 42.5162 148.874 42.5162ZM148.874 39.3355H147.419V37.0264H145.963V43.7274H148.874C150.401 43.7274 151.471 42.8557 151.471 41.5201C151.483 40.2183 150.413 39.3355 148.874 39.3355Z" fill="#A58069"/>
<path d="M154.177 37.0264H152.723V43.7274H154.177V37.0264Z" fill="#A58069"/>
</svg>
