<svg width="104" height="44" viewBox="0 0 104 44" fill="none" xmlns="http://www.w3.org/2000/svg">
<path d="M8.33008 27.9414H7.92578C7.89062 27.8008 7.82617 27.6348 7.73242 27.4434C7.64258 27.248 7.54102 27.0645 7.42773 26.8926C7.31055 26.7129 7.18164 26.5566 7.04102 26.4238C6.9043 26.2871 6.77148 26.209 6.64258 26.1895C6.52148 26.1738 6.36914 26.1621 6.18555 26.1543C6.00195 26.1465 5.83203 26.1426 5.67578 26.1426H5.33594V32.793C5.33594 32.9219 5.36328 33.041 5.41797 33.1504C5.47266 33.2559 5.56836 33.3379 5.70508 33.3965C5.77539 33.4238 5.92188 33.4609 6.14453 33.5078C6.37109 33.5547 6.54688 33.5801 6.67188 33.584V34H2.74609V33.584C2.85547 33.5762 3.02148 33.5605 3.24414 33.5371C3.4707 33.5137 3.62695 33.4844 3.71289 33.4492C3.8418 33.3984 3.93555 33.3262 3.99414 33.2324C4.05664 33.1348 4.08789 33.0059 4.08789 32.8457V26.1426H3.74805C3.62695 26.1426 3.47656 26.1465 3.29688 26.1543C3.11719 26.1582 2.94531 26.1699 2.78125 26.1895C2.65234 26.2051 2.51758 26.2832 2.37695 26.4238C2.24023 26.5605 2.11328 26.7168 1.99609 26.8926C1.87891 27.0684 1.77539 27.2559 1.68555 27.4551C1.5957 27.6504 1.5332 27.8125 1.49805 27.9414H1.08789V25.6855H8.33008V27.9414ZM14.3242 33.8945C14.1406 33.9609 13.9785 34.0137 13.8379 34.0527C13.7012 34.0957 13.5449 34.1172 13.3691 34.1172C13.0645 34.1172 12.8203 34.0469 12.6367 33.9062C12.457 33.7617 12.3418 33.5527 12.291 33.2793H12.2559C12.002 33.5605 11.7285 33.7754 11.4355 33.9238C11.1465 34.0723 10.7969 34.1465 10.3867 34.1465C9.95312 34.1465 9.5957 34.0137 9.31445 33.748C9.03711 33.4824 8.89844 33.1348 8.89844 32.7051C8.89844 32.4824 8.92969 32.2832 8.99219 32.1074C9.05469 31.9316 9.14844 31.7734 9.27344 31.6328C9.37109 31.5156 9.5 31.4121 9.66016 31.3223C9.82031 31.2285 9.9707 31.1543 10.1113 31.0996C10.2871 31.0332 10.6426 30.9102 11.1777 30.7305C11.7168 30.5508 12.0801 30.4102 12.2676 30.3086V29.7285C12.2676 29.6777 12.2559 29.5801 12.2324 29.4355C12.2129 29.291 12.168 29.1543 12.0977 29.0254C12.0195 28.8809 11.9082 28.7559 11.7637 28.6504C11.623 28.541 11.4219 28.4863 11.1602 28.4863C10.9805 28.4863 10.8125 28.5176 10.6562 28.5801C10.5039 28.6387 10.3965 28.7012 10.334 28.7676C10.334 28.8457 10.3516 28.9609 10.3867 29.1133C10.4258 29.2656 10.4453 29.4062 10.4453 29.5352C10.4453 29.6719 10.3828 29.7969 10.2578 29.9102C10.1367 30.0234 9.9668 30.0801 9.74805 30.0801C9.55273 30.0801 9.4082 30.0117 9.31445 29.875C9.22461 29.7344 9.17969 29.5781 9.17969 29.4062C9.17969 29.2266 9.24219 29.0547 9.36719 28.8906C9.49609 28.7266 9.66211 28.5801 9.86523 28.4512C10.041 28.3418 10.2539 28.25 10.5039 28.1758C10.7539 28.0977 10.998 28.0586 11.2363 28.0586C11.5645 28.0586 11.8496 28.082 12.0918 28.1289C12.3379 28.1719 12.5605 28.2676 12.7598 28.416C12.959 28.5605 13.1094 28.7578 13.2109 29.0078C13.3164 29.2539 13.3691 29.5723 13.3691 29.9629C13.3691 30.5215 13.3633 31.0176 13.3516 31.4512C13.3398 31.8809 13.334 32.3516 13.334 32.8633C13.334 33.0156 13.3594 33.1367 13.4102 33.2266C13.4648 33.3164 13.5469 33.3926 13.6562 33.4551C13.7148 33.4902 13.8066 33.5098 13.9316 33.5137C14.0605 33.5176 14.1914 33.5195 14.3242 33.5195V33.8945ZM12.2793 30.8008C11.9473 30.8984 11.6562 30.9941 11.4062 31.0879C11.1562 31.1816 10.9238 31.2988 10.709 31.4395C10.5137 31.5723 10.3594 31.7305 10.2461 31.9141C10.1328 32.0938 10.0762 32.3086 10.0762 32.5586C10.0762 32.8828 10.1602 33.1211 10.3281 33.2734C10.5 33.4258 10.7168 33.502 10.9785 33.502C11.2559 33.502 11.5 33.4355 11.7109 33.3027C11.9219 33.166 12.0996 33.0059 12.2441 32.8223L12.2793 30.8008ZM21.373 34H18.5488V33.6133C18.6387 33.6055 18.7305 33.5977 18.8242 33.5898C18.9219 33.582 19.0059 33.5664 19.0762 33.543C19.1855 33.5078 19.2695 33.4473 19.3281 33.3613C19.3867 33.2715 19.416 33.1562 19.416 33.0156V31.1758H16.8438V32.957C16.8438 33.0898 16.8711 33.1992 16.9258 33.2852C16.9805 33.3711 17.0625 33.4375 17.1719 33.4844C17.2539 33.5234 17.3418 33.5527 17.4355 33.5723C17.5332 33.5918 17.6328 33.6055 17.7344 33.6133V34H14.9102V33.6133C15 33.6055 15.0918 33.5977 15.1855 33.5898C15.2832 33.582 15.3672 33.5664 15.4375 33.543C15.5469 33.5078 15.627 33.4473 15.6777 33.3613C15.7324 33.2715 15.7598 33.1562 15.7598 33.0156V29.2656C15.7598 29.1367 15.7324 29.0293 15.6777 28.9434C15.623 28.8535 15.541 28.7852 15.4316 28.7383C15.3301 28.6914 15.2305 28.6602 15.1328 28.6445C15.0391 28.6289 14.9512 28.6172 14.8691 28.6094V28.2227H17.6934V28.6094C17.5801 28.6172 17.4805 28.627 17.3945 28.6387C17.3125 28.6504 17.2363 28.6641 17.166 28.6797C17.0566 28.7109 16.9746 28.7734 16.9199 28.8672C16.8691 28.957 16.8438 29.0703 16.8438 29.207V30.6953H19.416V29.2656C19.416 29.1367 19.3887 29.0293 19.334 28.9434C19.2793 28.8535 19.1973 28.7852 19.0879 28.7383C18.9863 28.6914 18.8867 28.6602 18.7891 28.6445C18.6953 28.6289 18.6074 28.6172 18.5254 28.6094V28.2227H21.3496V28.6094C21.2363 28.6172 21.1367 28.627 21.0508 28.6387C20.9688 28.6504 20.8926 28.6641 20.8223 28.6797C20.7129 28.7109 20.6309 28.7734 20.5762 28.8672C20.5254 28.957 20.5 29.0703 20.5 29.207V32.957C20.5 33.0938 20.5234 33.2051 20.5703 33.291C20.6172 33.373 20.6973 33.4375 20.8105 33.4844C20.8926 33.5234 20.9805 33.5527 21.0742 33.5723C21.1719 33.5918 21.2715 33.6055 21.373 33.6133V34ZM25.9902 30.9648V28.6387H25.334C24.9238 28.6387 24.584 28.7344 24.3145 28.9258C24.0449 29.1172 23.9102 29.4004 23.9102 29.7754C23.9102 30.1621 24.0527 30.457 24.3379 30.6602C24.623 30.8633 25.0293 30.9648 25.5566 30.9648H25.9902ZM24.2207 31.2109V31.1758C23.6934 31.0703 23.3086 30.8965 23.0664 30.6543C22.8281 30.4082 22.709 30.0977 22.709 29.7227C22.709 29.2617 22.916 28.8965 23.3301 28.627C23.748 28.3574 24.2754 28.2227 24.9121 28.2227H27.9297V28.6094C27.8164 28.6172 27.7168 28.627 27.6309 28.6387C27.5488 28.6504 27.4727 28.6641 27.4023 28.6797C27.293 28.7109 27.2109 28.7734 27.1562 28.8672C27.1055 28.957 27.0801 29.0703 27.0801 29.207V32.957C27.0801 33.0938 27.1035 33.2051 27.1504 33.291C27.1973 33.373 27.2773 33.4375 27.3906 33.4844C27.4727 33.5234 27.5605 33.5527 27.6543 33.5723C27.752 33.5918 27.8516 33.6055 27.9531 33.6133V34H25.123V33.6133C25.2129 33.6055 25.3047 33.5977 25.3984 33.5898C25.4961 33.582 25.5801 33.5664 25.6504 33.543C25.7598 33.5078 25.8438 33.4473 25.9023 33.3613C25.9609 33.2715 25.9902 33.1562 25.9902 33.0156V31.3926H25.7441C25.3809 31.3926 25.0957 31.4629 24.8887 31.6035C24.6855 31.7402 24.4902 32 24.3027 32.3828C24.166 32.668 24.0527 32.9316 23.9629 33.1738C23.877 33.416 23.7871 33.6914 23.6934 34H21.7188V33.6133C21.8086 33.6016 21.8926 33.5898 21.9707 33.5781C22.0527 33.5664 22.1406 33.5527 22.2344 33.5371C22.3555 33.5137 22.4648 33.4668 22.5625 33.3965C22.6641 33.3262 22.752 33.2109 22.8262 33.0508C22.8652 32.9609 22.918 32.8418 22.9844 32.6934C23.0547 32.541 23.1367 32.3711 23.2305 32.1836C23.3555 31.9375 23.4941 31.7363 23.6465 31.5801C23.8027 31.4238 23.9941 31.3008 24.2207 31.2109ZM38.5879 27.9414H38.1836C38.1484 27.8008 38.084 27.6348 37.9902 27.4434C37.9004 27.248 37.7988 27.0645 37.6855 26.8926C37.5684 26.7129 37.4395 26.5566 37.2988 26.4238C37.1621 26.2871 37.0293 26.209 36.9004 26.1895C36.7793 26.1738 36.627 26.1621 36.4434 26.1543C36.2598 26.1465 36.0898 26.1426 35.9336 26.1426H35.5938V32.793C35.5938 32.9219 35.6211 33.041 35.6758 33.1504C35.7305 33.2559 35.8262 33.3379 35.9629 33.3965C36.0332 33.4238 36.1797 33.4609 36.4023 33.5078C36.6289 33.5547 36.8047 33.5801 36.9297 33.584V34H33.0039V33.584C33.1133 33.5762 33.2793 33.5605 33.502 33.5371C33.7285 33.5137 33.8848 33.4844 33.9707 33.4492C34.0996 33.3984 34.1934 33.3262 34.252 33.2324C34.3145 33.1348 34.3457 33.0059 34.3457 32.8457V26.1426H34.0059C33.8848 26.1426 33.7344 26.1465 33.5547 26.1543C33.375 26.1582 33.2031 26.1699 33.0391 26.1895C32.9102 26.2051 32.7754 26.2832 32.6348 26.4238C32.498 26.5605 32.3711 26.7168 32.2539 26.8926C32.1367 27.0684 32.0332 27.2559 31.9434 27.4551C31.8535 27.6504 31.791 27.8125 31.7559 27.9414H31.3457V25.6855H38.5879V27.9414ZM38.6699 35.8867C38.6699 35.6914 38.7227 35.5312 38.8281 35.4062C38.9375 35.2852 39.0723 35.2246 39.2324 35.2246C39.3574 35.2246 39.4648 35.248 39.5547 35.2949C39.6445 35.3418 39.7246 35.4023 39.7949 35.4766C39.8535 35.5352 39.916 35.6152 39.9824 35.7168C40.0488 35.8184 40.1016 35.9023 40.1406 35.9688C40.3359 35.8633 40.5684 35.5879 40.8379 35.1426C41.1113 34.6973 41.3086 34.3066 41.4297 33.9707C41.0586 33.0449 40.7227 32.2168 40.4219 31.4863C40.1211 30.7559 39.8066 30 39.4785 29.2188C39.4043 29.0391 39.2793 28.9004 39.1035 28.8027C38.9277 28.7012 38.752 28.6367 38.5762 28.6094V28.2227H41.2129V28.6328C41.0957 28.6367 40.9551 28.6621 40.791 28.709C40.627 28.752 40.5449 28.8027 40.5449 28.8613C40.5449 28.8848 40.5527 28.9238 40.5684 28.9785C40.5879 29.0332 40.6094 29.0898 40.6328 29.1484C40.7812 29.5352 41.0078 30.0938 41.3125 30.8242C41.6172 31.5508 41.8535 32.1328 42.0215 32.5703C42.1973 32.1523 42.3789 31.7207 42.5664 31.2754C42.7578 30.8262 42.9707 30.2969 43.2051 29.6875C43.2324 29.6133 43.2715 29.5117 43.3223 29.3828C43.373 29.25 43.3984 29.1367 43.3984 29.043C43.3984 28.9414 43.3086 28.8477 43.1289 28.7617C42.9531 28.6719 42.7852 28.6172 42.625 28.5977V28.2227H44.7695V28.5859C44.6523 28.6055 44.498 28.6738 44.3066 28.791C44.1152 28.9043 43.9727 29.0664 43.8789 29.2773C43.4141 30.3555 43 31.3379 42.6367 32.2246C42.2773 33.1113 42.0039 33.7637 41.8164 34.1816C41.5703 34.7285 41.3496 35.1543 41.1543 35.459C40.9629 35.7676 40.7754 36.0098 40.5918 36.1855C40.4121 36.3496 40.248 36.459 40.0996 36.5137C39.9551 36.5723 39.8047 36.6016 39.6484 36.6016C39.3438 36.6016 39.1035 36.5293 38.9277 36.3848C38.7559 36.2402 38.6699 36.0742 38.6699 35.8867ZM52.7676 34H49.9375V33.6133C50.0273 33.6055 50.1191 33.5977 50.2129 33.5898C50.3105 33.582 50.3945 33.5664 50.4648 33.543C50.5781 33.5078 50.6641 33.4453 50.7227 33.3555C50.7852 33.2617 50.8164 33.1484 50.8164 33.0156V28.832H50.6758L48.7188 33.9062H48.3555L46.5156 28.7324H46.3867V32.7812C46.3867 32.9805 46.4141 33.1367 46.4688 33.25C46.5273 33.3633 46.6094 33.4414 46.7148 33.4844C46.7969 33.5234 46.8848 33.5527 46.9785 33.5723C47.0762 33.5918 47.1758 33.6055 47.2773 33.6133V34H45.0273V33.6133C45.1172 33.6055 45.209 33.5977 45.3027 33.5898C45.4004 33.582 45.4844 33.5664 45.5547 33.543C45.6719 33.5039 45.7539 33.4277 45.8008 33.3145C45.8516 33.1973 45.877 33.0391 45.877 32.8398V29.3242C45.877 29.1719 45.8496 29.0488 45.7949 28.9551C45.7402 28.8574 45.6582 28.7852 45.5488 28.7383C45.4473 28.6914 45.3477 28.6602 45.25 28.6445C45.1562 28.6289 45.0684 28.6172 44.9863 28.6094V28.2227H47.3887L48.8359 32.3594L50.1133 28.9316C50.1523 28.8184 50.1953 28.6836 50.2422 28.5273C50.2891 28.3711 50.3145 28.2695 50.3184 28.2227H52.7441V28.6094C52.6309 28.6172 52.5312 28.627 52.4453 28.6387C52.3633 28.6504 52.2871 28.6641 52.2168 28.6797C52.1074 28.7109 52.0254 28.7734 51.9707 28.8672C51.9199 28.957 51.8945 29.0703 51.8945 29.207V32.957C51.8945 33.0938 51.918 33.2051 51.9648 33.291C52.0117 33.373 52.0918 33.4375 52.2051 33.4844C52.2871 33.5234 52.375 33.5527 52.4688 33.5723C52.5664 33.5918 52.666 33.6055 52.7676 33.6133V34ZM59.0781 33.8945C58.8945 33.9609 58.7324 34.0137 58.5918 34.0527C58.4551 34.0957 58.2988 34.1172 58.123 34.1172C57.8184 34.1172 57.5742 34.0469 57.3906 33.9062C57.2109 33.7617 57.0957 33.5527 57.0449 33.2793H57.0098C56.7559 33.5605 56.4824 33.7754 56.1895 33.9238C55.9004 34.0723 55.5508 34.1465 55.1406 34.1465C54.707 34.1465 54.3496 34.0137 54.0684 33.748C53.791 33.4824 53.6523 33.1348 53.6523 32.7051C53.6523 32.4824 53.6836 32.2832 53.7461 32.1074C53.8086 31.9316 53.9023 31.7734 54.0273 31.6328C54.125 31.5156 54.2539 31.4121 54.4141 31.3223C54.5742 31.2285 54.7246 31.1543 54.8652 31.0996C55.041 31.0332 55.3965 30.9102 55.9316 30.7305C56.4707 30.5508 56.834 30.4102 57.0215 30.3086V29.7285C57.0215 29.6777 57.0098 29.5801 56.9863 29.4355C56.9668 29.291 56.9219 29.1543 56.8516 29.0254C56.7734 28.8809 56.6621 28.7559 56.5176 28.6504C56.377 28.541 56.1758 28.4863 55.9141 28.4863C55.7344 28.4863 55.5664 28.5176 55.4102 28.5801C55.2578 28.6387 55.1504 28.7012 55.0879 28.7676C55.0879 28.8457 55.1055 28.9609 55.1406 29.1133C55.1797 29.2656 55.1992 29.4062 55.1992 29.5352C55.1992 29.6719 55.1367 29.7969 55.0117 29.9102C54.8906 30.0234 54.7207 30.0801 54.502 30.0801C54.3066 30.0801 54.1621 30.0117 54.0684 29.875C53.9785 29.7344 53.9336 29.5781 53.9336 29.4062C53.9336 29.2266 53.9961 29.0547 54.1211 28.8906C54.25 28.7266 54.416 28.5801 54.6191 28.4512C54.7949 28.3418 55.0078 28.25 55.2578 28.1758C55.5078 28.0977 55.752 28.0586 55.9902 28.0586C56.3184 28.0586 56.6035 28.082 56.8457 28.1289C57.0918 28.1719 57.3145 28.2676 57.5137 28.416C57.7129 28.5605 57.8633 28.7578 57.9648 29.0078C58.0703 29.2539 58.123 29.5723 58.123 29.9629C58.123 30.5215 58.1172 31.0176 58.1055 31.4512C58.0938 31.8809 58.0879 32.3516 58.0879 32.8633C58.0879 33.0156 58.1133 33.1367 58.1641 33.2266C58.2188 33.3164 58.3008 33.3926 58.4102 33.4551C58.4688 33.4902 58.5605 33.5098 58.6855 33.5137C58.8145 33.5176 58.9453 33.5195 59.0781 33.5195V33.8945ZM57.0332 30.8008C56.7012 30.8984 56.4102 30.9941 56.1602 31.0879C55.9102 31.1816 55.6777 31.2988 55.4629 31.4395C55.2676 31.5723 55.1133 31.7305 55 31.9141C54.8867 32.0938 54.8301 32.3086 54.8301 32.5586C54.8301 32.8828 54.9141 33.1211 55.082 33.2734C55.2539 33.4258 55.4707 33.502 55.7324 33.502C56.0098 33.502 56.2539 33.4355 56.4648 33.3027C56.6758 33.166 56.8535 33.0059 56.998 32.8223L57.0332 30.8008ZM66.127 34H63.3027V33.6133C63.3926 33.6055 63.4844 33.5977 63.5781 33.5898C63.6758 33.582 63.7598 33.5664 63.8301 33.543C63.9395 33.5078 64.0234 33.4473 64.082 33.3613C64.1406 33.2715 64.1699 33.1562 64.1699 33.0156V31.1758H61.5977V32.957C61.5977 33.0898 61.625 33.1992 61.6797 33.2852C61.7344 33.3711 61.8164 33.4375 61.9258 33.4844C62.0078 33.5234 62.0957 33.5527 62.1895 33.5723C62.2871 33.5918 62.3867 33.6055 62.4883 33.6133V34H59.6641V33.6133C59.7539 33.6055 59.8457 33.5977 59.9395 33.5898C60.0371 33.582 60.1211 33.5664 60.1914 33.543C60.3008 33.5078 60.3809 33.4473 60.4316 33.3613C60.4863 33.2715 60.5137 33.1562 60.5137 33.0156V29.2656C60.5137 29.1367 60.4863 29.0293 60.4316 28.9434C60.377 28.8535 60.2949 28.7852 60.1855 28.7383C60.084 28.6914 59.9844 28.6602 59.8867 28.6445C59.793 28.6289 59.7051 28.6172 59.623 28.6094V28.2227H62.4473V28.6094C62.334 28.6172 62.2344 28.627 62.1484 28.6387C62.0664 28.6504 61.9902 28.6641 61.9199 28.6797C61.8105 28.7109 61.7285 28.7734 61.6738 28.8672C61.623 28.957 61.5977 29.0703 61.5977 29.207V30.6953H64.1699V29.2656C64.1699 29.1367 64.1426 29.0293 64.0879 28.9434C64.0332 28.8535 63.9512 28.7852 63.8418 28.7383C63.7402 28.6914 63.6406 28.6602 63.543 28.6445C63.4492 28.6289 63.3613 28.6172 63.2793 28.6094V28.2227H66.1035V28.6094C65.9902 28.6172 65.8906 28.627 65.8047 28.6387C65.7227 28.6504 65.6465 28.6641 65.5762 28.6797C65.4668 28.7109 65.3848 28.7734 65.3301 28.8672C65.2793 28.957 65.2539 29.0703 65.2539 29.207V32.957C65.2539 33.0938 65.2773 33.2051 65.3242 33.291C65.3711 33.373 65.4512 33.4375 65.5645 33.4844C65.6465 33.5234 65.7344 33.5527 65.8281 33.5723C65.9258 33.5918 66.0254 33.6055 66.127 33.6133V34ZM72.5957 31.0527C72.5957 31.459 72.5312 31.8594 72.4023 32.2539C72.2734 32.6445 72.0898 32.9766 71.8516 33.25C71.582 33.5625 71.2695 33.7949 70.9141 33.9473C70.5586 34.0996 70.1602 34.1758 69.7188 34.1758C69.3516 34.1758 69.002 34.1074 68.6699 33.9707C68.3379 33.8301 68.043 33.627 67.7852 33.3613C67.5312 33.0996 67.3281 32.7812 67.1758 32.4062C67.0273 32.0273 66.9531 31.6035 66.9531 31.1348C66.9531 30.2324 67.2148 29.4941 67.7383 28.9199C68.2656 28.3457 68.9551 28.0586 69.8066 28.0586C70.6152 28.0586 71.2812 28.332 71.8047 28.8789C72.332 29.4219 72.5957 30.1465 72.5957 31.0527ZM71.3828 31.0645C71.3828 30.7715 71.3535 30.4629 71.2949 30.1387C71.2363 29.8105 71.1484 29.5332 71.0312 29.3066C70.9062 29.0645 70.7422 28.8711 70.5391 28.7266C70.3359 28.5781 70.0879 28.5039 69.7949 28.5039C69.4941 28.5039 69.2363 28.5781 69.0215 28.7266C68.8105 28.875 68.6387 29.0781 68.5059 29.3359C68.3809 29.5742 68.293 29.8457 68.2422 30.1504C68.1914 30.4551 68.166 30.75 68.166 31.0352C68.166 31.4102 68.1953 31.7578 68.2539 32.0781C68.3164 32.3945 68.4141 32.6777 68.5469 32.9277C68.6797 33.1777 68.8457 33.375 69.0449 33.5195C69.248 33.6602 69.498 33.7305 69.7949 33.7305C70.2832 33.7305 70.6699 33.4941 70.9551 33.0215C71.2402 32.5488 71.3828 31.8965 71.3828 31.0645ZM77.6113 32.3008C77.6113 31.957 77.4844 31.6855 77.2305 31.4863C76.9766 31.2871 76.6133 31.1875 76.1406 31.1875C75.9336 31.1875 75.7695 31.1914 75.6484 31.1992C75.5312 31.207 75.4395 31.2109 75.373 31.2109V33.1211C75.373 33.2734 75.4375 33.3926 75.5664 33.4785C75.6953 33.5605 75.8926 33.6016 76.1582 33.6016C76.4395 33.6016 76.6777 33.5645 76.873 33.4902C77.0684 33.416 77.2207 33.3145 77.3301 33.1855C77.4355 33.0605 77.5078 32.9238 77.5469 32.7754C77.5898 32.627 77.6113 32.4688 77.6113 32.3008ZM78.7832 32.3887C78.7832 32.6738 78.7188 32.9199 78.5898 33.127C78.4609 33.334 78.2832 33.5039 78.0566 33.6367C77.8496 33.7578 77.6133 33.8496 77.3477 33.9121C77.082 33.9707 76.7988 34 76.498 34H73.4453V33.6133C73.5352 33.6055 73.627 33.5977 73.7207 33.5898C73.8184 33.582 73.9023 33.5664 73.9727 33.543C74.082 33.5078 74.1621 33.4473 74.2129 33.3613C74.2676 33.2715 74.2949 33.1562 74.2949 33.0156V29.2656C74.2949 29.1367 74.2676 29.0293 74.2129 28.9434C74.1582 28.8535 74.0762 28.7852 73.9668 28.7383C73.8652 28.6914 73.7656 28.6602 73.668 28.6445C73.5742 28.6289 73.4863 28.6172 73.4043 28.6094V28.2227C73.752 28.2227 74.1816 28.2207 74.6934 28.2168C75.209 28.2129 75.7461 28.2109 76.3047 28.2109C76.6016 28.2109 76.877 28.2324 77.1309 28.2754C77.3887 28.3145 77.6172 28.3828 77.8164 28.4805C78.0234 28.582 78.1836 28.7207 78.2969 28.8965C78.4102 29.0684 78.4668 29.2773 78.4668 29.5234C78.4668 29.9102 78.3457 30.2168 78.1035 30.4434C77.8652 30.666 77.5508 30.8184 77.1602 30.9004V30.9648C77.3594 30.9922 77.5547 31.0371 77.7461 31.0996C77.9414 31.1621 78.1152 31.248 78.2676 31.3574C78.4238 31.4707 78.5488 31.6113 78.6426 31.7793C78.7363 31.9434 78.7832 32.1465 78.7832 32.3887ZM77.3066 29.5703C77.3066 29.375 77.2695 29.2168 77.1953 29.0957C77.125 28.9707 77.0293 28.873 76.9082 28.8027C76.7871 28.7324 76.6504 28.6855 76.498 28.6621C76.3496 28.6348 76.1953 28.6211 76.0352 28.6211C75.9336 28.6211 75.8203 28.625 75.6953 28.6328C75.5742 28.6367 75.4668 28.6406 75.373 28.6445V30.7539H75.9414C76.2109 30.7539 76.4375 30.7227 76.6211 30.6602C76.8047 30.5977 76.9434 30.5137 77.0371 30.4082C77.1348 30.3066 77.2031 30.1855 77.2422 30.0449C77.2852 29.9043 77.3066 29.7461 77.3066 29.5703ZM85.1289 33.8945C84.9453 33.9609 84.7832 34.0137 84.6426 34.0527C84.5059 34.0957 84.3496 34.1172 84.1738 34.1172C83.8691 34.1172 83.625 34.0469 83.4414 33.9062C83.2617 33.7617 83.1465 33.5527 83.0957 33.2793H83.0605C82.8066 33.5605 82.5332 33.7754 82.2402 33.9238C81.9512 34.0723 81.6016 34.1465 81.1914 34.1465C80.7578 34.1465 80.4004 34.0137 80.1191 33.748C79.8418 33.4824 79.7031 33.1348 79.7031 32.7051C79.7031 32.4824 79.7344 32.2832 79.7969 32.1074C79.8594 31.9316 79.9531 31.7734 80.0781 31.6328C80.1758 31.5156 80.3047 31.4121 80.4648 31.3223C80.625 31.2285 80.7754 31.1543 80.916 31.0996C81.0918 31.0332 81.4473 30.9102 81.9824 30.7305C82.5215 30.5508 82.8848 30.4102 83.0723 30.3086V29.7285C83.0723 29.6777 83.0605 29.5801 83.0371 29.4355C83.0176 29.291 82.9727 29.1543 82.9023 29.0254C82.8242 28.8809 82.7129 28.7559 82.5684 28.6504C82.4277 28.541 82.2266 28.4863 81.9648 28.4863C81.7852 28.4863 81.6172 28.5176 81.4609 28.5801C81.3086 28.6387 81.2012 28.7012 81.1387 28.7676C81.1387 28.8457 81.1562 28.9609 81.1914 29.1133C81.2305 29.2656 81.25 29.4062 81.25 29.5352C81.25 29.6719 81.1875 29.7969 81.0625 29.9102C80.9414 30.0234 80.7715 30.0801 80.5527 30.0801C80.3574 30.0801 80.2129 30.0117 80.1191 29.875C80.0293 29.7344 79.9844 29.5781 79.9844 29.4062C79.9844 29.2266 80.0469 29.0547 80.1719 28.8906C80.3008 28.7266 80.4668 28.5801 80.6699 28.4512C80.8457 28.3418 81.0586 28.25 81.3086 28.1758C81.5586 28.0977 81.8027 28.0586 82.041 28.0586C82.3691 28.0586 82.6543 28.082 82.8965 28.1289C83.1426 28.1719 83.3652 28.2676 83.5645 28.416C83.7637 28.5605 83.9141 28.7578 84.0156 29.0078C84.1211 29.2539 84.1738 29.5723 84.1738 29.9629C84.1738 30.5215 84.168 31.0176 84.1562 31.4512C84.1445 31.8809 84.1387 32.3516 84.1387 32.8633C84.1387 33.0156 84.1641 33.1367 84.2148 33.2266C84.2695 33.3164 84.3516 33.3926 84.4609 33.4551C84.5195 33.4902 84.6113 33.5098 84.7363 33.5137C84.8652 33.5176 84.9961 33.5195 85.1289 33.5195V33.8945ZM83.084 30.8008C82.752 30.8984 82.4609 30.9941 82.2109 31.0879C81.9609 31.1816 81.7285 31.2988 81.5137 31.4395C81.3184 31.5723 81.1641 31.7305 81.0508 31.9141C80.9375 32.0938 80.8809 32.3086 80.8809 32.5586C80.8809 32.8828 80.9648 33.1211 81.1328 33.2734C81.3047 33.4258 81.5215 33.502 81.7832 33.502C82.0605 33.502 82.3047 33.4355 82.5156 33.3027C82.7266 33.166 82.9043 33.0059 83.0488 32.8223L83.084 30.8008Z" fill="white"/>
<path d="M5.2627 37.8428L5.00195 38.9707H4.7998C4.79785 38.9023 4.78809 38.8154 4.77051 38.71C4.75488 38.6045 4.73145 38.5098 4.7002 38.4258C4.66699 38.3359 4.62305 38.2588 4.56836 38.1943C4.51562 38.1299 4.45215 38.0918 4.37793 38.0801C4.31934 38.0723 4.24414 38.0664 4.15234 38.0625C4.0625 38.0586 3.97852 38.0566 3.90039 38.0566H3.71582L2.94238 41.4111C2.93848 41.4268 2.93555 41.4443 2.93359 41.4639C2.93164 41.4814 2.93066 41.499 2.93066 41.5166C2.93066 41.5635 2.93945 41.6025 2.95703 41.6338C2.97461 41.6631 3.00781 41.6895 3.05664 41.7129C3.0957 41.7285 3.16602 41.748 3.26758 41.7715C3.37109 41.793 3.45508 41.8047 3.51953 41.8066L3.47266 42H1.50977L1.55664 41.8066C1.61523 41.8027 1.7002 41.7949 1.81152 41.7832C1.92285 41.7715 2.00391 41.7568 2.05469 41.7393C2.13281 41.71 2.19141 41.6699 2.23047 41.6191C2.26953 41.5684 2.29688 41.5078 2.3125 41.4375L3.0918 38.0566H2.93652C2.87793 38.0566 2.80469 38.0586 2.7168 38.0625C2.62891 38.0645 2.53906 38.0703 2.44727 38.0801C2.38281 38.0879 2.30762 38.127 2.22168 38.1973C2.13574 38.2656 2.0498 38.3467 1.96387 38.4404C1.88184 38.5322 1.80762 38.626 1.74121 38.7217C1.6748 38.8154 1.62305 38.8984 1.58594 38.9707H1.38086L1.6416 37.8428H5.2627ZM6.75391 41.6133H6.7334C6.69043 41.6484 6.63867 41.6934 6.57812 41.748C6.51953 41.8008 6.4502 41.8516 6.37012 41.9004C6.29395 41.9492 6.21094 41.9912 6.12109 42.0264C6.03125 42.0635 5.93359 42.082 5.82812 42.082C5.54492 42.082 5.32227 41.9805 5.16016 41.7773C5 41.5742 4.91992 41.2969 4.91992 40.9453C4.91992 40.7031 4.96484 40.4678 5.05469 40.2393C5.14453 40.0107 5.26855 39.8057 5.42676 39.624C5.57715 39.4502 5.75586 39.3105 5.96289 39.2051C6.16992 39.0977 6.38281 39.0439 6.60156 39.0439C6.74023 39.0439 6.87207 39.0625 6.99707 39.0996C7.12402 39.1367 7.22363 39.1787 7.2959 39.2256L7.83203 39.0879L7.86719 39.1318L7.42188 41.0215C7.40625 41.082 7.38965 41.1562 7.37207 41.2441C7.35645 41.3301 7.34863 41.3936 7.34863 41.4346C7.34863 41.5459 7.37207 41.6211 7.41895 41.6602C7.46582 41.6992 7.54492 41.7188 7.65625 41.7188C7.69336 41.7188 7.74609 41.7129 7.81445 41.7012C7.88281 41.6895 7.93555 41.6768 7.97266 41.6631L7.92871 41.8506C7.75293 41.9209 7.62207 41.9717 7.53613 42.0029C7.4502 42.0342 7.3457 42.0498 7.22266 42.0498C7.08203 42.0498 6.9707 42.0088 6.88867 41.9268C6.80664 41.8447 6.76172 41.7402 6.75391 41.6133ZM7.17285 39.7617C7.17285 39.6973 7.16602 39.6357 7.15234 39.5771C7.13867 39.5186 7.11035 39.4639 7.06738 39.4131C7.02832 39.3643 6.97461 39.3252 6.90625 39.2959C6.83789 39.2666 6.75195 39.252 6.64844 39.252C6.50586 39.252 6.36719 39.2988 6.23242 39.3926C6.09766 39.4863 5.97656 39.6123 5.86914 39.7705C5.76758 39.9189 5.68457 40.0986 5.62012 40.3096C5.55566 40.5205 5.52344 40.7344 5.52344 40.9512C5.52344 41.0703 5.53027 41.1758 5.54395 41.2676C5.55762 41.3594 5.58398 41.4434 5.62305 41.5195C5.66016 41.5938 5.71387 41.6514 5.78418 41.6924C5.85449 41.7334 5.94336 41.7539 6.05078 41.7539C6.16016 41.7539 6.27441 41.7236 6.39355 41.6631C6.51465 41.6006 6.65039 41.4922 6.80078 41.3379L7.17285 39.7617ZM9.36426 41.7129C9.36426 41.8789 9.32617 42.0332 9.25 42.1758C9.17383 42.3203 9.07617 42.4502 8.95703 42.5654C8.84375 42.6768 8.72656 42.7715 8.60547 42.8496C8.48438 42.9297 8.37695 42.9922 8.2832 43.0371L8.18945 42.8408C8.2793 42.792 8.37012 42.7363 8.46191 42.6738C8.55371 42.6133 8.63086 42.5518 8.69336 42.4893C8.77148 42.4131 8.83691 42.3379 8.88965 42.2637C8.94434 42.1895 8.9873 42.0996 9.01855 41.9941H8.88086C8.76172 41.9941 8.67188 41.9648 8.61133 41.9062C8.55273 41.8457 8.52344 41.7676 8.52344 41.6719C8.52344 41.5703 8.5625 41.4766 8.64062 41.3906C8.71875 41.3047 8.82422 41.2617 8.95703 41.2617C9.09961 41.2617 9.20312 41.3037 9.26758 41.3877C9.33203 41.4697 9.36426 41.5781 9.36426 41.7129ZM11.9307 39.6533C11.9307 39.5596 11.917 39.4951 11.8896 39.46C11.8623 39.4248 11.7871 39.4072 11.6641 39.4072C11.6211 39.4072 11.5635 39.416 11.4912 39.4336C11.4209 39.4492 11.3672 39.4619 11.3301 39.4717L11.374 39.2842C11.5264 39.2158 11.6621 39.1641 11.7812 39.1289C11.9023 39.0938 11.998 39.0762 12.0684 39.0762C12.2129 39.0762 12.3193 39.1113 12.3877 39.1816C12.458 39.25 12.4932 39.3457 12.4932 39.4688C12.4932 39.5801 12.4707 39.7275 12.4258 39.9111C12.3809 40.0947 12.3584 40.2119 12.3584 40.2627C12.3584 40.3799 12.3877 40.4717 12.4463 40.5381C12.5049 40.6045 12.5977 40.6377 12.7246 40.6377C12.8477 40.6377 12.9727 40.6074 13.0996 40.5469C13.2285 40.4844 13.3555 40.3945 13.4805 40.2773L13.75 39.123L14.2598 39.0879L14.2949 39.1318L13.8555 41.0186C13.8418 41.0752 13.8252 41.1494 13.8057 41.2412C13.7881 41.3311 13.7793 41.3945 13.7793 41.4316C13.7793 41.543 13.8037 41.6191 13.8525 41.6602C13.9014 41.6992 13.9814 41.7188 14.0928 41.7188C14.1299 41.7188 14.1826 41.7129 14.251 41.7012C14.3213 41.6875 14.375 41.6738 14.4121 41.6602L14.3682 41.8477C14.1924 41.918 14.0557 41.9688 13.958 42C13.8604 42.0332 13.7617 42.0498 13.6621 42.0498C13.5059 42.0498 13.3887 42.0098 13.3105 41.9297C13.2324 41.8477 13.1934 41.7471 13.1934 41.6279C13.1934 41.585 13.1973 41.5381 13.2051 41.4873C13.2148 41.4346 13.2275 41.3701 13.2432 41.2939L13.4189 40.5557H13.4014C13.2412 40.6904 13.0811 40.7959 12.9209 40.8721C12.7627 40.9482 12.5869 40.9863 12.3936 40.9863C12.2061 40.9863 12.0596 40.9346 11.9541 40.8311C11.8486 40.7256 11.7959 40.5947 11.7959 40.4385C11.7959 40.3623 11.8184 40.2246 11.8633 40.0254C11.9082 39.8262 11.9307 39.7021 11.9307 39.6533ZM19.6768 41.6689L19.6328 41.8564C19.4531 41.9287 19.3096 41.9785 19.2021 42.0059C19.0947 42.0352 19.0029 42.0498 18.9268 42.0498C18.7705 42.0498 18.6533 42.0098 18.5752 41.9297C18.4971 41.8477 18.458 41.7471 18.458 41.6279C18.458 41.585 18.4619 41.5381 18.4697 41.4873C18.4775 41.4346 18.4902 41.373 18.5078 41.3027L18.7949 40.21C18.8164 40.126 18.833 40.0498 18.8447 39.9814C18.8584 39.9131 18.8652 39.8584 18.8652 39.8174C18.8652 39.6865 18.8369 39.583 18.7803 39.5068C18.7236 39.4307 18.6338 39.3926 18.5107 39.3926C18.3799 39.3926 18.251 39.4238 18.124 39.4863C17.999 39.5469 17.8574 39.6611 17.6992 39.8291L17.1895 42H16.6445L17.1045 40.043C17.1143 40 17.123 39.9551 17.1309 39.9082C17.1406 39.8594 17.1455 39.8232 17.1455 39.7998C17.1455 39.6729 17.1133 39.5732 17.0488 39.501C16.9863 39.4287 16.8936 39.3926 16.7705 39.3926C16.6592 39.3926 16.5361 39.4209 16.4014 39.4775C16.2666 39.5322 16.1104 39.6562 15.9326 39.8496L15.4375 42H14.8926L15.3291 40.1016C15.3447 40.0332 15.3594 39.96 15.373 39.8818C15.3887 39.8037 15.3965 39.7373 15.3965 39.6826C15.3965 39.5693 15.3779 39.4951 15.3408 39.46C15.3037 39.4229 15.2314 39.4043 15.124 39.4043C15.0811 39.4043 15.0254 39.4121 14.957 39.4277C14.8906 39.4434 14.8389 39.4561 14.8018 39.4658L14.8457 39.2783C14.998 39.21 15.1328 39.1592 15.25 39.126C15.3672 39.0928 15.4678 39.0762 15.5518 39.0762C15.708 39.0762 15.8184 39.1191 15.8828 39.2051C15.9492 39.2891 15.9844 39.4043 15.9883 39.5508H16.0059C16.2363 39.3691 16.4258 39.2393 16.5742 39.1611C16.7227 39.083 16.8994 39.0439 17.1045 39.0439C17.2783 39.0439 17.4189 39.0947 17.5264 39.1963C17.6357 39.2959 17.6973 39.4219 17.7109 39.5742H17.7227C17.9316 39.4004 18.1172 39.2686 18.2793 39.1787C18.4434 39.0889 18.6338 39.0439 18.8506 39.0439C19.0381 39.0439 19.1816 39.0986 19.2812 39.208C19.3828 39.3154 19.4336 39.457 19.4336 39.6328C19.4336 39.668 19.4277 39.7305 19.416 39.8203C19.4062 39.9102 19.3896 39.999 19.3662 40.0869L19.1201 41.0273C19.1025 41.0898 19.0859 41.1621 19.0703 41.2441C19.0547 41.3242 19.0469 41.3867 19.0469 41.4316C19.0469 41.543 19.0703 41.6191 19.1172 41.6602C19.1641 41.6992 19.2432 41.7188 19.3545 41.7188C19.3916 41.7188 19.4453 41.7139 19.5156 41.7041C19.5859 41.6943 19.6396 41.6826 19.6768 41.6689ZM22.876 40.1953C22.876 40.4258 22.8369 40.6562 22.7588 40.8867C22.6807 41.1172 22.5674 41.3193 22.4189 41.4932C22.2686 41.6729 22.0869 41.8174 21.874 41.9268C21.6631 42.0342 21.418 42.0879 21.1387 42.0879C20.8145 42.0879 20.5508 41.9834 20.3477 41.7744C20.1465 41.5654 20.0459 41.2842 20.0459 40.9307C20.0459 40.6709 20.0889 40.4287 20.1748 40.2041C20.2607 39.9795 20.376 39.7822 20.5205 39.6123C20.667 39.4424 20.8477 39.3057 21.0625 39.2021C21.2793 39.0967 21.5137 39.0439 21.7656 39.0439C22.1133 39.0439 22.3848 39.1504 22.5801 39.3633C22.7773 39.5742 22.876 39.8516 22.876 40.1953ZM22.2783 40.084C22.2783 39.8066 22.2285 39.5986 22.1289 39.46C22.0312 39.3213 21.8896 39.252 21.7041 39.252C21.542 39.252 21.3887 39.3018 21.2441 39.4014C21.1016 39.501 20.9785 39.6631 20.875 39.8877C20.7949 40.0576 20.7363 40.2471 20.6992 40.4561C20.6621 40.6631 20.6436 40.8545 20.6436 41.0303C20.6436 41.3096 20.6914 41.5215 20.7871 41.666C20.8848 41.8086 21.0312 41.8799 21.2266 41.8799C21.4004 41.8799 21.5547 41.8252 21.6895 41.7158C21.8242 41.6064 21.9336 41.4678 22.0176 41.2998C22.1016 41.1357 22.166 40.9482 22.2109 40.7373C22.2559 40.5244 22.2783 40.3066 22.2783 40.084ZM25.8232 42.082C25.4814 42.082 25.2109 41.9824 25.0117 41.7832C24.8145 41.584 24.7158 41.3008 24.7158 40.9336C24.7158 40.6895 24.7529 40.4561 24.8271 40.2334C24.9033 40.0088 25.0088 39.8096 25.1436 39.6357C25.2783 39.4619 25.4482 39.3203 25.6533 39.2109C25.8604 39.0996 26.0898 39.0439 26.3418 39.0439C26.6211 39.0439 26.833 39.1035 26.9775 39.2227C27.124 39.3398 27.1973 39.4883 27.1973 39.668C27.1973 39.8027 27.165 39.9209 27.1006 40.0225C27.0381 40.124 26.9434 40.1748 26.8164 40.1748C26.7109 40.1748 26.6318 40.1484 26.5791 40.0957C26.5264 40.043 26.5 39.9844 26.5 39.9199C26.5 39.8574 26.5215 39.7725 26.5645 39.665C26.6074 39.5557 26.6416 39.4678 26.667 39.4014C26.6455 39.3486 26.5977 39.3105 26.5234 39.2871C26.4492 39.2617 26.3721 39.249 26.292 39.249C26.0264 39.249 25.7969 39.4043 25.6035 39.7148C25.4121 40.0234 25.3164 40.4023 25.3164 40.8516C25.3164 41.1289 25.3779 41.3496 25.501 41.5137C25.626 41.6758 25.7939 41.7568 26.0049 41.7568C26.1943 41.7568 26.3623 41.7061 26.5088 41.6045C26.6572 41.5029 26.7988 41.3594 26.9336 41.1738L27.1006 41.2969C26.9658 41.5098 26.7822 41.6943 26.5498 41.8506C26.3193 42.0049 26.0771 42.082 25.8232 42.082ZM30.1094 39.6387C30.1094 39.8262 30.043 39.9902 29.9102 40.1309C29.7793 40.2695 29.5781 40.3711 29.3066 40.4355L29.3037 40.4678C29.5146 40.4814 29.6865 40.54 29.8193 40.6436C29.9541 40.7471 30.0215 40.8857 30.0215 41.0596C30.0215 41.3623 29.8906 41.6094 29.6289 41.8008C29.3691 41.9922 29.0176 42.0879 28.5742 42.0879C28.2109 42.0879 27.9434 41.998 27.7715 41.8184C27.6016 41.6387 27.5166 41.3809 27.5166 41.0449C27.5166 40.7695 27.5518 40.5127 27.6221 40.2744C27.6924 40.0342 27.7979 39.8213 27.9385 39.6357C28.0752 39.4561 28.251 39.3125 28.4658 39.2051C28.6807 39.0977 28.9238 39.0439 29.1953 39.0439C29.3281 39.0439 29.4463 39.0547 29.5498 39.0762C29.6553 39.0977 29.752 39.1338 29.8398 39.1846C29.9238 39.2334 29.9893 39.2949 30.0361 39.3691C30.085 39.4414 30.1094 39.5312 30.1094 39.6387ZM29.5498 39.6855C29.5498 39.5508 29.5049 39.4453 29.415 39.3691C29.3252 39.291 29.2109 39.252 29.0723 39.252C28.9355 39.252 28.8145 39.2861 28.709 39.3545C28.6055 39.4229 28.5137 39.5195 28.4336 39.6445C28.3574 39.7617 28.2969 39.8896 28.252 40.0283C28.209 40.167 28.1729 40.3066 28.1436 40.4473L28.6797 40.3887C28.8535 40.3691 28.999 40.3369 29.1162 40.292C29.2334 40.2471 29.3232 40.1943 29.3857 40.1338C29.4463 40.0732 29.4883 40.0068 29.5117 39.9346C29.5371 39.8604 29.5498 39.7773 29.5498 39.6855ZM29.4355 41.0566C29.4355 40.9141 29.3828 40.8008 29.2773 40.7168C29.1738 40.6328 29.0029 40.5908 28.7646 40.5908C28.6592 40.5908 28.54 40.5996 28.4072 40.6172C28.2744 40.6348 28.1738 40.6494 28.1055 40.6611C28.0957 40.7256 28.0889 40.7959 28.085 40.8721C28.083 40.9482 28.082 41.0117 28.082 41.0625C28.082 41.2148 28.0996 41.3438 28.1348 41.4492C28.1719 41.5547 28.2178 41.6387 28.2725 41.7012C28.3271 41.7617 28.3906 41.8066 28.4629 41.8359C28.5352 41.8652 28.6084 41.8799 28.6826 41.8799C28.8213 41.8799 28.9395 41.8545 29.0371 41.8037C29.1367 41.7529 29.2158 41.6855 29.2744 41.6016C29.3291 41.5234 29.3691 41.4375 29.3945 41.3438C29.4219 41.248 29.4355 41.1523 29.4355 41.0566ZM33.3643 40.1953C33.3643 40.4258 33.3252 40.6562 33.2471 40.8867C33.1689 41.1172 33.0557 41.3193 32.9072 41.4932C32.7568 41.6729 32.5752 41.8174 32.3623 41.9268C32.1514 42.0342 31.9062 42.0879 31.627 42.0879C31.3027 42.0879 31.0391 41.9834 30.8359 41.7744C30.6348 41.5654 30.5342 41.2842 30.5342 40.9307C30.5342 40.6709 30.5771 40.4287 30.6631 40.2041C30.749 39.9795 30.8643 39.7822 31.0088 39.6123C31.1553 39.4424 31.3359 39.3057 31.5508 39.2021C31.7676 39.0967 32.002 39.0439 32.2539 39.0439C32.6016 39.0439 32.873 39.1504 33.0684 39.3633C33.2656 39.5742 33.3643 39.8516 33.3643 40.1953ZM32.7666 40.084C32.7666 39.8066 32.7168 39.5986 32.6172 39.46C32.5195 39.3213 32.3779 39.252 32.1924 39.252C32.0303 39.252 31.877 39.3018 31.7324 39.4014C31.5898 39.501 31.4668 39.6631 31.3633 39.8877C31.2832 40.0576 31.2246 40.2471 31.1875 40.4561C31.1504 40.6631 31.1318 40.8545 31.1318 41.0303C31.1318 41.3096 31.1797 41.5215 31.2754 41.666C31.373 41.8086 31.5195 41.8799 31.7148 41.8799C31.8887 41.8799 32.043 41.8252 32.1777 41.7158C32.3125 41.6064 32.4219 41.4678 32.5059 41.2998C32.5898 41.1357 32.6543 40.9482 32.6992 40.7373C32.7441 40.5244 32.7666 40.3066 32.7666 40.084ZM35.7549 41.1855C35.8467 40.9844 35.9209 40.7441 35.9775 40.4648C36.0361 40.1836 36.0713 39.9053 36.083 39.6299C35.9912 39.4932 35.8945 39.3965 35.793 39.3398C35.6934 39.2812 35.582 39.252 35.459 39.252C35.1562 39.252 34.8984 39.4307 34.6855 39.7881C34.4746 40.1455 34.3691 40.543 34.3691 40.9805C34.3691 41.2754 34.4121 41.499 34.498 41.6514C34.584 41.8037 34.7295 41.8799 34.9346 41.8799C35.1104 41.8799 35.2676 41.8154 35.4062 41.6865C35.5469 41.5576 35.6631 41.3906 35.7549 41.1855ZM36.6455 39.3574C36.6455 39.6953 36.6104 40.0352 36.54 40.377C36.4697 40.7168 36.3652 41.0078 36.2266 41.25C36.0645 41.5332 35.8721 41.7441 35.6494 41.8828C35.4287 42.0195 35.1748 42.0879 34.8877 42.0879C34.5439 42.0879 34.2705 41.9785 34.0674 41.7598C33.8662 41.5391 33.7656 41.248 33.7656 40.8867C33.7656 40.3887 33.9258 39.957 34.2461 39.5918C34.5684 39.2266 34.957 39.0439 35.4121 39.0439C35.5234 39.0439 35.6416 39.0596 35.7666 39.0908C35.8916 39.1221 35.998 39.1758 36.0859 39.252C36.0664 38.791 35.9736 38.4287 35.8076 38.165C35.6436 37.9014 35.4355 37.7695 35.1836 37.7695C35.0957 37.7695 35.0166 37.7783 34.9463 37.7959C34.8779 37.8115 34.8125 37.835 34.75 37.8662C34.707 37.8877 34.6641 37.916 34.6211 37.9512C34.5781 37.9863 34.5449 38.0117 34.5215 38.0273L34.4043 37.8896C34.5449 37.7471 34.6904 37.6406 34.8408 37.5703C34.9932 37.5 35.1611 37.4648 35.3447 37.4648C35.5264 37.4648 35.6943 37.5029 35.8486 37.5791C36.0029 37.6553 36.1406 37.7744 36.2617 37.9365C36.3828 38.0986 36.4766 38.2939 36.543 38.5225C36.6113 38.751 36.6455 39.0293 36.6455 39.3574ZM38.8252 41.5898H38.8076C38.7178 41.6621 38.6318 41.7285 38.5498 41.7891C38.4678 41.8496 38.3867 41.9004 38.3066 41.9414C38.2129 41.9883 38.1279 42.0215 38.0518 42.041C37.9756 42.0625 37.876 42.0732 37.7529 42.0732C37.5654 42.0732 37.4199 42.0195 37.3164 41.9121C37.2129 41.8027 37.1611 41.6602 37.1611 41.4844C37.1611 41.4375 37.165 41.3818 37.1729 41.3174C37.1807 41.2529 37.1992 41.1572 37.2285 41.0303L37.457 40.1016C37.4766 40.0156 37.4922 39.9395 37.5039 39.873C37.5176 39.8066 37.5244 39.7432 37.5244 39.6826C37.5244 39.5732 37.5059 39.501 37.4688 39.4658C37.4336 39.4287 37.3604 39.4102 37.249 39.4102C37.2061 39.4102 37.1514 39.418 37.085 39.4336C37.0186 39.4492 36.9668 39.4619 36.9297 39.4717L36.9736 39.2842C37.126 39.2158 37.2598 39.1641 37.375 39.1289C37.4922 39.0938 37.5859 39.0762 37.6562 39.0762C37.8125 39.0762 37.9268 39.1133 37.999 39.1875C38.0732 39.2598 38.1104 39.3633 38.1104 39.498C38.1104 39.5332 38.1064 39.5811 38.0986 39.6416C38.0908 39.7021 38.0791 39.7627 38.0635 39.8232L37.8027 40.9072C37.7832 40.9893 37.7666 41.0664 37.7529 41.1387C37.7412 41.209 37.7354 41.2627 37.7354 41.2998C37.7354 41.4307 37.7637 41.5342 37.8203 41.6104C37.877 41.6865 37.9668 41.7246 38.0898 41.7246C38.2148 41.7246 38.3428 41.6924 38.4736 41.6279C38.6064 41.5615 38.7393 41.4619 38.8721 41.3291L39.3848 39.123L39.8945 39.0879L39.9297 39.1318L39.4932 41.0186C39.4736 41.0986 39.4561 41.1797 39.4404 41.2617C39.4248 41.3418 39.417 41.3984 39.417 41.4316C39.417 41.543 39.4404 41.6191 39.4873 41.6602C39.5361 41.6992 39.6162 41.7188 39.7275 41.7188C39.7646 41.7188 39.8174 41.7129 39.8857 41.7012C39.9541 41.6895 40.0068 41.6768 40.0439 41.6631L40 41.8506C39.8379 41.917 39.7021 41.9668 39.5928 42C39.4854 42.0332 39.3857 42.0498 39.2939 42.0498C39.1357 42.0498 39.0176 42.0039 38.9395 41.9121C38.8633 41.8203 38.8252 41.7129 38.8252 41.5898ZM45.3115 41.6689L45.2676 41.8564C45.0879 41.9287 44.9443 41.9785 44.8369 42.0059C44.7295 42.0352 44.6377 42.0498 44.5615 42.0498C44.4053 42.0498 44.2881 42.0098 44.21 41.9297C44.1318 41.8477 44.0928 41.7471 44.0928 41.6279C44.0928 41.585 44.0967 41.5381 44.1045 41.4873C44.1123 41.4346 44.125 41.373 44.1426 41.3027L44.4297 40.21C44.4512 40.126 44.4678 40.0498 44.4795 39.9814C44.4932 39.9131 44.5 39.8584 44.5 39.8174C44.5 39.6865 44.4717 39.583 44.415 39.5068C44.3584 39.4307 44.2686 39.3926 44.1455 39.3926C44.0146 39.3926 43.8857 39.4238 43.7588 39.4863C43.6338 39.5469 43.4922 39.6611 43.334 39.8291L42.8242 42H42.2793L42.7393 40.043C42.749 40 42.7578 39.9551 42.7656 39.9082C42.7754 39.8594 42.7803 39.8232 42.7803 39.7998C42.7803 39.6729 42.748 39.5732 42.6836 39.501C42.6211 39.4287 42.5283 39.3926 42.4053 39.3926C42.2939 39.3926 42.1709 39.4209 42.0361 39.4775C41.9014 39.5322 41.7451 39.6562 41.5674 39.8496L41.0723 42H40.5273L40.9639 40.1016C40.9795 40.0332 40.9941 39.96 41.0078 39.8818C41.0234 39.8037 41.0312 39.7373 41.0312 39.6826C41.0312 39.5693 41.0127 39.4951 40.9756 39.46C40.9385 39.4229 40.8662 39.4043 40.7588 39.4043C40.7158 39.4043 40.6602 39.4121 40.5918 39.4277C40.5254 39.4434 40.4736 39.4561 40.4365 39.4658L40.4805 39.2783C40.6328 39.21 40.7676 39.1592 40.8848 39.126C41.002 39.0928 41.1025 39.0762 41.1865 39.0762C41.3428 39.0762 41.4531 39.1191 41.5176 39.2051C41.584 39.2891 41.6191 39.4043 41.623 39.5508H41.6406C41.8711 39.3691 42.0605 39.2393 42.209 39.1611C42.3574 39.083 42.5342 39.0439 42.7393 39.0439C42.9131 39.0439 43.0537 39.0947 43.1611 39.1963C43.2705 39.2959 43.332 39.4219 43.3457 39.5742H43.3574C43.5664 39.4004 43.752 39.2686 43.9141 39.1787C44.0781 39.0889 44.2686 39.0439 44.4854 39.0439C44.6729 39.0439 44.8164 39.0986 44.916 39.208C45.0176 39.3154 45.0684 39.457 45.0684 39.6328C45.0684 39.668 45.0625 39.7305 45.0508 39.8203C45.041 39.9102 45.0244 39.999 45.001 40.0869L44.7549 41.0273C44.7373 41.0898 44.7207 41.1621 44.7051 41.2441C44.6895 41.3242 44.6816 41.3867 44.6816 41.4316C44.6816 41.543 44.7051 41.6191 44.752 41.6602C44.7988 41.6992 44.8779 41.7188 44.9893 41.7188C45.0264 41.7188 45.0801 41.7139 45.1504 41.7041C45.2207 41.6943 45.2744 41.6826 45.3115 41.6689ZM48.7393 41.9531C48.6943 41.4473 48.6533 41.0469 48.6162 40.752C48.5811 40.457 48.5264 40.127 48.4521 39.7617H48.4229C48.3428 40.1992 48.2432 40.5645 48.124 40.8574C48.0049 41.1484 47.8799 41.3828 47.749 41.5605C47.626 41.7305 47.5049 41.8555 47.3857 41.9355C47.2686 42.0156 47.1709 42.0557 47.0928 42.0557C46.9834 42.0557 46.9062 42.0254 46.8613 41.9648C46.8164 41.9043 46.7939 41.8291 46.7939 41.7393C46.7939 41.6631 46.8223 41.5889 46.8789 41.5166C46.9355 41.4443 47.0146 41.4082 47.1162 41.4082C47.1689 41.4082 47.2266 41.4199 47.2891 41.4434C47.3516 41.4668 47.415 41.4961 47.4795 41.5312C47.6924 41.2695 47.8643 40.9297 47.9951 40.5117C48.126 40.0918 48.2031 39.709 48.2266 39.3633H47.7168L47.7754 39.1523L48.7393 39.0938C48.8369 39.4141 48.9219 39.7471 48.9941 40.0928C49.0664 40.4385 49.1201 40.8193 49.1553 41.2354L50.5176 39.1348L51.0479 39.0879L51.083 39.1318L50.6582 41.0186C50.6445 41.0771 50.6289 41.1514 50.6113 41.2412C50.5957 41.3311 50.5879 41.3945 50.5879 41.4316C50.5879 41.543 50.6123 41.6191 50.6611 41.6602C50.71 41.6992 50.79 41.7188 50.9014 41.7188C50.9385 41.7188 50.9902 41.7129 51.0566 41.7012C51.125 41.6875 51.1777 41.6738 51.2148 41.6602L51.1709 41.8477C50.9951 41.918 50.8613 41.9688 50.7695 42C50.6777 42.0332 50.582 42.0498 50.4824 42.0498C50.3262 42.0498 50.2109 42.0098 50.1367 41.9297C50.0645 41.8477 50.0283 41.7471 50.0283 41.6279C50.0283 41.5811 50.0312 41.5342 50.0371 41.4873C50.043 41.4404 50.0547 41.376 50.0723 41.2939L50.4531 39.6885L50.4238 39.6768L48.9268 41.9531H48.7393ZM54.3994 40.1953C54.3994 40.4258 54.3604 40.6562 54.2822 40.8867C54.2041 41.1172 54.0908 41.3193 53.9424 41.4932C53.792 41.6729 53.6104 41.8174 53.3975 41.9268C53.1865 42.0342 52.9414 42.0879 52.6621 42.0879C52.3379 42.0879 52.0742 41.9834 51.8711 41.7744C51.6699 41.5654 51.5693 41.2842 51.5693 40.9307C51.5693 40.6709 51.6123 40.4287 51.6982 40.2041C51.7842 39.9795 51.8994 39.7822 52.0439 39.6123C52.1904 39.4424 52.3711 39.3057 52.5859 39.2021C52.8027 39.0967 53.0371 39.0439 53.2891 39.0439C53.6367 39.0439 53.9082 39.1504 54.1035 39.3633C54.3008 39.5742 54.3994 39.8516 54.3994 40.1953ZM53.8018 40.084C53.8018 39.8066 53.752 39.5986 53.6523 39.46C53.5547 39.3213 53.4131 39.252 53.2275 39.252C53.0654 39.252 52.9121 39.3018 52.7676 39.4014C52.625 39.501 52.502 39.6631 52.3984 39.8877C52.3184 40.0576 52.2598 40.2471 52.2227 40.4561C52.1855 40.6631 52.167 40.8545 52.167 41.0303C52.167 41.3096 52.2148 41.5215 52.3105 41.666C52.4082 41.8086 52.5547 41.8799 52.75 41.8799C52.9238 41.8799 53.0781 41.8252 53.2129 41.7158C53.3477 41.6064 53.457 41.4678 53.541 41.2998C53.625 41.1357 53.6895 40.9482 53.7344 40.7373C53.7793 40.5244 53.8018 40.3066 53.8018 40.084ZM55.8994 42.082C55.5576 42.082 55.2871 41.9824 55.0879 41.7832C54.8906 41.584 54.792 41.3008 54.792 40.9336C54.792 40.6895 54.8291 40.4561 54.9033 40.2334C54.9795 40.0088 55.085 39.8096 55.2197 39.6357C55.3545 39.4619 55.5244 39.3203 55.7295 39.2109C55.9365 39.0996 56.166 39.0439 56.418 39.0439C56.6973 39.0439 56.9092 39.1035 57.0537 39.2227C57.2002 39.3398 57.2734 39.4883 57.2734 39.668C57.2734 39.8027 57.2412 39.9209 57.1768 40.0225C57.1143 40.124 57.0195 40.1748 56.8926 40.1748C56.7871 40.1748 56.708 40.1484 56.6553 40.0957C56.6025 40.043 56.5762 39.9844 56.5762 39.9199C56.5762 39.8574 56.5977 39.7725 56.6406 39.665C56.6836 39.5557 56.7178 39.4678 56.7432 39.4014C56.7217 39.3486 56.6738 39.3105 56.5996 39.2871C56.5254 39.2617 56.4482 39.249 56.3682 39.249C56.1025 39.249 55.873 39.4043 55.6797 39.7148C55.4883 40.0234 55.3926 40.4023 55.3926 40.8516C55.3926 41.1289 55.4541 41.3496 55.5771 41.5137C55.7021 41.6758 55.8701 41.7568 56.0811 41.7568C56.2705 41.7568 56.4385 41.7061 56.585 41.6045C56.7334 41.5029 56.875 41.3594 57.0098 41.1738L57.1768 41.2969C57.042 41.5098 56.8584 41.6943 56.626 41.8506C56.3955 42.0049 56.1533 42.082 55.8994 42.082ZM62.4268 41.6689L62.3828 41.8564C62.2031 41.9287 62.0596 41.9785 61.9521 42.0059C61.8447 42.0352 61.7529 42.0498 61.6768 42.0498C61.5205 42.0498 61.4033 42.0098 61.3252 41.9297C61.2471 41.8477 61.208 41.7471 61.208 41.6279C61.208 41.585 61.2119 41.5381 61.2197 41.4873C61.2275 41.4346 61.2402 41.373 61.2578 41.3027L61.5449 40.21C61.5664 40.126 61.583 40.0498 61.5947 39.9814C61.6084 39.9131 61.6152 39.8584 61.6152 39.8174C61.6152 39.6865 61.5869 39.583 61.5303 39.5068C61.4736 39.4307 61.3838 39.3926 61.2607 39.3926C61.1299 39.3926 61.001 39.4238 60.874 39.4863C60.749 39.5469 60.6074 39.6611 60.4492 39.8291L59.9395 42H59.3945L59.8545 40.043C59.8643 40 59.873 39.9551 59.8809 39.9082C59.8906 39.8594 59.8955 39.8232 59.8955 39.7998C59.8955 39.6729 59.8633 39.5732 59.7988 39.501C59.7363 39.4287 59.6436 39.3926 59.5205 39.3926C59.4092 39.3926 59.2861 39.4209 59.1514 39.4775C59.0166 39.5322 58.8604 39.6562 58.6826 39.8496L58.1875 42H57.6426L58.0791 40.1016C58.0947 40.0332 58.1094 39.96 58.123 39.8818C58.1387 39.8037 58.1465 39.7373 58.1465 39.6826C58.1465 39.5693 58.1279 39.4951 58.0908 39.46C58.0537 39.4229 57.9814 39.4043 57.874 39.4043C57.8311 39.4043 57.7754 39.4121 57.707 39.4277C57.6406 39.4434 57.5889 39.4561 57.5518 39.4658L57.5957 39.2783C57.748 39.21 57.8828 39.1592 58 39.126C58.1172 39.0928 58.2178 39.0762 58.3018 39.0762C58.458 39.0762 58.5684 39.1191 58.6328 39.2051C58.6992 39.2891 58.7344 39.4043 58.7383 39.5508H58.7559C58.9863 39.3691 59.1758 39.2393 59.3242 39.1611C59.4727 39.083 59.6494 39.0439 59.8545 39.0439C60.0283 39.0439 60.1689 39.0947 60.2764 39.1963C60.3857 39.2959 60.4473 39.4219 60.4609 39.5742H60.4727C60.6816 39.4004 60.8672 39.2686 61.0293 39.1787C61.1934 39.0889 61.3838 39.0439 61.6006 39.0439C61.7881 39.0439 61.9316 39.0986 62.0312 39.208C62.1328 39.3154 62.1836 39.457 62.1836 39.6328C62.1836 39.668 62.1777 39.7305 62.166 39.8203C62.1562 39.9102 62.1396 39.999 62.1162 40.0869L61.8701 41.0273C61.8525 41.0898 61.8359 41.1621 61.8203 41.2441C61.8047 41.3242 61.7969 41.3867 61.7969 41.4316C61.7969 41.543 61.8203 41.6191 61.8672 41.6602C61.9141 41.6992 61.9932 41.7188 62.1045 41.7188C62.1416 41.7188 62.1953 41.7139 62.2656 41.7041C62.3359 41.6943 62.3896 41.6826 62.4268 41.6689ZM64.7295 40.9951C64.7295 40.8213 64.6816 40.6885 64.5859 40.5967C64.4902 40.5029 64.3604 40.4561 64.1963 40.4561C64.1104 40.4561 64.0205 40.4658 63.9268 40.4854C63.835 40.5029 63.7695 40.5166 63.7305 40.5264L63.6104 40.9863C63.5928 41.0488 63.5762 41.127 63.5605 41.2207C63.5469 41.3145 63.54 41.3906 63.54 41.4492C63.54 41.5996 63.5811 41.709 63.6631 41.7773C63.7471 41.8457 63.8467 41.8799 63.9619 41.8799C64.1123 41.8799 64.2373 41.8486 64.3369 41.7861C64.4385 41.7236 64.5166 41.6484 64.5713 41.5605C64.624 41.4766 64.6631 41.3838 64.6885 41.2822C64.7158 41.1807 64.7295 41.085 64.7295 40.9951ZM65.333 40.9688C65.333 41.2988 65.1992 41.5684 64.9316 41.7773C64.666 41.9844 64.3096 42.0879 63.8623 42.0879C63.583 42.0879 63.3701 42.0322 63.2236 41.9209C63.0771 41.8076 63.0039 41.6523 63.0039 41.4551C63.0039 41.4082 63.0068 41.3564 63.0127 41.2998C63.0186 41.2412 63.0371 41.1504 63.0684 41.0273L63.3232 40.0811C63.3428 40.0029 63.3613 39.9238 63.3789 39.8438C63.3965 39.7617 63.4053 39.6973 63.4053 39.6504C63.4053 39.5469 63.3857 39.4775 63.3467 39.4424C63.3076 39.4072 63.2324 39.3896 63.1211 39.3896C63.0781 39.3896 63.0205 39.3965 62.9482 39.4102C62.8779 39.4238 62.8242 39.4355 62.7871 39.4453L62.8311 39.2578C62.9854 39.1895 63.123 39.1387 63.2441 39.1055C63.3652 39.0723 63.4609 39.0557 63.5312 39.0557C63.6914 39.0557 63.8047 39.0938 63.8711 39.1699C63.9395 39.2441 63.9736 39.3457 63.9736 39.4746C63.9736 39.5137 63.9688 39.5625 63.959 39.6211C63.9512 39.6797 63.9385 39.7402 63.9209 39.8027L63.7773 40.3066C63.832 40.2988 63.9121 40.2881 64.0176 40.2744C64.123 40.2607 64.2129 40.2539 64.2871 40.2539C64.6191 40.2539 64.876 40.3145 65.0576 40.4355C65.2412 40.5566 65.333 40.7344 65.333 40.9688ZM66.8652 41.6602L66.8213 41.8477C66.6455 41.918 66.5088 41.9688 66.4111 42C66.3154 42.0332 66.2178 42.0498 66.1182 42.0498C65.9619 42.0498 65.8457 42.0098 65.7695 41.9297C65.6934 41.8477 65.6553 41.7471 65.6553 41.6279C65.6553 41.5811 65.6582 41.5352 65.6641 41.4902C65.6719 41.4453 65.6846 41.3799 65.7021 41.2939L66.1797 39.123L66.6953 39.0879L66.7305 39.1377L66.3027 41.0186C66.2891 41.0771 66.2734 41.1523 66.2559 41.2441C66.2383 41.334 66.2295 41.3965 66.2295 41.4316C66.2295 41.543 66.2539 41.6191 66.3027 41.6602C66.3535 41.6992 66.4346 41.7188 66.5459 41.7188C66.583 41.7188 66.6357 41.7129 66.7041 41.7012C66.7744 41.6875 66.8281 41.6738 66.8652 41.6602Z" fill="white"/>
<path d="M2 17H36.8824C42.0496 19.6466 46.4602 22.9363 49 27C51.5398 22.9363 55.9504 19.6466 61.1176 17H96L98 7C98 7 76.2949 9.22616 61.1176 17H36.8824C21.7051 9.22616 0 7 0 7L2 17Z" fill="white"/>
<path d="M101.179 4.08105L101.287 4.03125C101.354 4.00195 101.425 3.9375 101.495 3.84082C101.565 3.74414 101.601 3.63281 101.601 3.50977C101.601 3.31641 101.527 3.14648 101.381 3.00293C101.234 2.8623 101.056 2.78906 100.851 2.78906H99.9189V5.00977H100.37V4.16895H100.76L101.211 5.00977H101.691L101.179 4.08105ZM100.37 3.21094H100.851C100.938 3.21094 101.009 3.2373 101.064 3.29004C101.12 3.34277 101.149 3.4043 101.149 3.48047C101.149 3.55664 101.12 3.62109 101.064 3.67383C101.009 3.72656 100.938 3.75 100.851 3.75H100.37V3.21094ZM102.441 3.89941C102.441 4.37988 102.269 4.79004 101.929 5.12988C101.589 5.46973 101.179 5.63965 100.698 5.63965C100.218 5.63965 99.8105 5.46973 99.4707 5.12988C99.1309 4.79004 98.9609 4.37988 98.9609 3.89941C98.9609 3.41895 99.1309 3.00879 99.4707 2.66895C99.8105 2.3291 100.218 2.15918 100.698 2.15918C101.179 2.15918 101.589 2.3291 101.929 2.66895C102.269 3.00879 102.441 3.41895 102.441 3.89941ZM102.919 3.89941C102.919 3.2959 102.705 2.78613 102.28 2.36719C101.853 1.95117 101.325 1.74023 100.698 1.74023C100.071 1.74023 99.5439 1.95117 99.1191 2.36719C98.6914 2.78613 98.4805 3.2959 98.4805 3.89941C98.4805 4.50293 98.6914 5.01562 99.1191 5.43164C99.5439 5.85059 100.071 6.05859 100.698 6.05859C101.325 6.05859 101.853 5.85059 102.28 5.43164C102.705 5.01562 102.919 4.50293 102.919 3.89941Z" fill="white"/>
</svg>
