<svg width="266" height="50" viewBox="0 0 266 50" fill="none" xmlns="http://www.w3.org/2000/svg">
<path d="M0 13.7623C0 9.80878 3.3724 6.58993 7.51814 6.58993C11.6647 6.58993 15.0355 9.808 15.0355 13.7623C15.0355 14.2096 14.9872 14.6476 14.9054 15.0723C13.6991 14.5883 12.3775 14.3197 10.9904 14.3197C7.33483 14.3197 4.1351 16.1817 2.3552 18.9602C0.908364 17.6533 0 15.8085 0 13.7623ZM12.6189 23.9801C12.6189 21.663 13.479 19.5364 14.9078 17.8688C13.7654 17.1997 12.4258 16.807 10.9896 16.807C6.84383 16.807 3.47224 20.0235 3.47224 23.9801C3.47224 27.9336 6.84383 31.1525 10.9896 31.1525C12.4258 31.1525 13.7654 30.759 14.9078 30.0899C13.479 28.4231 12.6189 26.2949 12.6189 23.9801ZM26.2255 23.4204C22.5667 23.4204 19.3662 21.5553 17.5871 18.7721C16.1361 20.0813 15.227 21.9285 15.227 23.9794C15.227 27.9329 18.5977 31.1517 22.7435 31.1517C26.8892 31.1517 30.2624 27.9329 30.2624 23.9794C30.2624 23.5312 30.2125 23.0956 30.1307 22.6717C28.9269 23.1542 27.6085 23.4204 26.2255 23.4204ZM26.9612 6.62663C26.9727 6.81009 26.9923 6.98888 26.9923 7.17234C26.9923 11.6981 23.7058 15.4978 19.2958 16.54C20.4341 19.1203 23.1101 20.9346 26.2255 20.9346C30.3713 20.9346 33.7437 17.715 33.7437 13.7615C33.7429 10.0461 30.7616 6.98029 26.9612 6.62663ZM16.8661 0C13.7539 0 11.0763 1.81436 9.93717 4.39381C14.353 5.43215 17.6427 9.23262 17.6427 13.7623C17.6427 13.9442 17.6329 14.1261 17.6214 14.3088C21.4137 13.945 24.3843 10.883 24.3843 7.17234C24.3843 3.21885 21.0127 0 16.8661 0Z" fill="#A58069"/>
<path d="M46.9696 7.58386C46.6881 7.58386 46.2511 7.76187 46.1267 7.85165C46.0326 7.94143 45.8763 8.26854 45.8469 8.954C45.8133 9.55046 45.8133 13.2463 45.7822 16.6424C45.7822 19.3546 45.8469 21.2907 45.8469 22.0363C45.8771 23.8553 45.9704 24.3917 47.7806 24.8367C48.4058 24.9561 48.6554 25.195 48.6554 25.4644C48.6554 25.7017 48.126 25.8805 47.6873 25.8805C46.8755 25.8805 45.094 25.7017 43.7208 25.7017C42.8149 25.7017 41.2846 25.8204 40.3173 25.8204C39.5996 25.8204 39.1602 25.6728 39.1602 25.3434C39.1602 25.1349 39.5996 24.896 39.9098 24.807C41.4393 24.4494 41.8149 24.0021 41.909 22.6312C42.0039 21.4406 42.0972 19.5029 42.0972 17.9821C42.0972 17.0296 42.0972 10.3538 42.035 9.49035C41.9417 8.44811 41.7838 7.97109 40.0669 7.76187C39.6602 7.70253 39.3484 7.49486 39.3484 7.3153C39.3484 7.07641 39.6299 6.8984 40.0047 6.83907C40.1905 6.81019 40.7543 6.81018 41.0358 6.81018C43.035 6.81018 45.5956 6.57129 47.0007 6.57129C50 6.57129 52.0303 7.10763 53.3102 8.29821C54.7775 9.66991 55.1228 11.2789 55.1228 12.3212C55.1228 14.7656 53.9665 16.0772 53.0606 16.8212C52.2471 17.477 50.5294 18.1616 49.3117 18.1616C48.9689 18.1616 48.0932 18.1039 47.6881 17.9532C47.2495 17.7744 47.0318 17.6269 47.0318 17.3583C47.0318 17.2381 47.2495 17.0601 47.5007 17.0601H47.9697C49.2806 17.0601 51.2193 15.5697 51.2193 12.4711C51.2185 10.0868 49.5319 7.58386 46.9696 7.58386Z" fill="#A58069"/>
<path d="M78.9014 15.9876C78.9014 19.8903 77.1534 22.4245 74.966 24.0921C73.1853 25.4037 70.5297 26.2367 68.1254 26.2367C64.8455 26.2367 61.9715 25.0461 60.005 23.0499C58.3167 21.3206 57.3184 18.9676 57.3184 16.2242C57.3184 12.5892 59.0042 10.2658 61.3471 8.47721C62.753 7.43419 65.3774 6.33105 67.9994 6.33105C74.903 6.33184 78.9014 11.2183 78.9014 15.9876ZM63.7203 8.89489C62.6589 9.87858 61.5328 12.0232 61.5328 15.5699C61.5328 20.1581 64.4707 25.1351 69.0305 25.1351C70.7491 25.1351 71.8104 24.3006 72.2163 23.9125C73.5282 22.6611 74.6215 20.0996 74.6215 16.9104C74.6215 14.5566 73.6534 10.9809 71.3735 8.98389C70.3104 8.09076 68.6254 7.37486 67.2506 7.37486C65.8431 7.37564 64.4404 8.21021 63.7203 8.89489Z" fill="#A58069"/>
<path d="M97.5644 6.8108C98.3132 6.9888 99.0955 7.16758 99.8132 7.25736C100.032 7.25736 100.282 7.61493 100.282 8.06227C100.312 8.89528 100.376 9.93831 100.438 10.8033C100.47 11.4287 100.25 11.9353 99.9081 11.9353C99.7518 11.9353 99.4711 11.5778 99.3132 11.1304C99.0014 10.2076 98.5325 9.40274 98.0006 9.01473C96.6585 7.94282 95.066 7.28625 93.3794 7.28625C88.4128 7.28625 86.0707 11.0414 86.0707 15.5703C86.0707 17.5674 86.4455 19.2951 87.1329 20.6066C88.8506 23.8848 91.6927 25.0473 94.1298 25.0473C94.5357 25.0473 96.066 24.988 97.1593 24.3611C98.314 23.7365 99.1569 22.8707 99.8762 21.6504C100.251 20.9947 100.47 20.7253 100.721 20.7253C101.063 20.7253 101.063 21.5006 100.968 21.8292C100.813 22.5725 100.313 23.8848 100.032 24.422C99.9376 24.6897 99.377 25.166 98.9073 25.3744C98.4703 25.5227 96.3156 26.2371 93.4415 26.2371C88.8171 26.2371 85.5388 24.2713 84.2581 22.8707C83.0706 21.5607 81.6328 19.4746 81.6328 16.1668C81.6328 12.5607 83.7572 10.0281 85.069 9.01395C87.7238 6.92869 90.9407 6.33301 93.5029 6.33301C94.9399 6.33301 96.44 6.54146 97.5644 6.8108Z" fill="#A58069"/>
<path d="M103.954 6.66149C104.703 6.66149 106.204 6.80982 107.171 6.80982C108.108 6.80982 109.919 6.69038 110.669 6.69038C111.294 6.69038 111.638 6.84027 111.638 7.10805C111.638 7.37583 111.169 7.52495 110.826 7.61551C109.607 7.94263 109.357 8.09174 109.264 9.43221C109.201 10.5353 109.233 13.8721 109.233 15.2727C109.233 15.3921 109.326 15.5701 109.45 15.5701C111.137 15.4507 112.168 14.9448 113.292 13.2155C114.167 11.8454 114.792 10.7118 115.573 9.55088C116.823 7.5835 118.323 6.33203 120.009 6.33203C121.07 6.33203 121.633 6.74893 121.633 7.5835C121.633 7.85128 121.413 8.35874 121.226 8.53752C120.977 8.80453 120.695 8.86542 120.32 8.80453C119.977 8.74519 119.572 8.65619 119.258 8.65619C117.415 8.65619 116.604 9.90766 115.729 11.2185C114.854 12.5308 114.166 13.5739 113.698 14.1992C113.666 14.2585 113.666 14.378 113.698 14.4365C114.418 15.7473 117.196 19.9499 118.571 21.6776C120.633 24.2703 121.444 24.4795 123.101 24.8363C123.288 24.8949 123.601 25.0159 123.601 25.165C123.601 25.432 123.414 25.6116 122.976 25.7318C122.537 25.8504 121.82 25.8793 121.103 25.8793C118.354 25.8793 117.011 25.4632 115.791 23.9127C114.635 22.5426 113.323 20.6057 111.888 18.4298C110.855 16.8505 110.45 16.3438 109.45 16.3141C109.294 16.3141 109.263 16.5241 109.233 16.6717C109.233 19.0864 109.326 22.2155 109.357 23.3171C109.39 23.9127 109.544 24.3593 110.919 24.6888C111.481 24.8371 111.826 25.0463 111.826 25.2844C111.826 25.5538 111.294 25.7326 110.796 25.7326C110.108 25.7326 107.952 25.6724 106.984 25.6724C106.016 25.6724 104.453 25.7911 103.453 25.7911C102.986 25.7911 102.611 25.5538 102.611 25.343C102.611 25.0768 102.861 24.9261 103.548 24.7785C105.048 24.4499 105.391 24.0322 105.486 22.2155C105.548 20.7243 105.548 18.6695 105.548 15.4803C105.548 11.9937 105.486 10.8609 105.454 9.789C105.421 8.38919 105.142 8.0004 104.049 7.70295C103.237 7.4945 103.016 7.28605 103.016 7.07682C103.016 6.80982 103.518 6.66149 103.954 6.66149Z" fill="#A58069"/>
<path d="M144.791 15.9876C144.791 19.8903 143.04 22.4245 140.854 24.0921C139.074 25.4037 136.418 26.2367 134.014 26.2367C130.733 26.2367 127.861 25.0461 125.892 23.0499C124.206 21.3206 123.207 18.9676 123.207 16.2242C123.207 12.5892 124.894 10.2658 127.237 8.47721C128.642 7.43419 131.264 6.33105 133.89 6.33105C140.792 6.33184 144.791 11.2183 144.791 15.9876ZM129.61 8.89489C128.548 9.87858 127.423 12.0232 127.423 15.5699C127.423 20.1581 130.359 25.1351 134.92 25.1351C136.639 25.1351 137.699 24.3006 138.107 23.9125C139.418 22.6611 140.513 20.0996 140.513 16.9104C140.513 14.5566 139.543 10.9809 137.264 8.98389C136.201 8.09076 134.514 7.37486 133.14 7.37486C131.734 7.37564 130.327 8.21021 129.61 8.89489Z" fill="#A58069"/>
<path d="M153.204 15.3329C155.328 15.3329 159.451 15.2126 162.73 15.2126C162.856 15.2126 162.981 14.916 163.012 14.4678C163.075 14.0814 163.075 10.5948 162.95 9.43307C162.825 8.3596 162.668 8.06293 161.418 7.73269C160.983 7.61559 160.513 7.43602 160.513 7.13701C160.513 6.92935 160.827 6.74979 161.544 6.74979C161.95 6.74979 164.262 6.84035 165.074 6.84035C166.074 6.84035 168.042 6.72168 168.416 6.72168C169.011 6.72168 169.385 6.87001 169.385 7.10813C169.385 7.40636 169.103 7.58514 168.385 7.76314C167.261 8.00282 167.073 8.47905 167.01 9.34251C166.855 10.7439 166.76 13.4256 166.76 17.6578C166.76 20.5784 166.854 22.1281 166.885 23.1102C166.916 24.2719 167.229 24.3617 168.48 24.7489C169.041 24.9285 169.353 25.137 169.353 25.3759C169.353 25.703 168.914 25.792 168.352 25.792C167.821 25.792 166.135 25.703 165.197 25.703C164.51 25.703 162.011 25.8521 161.386 25.8521C160.638 25.8521 160.326 25.703 160.326 25.4336C160.326 25.1666 160.732 24.9285 161.169 24.8083C162.698 24.4211 162.761 24.1845 162.919 21.9774C163.012 20.7861 163.043 17.9841 162.98 17.18C162.98 16.9122 162.856 16.792 162.729 16.792C160.23 16.792 153.828 16.7038 153.204 16.7631C153.047 16.792 152.796 17.0309 152.796 17.2097C152.735 18.3128 152.796 21.5012 152.829 22.4545C152.859 23.8566 153.047 24.3024 154.326 24.6599C154.983 24.8387 155.421 25.0784 155.421 25.4055C155.452 25.703 154.827 25.7927 154.42 25.7927C154.201 25.7927 151.61 25.7038 150.516 25.7038C149.797 25.7038 148.205 25.8232 147.143 25.8232C146.331 25.8232 146.049 25.6749 146.049 25.4352C146.049 25.1089 146.394 24.9301 146.924 24.781C148.299 24.4234 148.578 24.0947 148.735 22.8432C148.86 21.6527 149.016 17.2112 149.016 13.1289C149.016 12.235 149.078 10.5963 149.016 9.40418C148.954 8.42128 148.673 8.09338 147.642 7.79515C146.924 7.5867 146.58 7.37747 146.58 7.13858C146.58 6.84191 146.986 6.72324 147.55 6.72324C148.392 6.72324 150.109 6.84191 150.921 6.84191C152.234 6.84191 153.64 6.75135 154.389 6.75135C155.043 6.75135 155.42 6.87157 155.42 7.13858C155.42 7.46725 155.015 7.64603 154.357 7.79515C153.046 8.06371 152.951 8.62894 152.92 9.85075C152.858 10.9234 152.733 14.3796 152.828 14.9464C152.86 15.183 152.985 15.3329 153.204 15.3329Z" fill="#A58069"/>
<path d="M186.496 6.63086C186.715 6.63086 186.903 6.77997 186.903 6.95876C186.841 7.823 186.871 9.73026 186.903 10.7444C186.934 11.1308 186.715 11.6969 186.466 11.6969C186.217 11.6969 185.902 11.5485 185.715 10.8631C185.309 9.55148 184.747 8.18056 183.591 8.06267C182.623 7.94322 180.28 7.97289 179.625 8.00256C179.001 8.00256 178.844 8.18134 178.844 8.47879C178.718 10.0285 178.718 12.7102 178.718 14.7065C178.718 16.7925 178.75 20.7874 178.75 22.9015C178.782 24.185 179.28 24.4817 180.719 24.8088C181.186 24.9571 181.528 25.1664 181.528 25.4045C181.528 25.6426 181.154 25.8526 180.592 25.8526C179.812 25.8526 177.907 25.7035 176.719 25.7035C175.563 25.7035 173.597 25.8823 172.971 25.8823C172.472 25.8823 172.129 25.6137 172.129 25.4662C172.129 25.1375 172.503 24.929 173.065 24.8096C174.409 24.5129 174.534 24.0047 174.595 23.32C174.69 22.3949 174.94 20.6086 174.94 14.7674C174.94 11.9966 174.94 10.1792 174.877 9.40392C174.815 8.42024 174.595 8.06345 173.378 7.79411C172.69 7.61533 172.441 7.43655 172.441 7.13832C172.441 6.92987 172.879 6.75031 173.346 6.75031C174.721 6.75031 175.94 6.84009 177.187 6.84009H181.249C185.371 6.83931 186.121 6.72064 186.496 6.63086Z" fill="#A58069"/>
<path d="M197.179 7.58386C196.899 7.58386 196.459 7.76187 196.336 7.85165C196.242 7.94143 196.086 8.26854 196.054 8.954C196.025 9.55046 196.025 13.2463 195.992 16.6424C195.992 19.3546 196.054 21.2907 196.054 22.0363C196.086 23.8553 196.179 24.3917 197.991 24.8367C198.616 24.9561 198.866 25.195 198.866 25.4644C198.866 25.7017 198.334 25.8805 197.897 25.8805C197.083 25.8805 195.305 25.7017 193.931 25.7017C193.023 25.7017 191.494 25.8204 190.525 25.8204C189.806 25.8204 189.369 25.6728 189.369 25.3434C189.369 25.1349 189.806 24.896 190.12 24.807C191.65 24.4494 192.025 24.0021 192.118 22.6312C192.211 21.4406 192.305 19.5029 192.305 17.9821C192.305 17.0296 192.305 10.3538 192.244 9.49035C192.148 8.44811 191.992 7.97109 190.276 7.76187C189.869 7.70253 189.557 7.49408 189.557 7.3153C189.557 7.07641 189.839 6.8984 190.214 6.83907C190.401 6.81019 190.963 6.81018 191.245 6.81018C193.242 6.81018 195.804 6.57129 197.21 6.57129C200.208 6.57129 202.239 7.10763 203.52 8.29821C204.988 9.66991 205.332 11.2789 205.332 12.3212C205.332 14.7656 204.176 16.0772 203.269 16.8212C202.458 17.477 200.74 18.1616 199.522 18.1616C199.178 18.1616 198.303 18.1039 197.898 17.9532C197.46 17.7744 197.241 17.6269 197.241 17.3583C197.241 17.2381 197.46 17.0601 197.71 17.0601H198.177C199.49 17.0601 201.426 15.5697 201.426 12.4711C201.426 10.0868 199.739 7.58386 197.179 7.58386Z" fill="#A58069"/>
<path d="M218.822 6.83897C219.852 6.83897 221.131 6.72031 221.569 6.66019C221.695 6.62974 221.913 6.83897 221.946 7.04742C221.976 7.58455 221.976 9.64093 221.976 10.2358C221.976 10.6527 221.756 11.0704 221.477 11.0704C221.194 11.0704 220.946 10.6238 220.883 10.3256C220.475 8.65646 219.602 8.20989 218.883 8.09044C218.29 8.00066 216.948 7.88122 214.541 7.91166C214.417 7.91166 214.166 8.03111 214.135 8.74624C214.072 9.49103 213.98 13.6335 214.01 15.2722C214.01 15.3612 214.135 15.5688 214.323 15.5688H216.822C219.04 15.5688 218.978 15.4494 219.571 14.1386C219.758 13.692 219.976 13.3625 220.258 13.3625C220.508 13.3625 220.601 13.87 220.569 14.1979C220.508 15.0333 220.445 15.568 220.445 16.2535C220.445 17.0592 220.508 17.537 220.569 18.2802C220.601 18.8173 220.415 19.1749 220.165 19.1749C219.915 19.1749 219.666 18.8181 219.571 18.5191C219.163 17.2075 218.758 16.9999 217.54 16.9109C216.541 16.8203 215.385 16.8203 214.418 16.8203C214.293 16.8203 214.011 17.1185 214.011 17.1779C213.887 18.0132 213.919 20.3366 213.948 21.3195C213.981 22.0354 213.948 23.1393 214.073 23.7639C214.167 24.0324 214.45 24.4197 214.761 24.4798C215.261 24.568 216.23 24.6578 217.291 24.6578C218.229 24.6578 219.385 24.6578 220.166 24.3908C221.103 24.0621 221.947 23.3478 222.633 22.1845C223.07 21.4093 223.352 21.1423 223.602 21.1423C223.915 21.1423 223.884 21.7676 223.852 22.0081C223.852 22.2454 222.946 24.9873 222.666 25.4643C222.573 25.6719 222.071 25.8507 221.915 25.8507C221.572 25.8507 213.857 25.7016 211.515 25.7016C209.422 25.7016 209.077 25.8507 207.953 25.8507C207.36 25.8507 206.891 25.7609 206.891 25.4643C206.891 25.1949 207.297 24.9873 207.828 24.8662C209.421 24.5102 209.826 24.2105 209.952 22.6038C210.045 21.3507 210.202 19.0867 210.202 15.3916C210.202 11.8761 210.232 10.5044 210.171 9.64093C210.108 8.56746 209.858 7.97256 208.516 7.7321C207.859 7.615 207.515 7.49555 207.515 7.19732C207.515 6.92875 208.047 6.74919 208.485 6.74919C209.953 6.74919 212.514 6.83975 214.137 6.83975H218.822V6.83897Z" fill="#A58069"/>
<path d="M241.223 6.8108C241.972 6.9888 242.754 7.16758 243.472 7.25736C243.691 7.25736 243.94 7.61493 243.94 8.06227C243.971 8.89528 244.033 9.93831 244.097 10.8033C244.128 11.4287 243.908 11.9353 243.566 11.9353C243.409 11.9353 243.127 11.5778 242.971 11.1304C242.66 10.2076 242.191 9.40274 241.66 9.01473C240.315 7.94282 238.723 7.28625 237.037 7.28625C232.07 7.28625 229.727 11.0414 229.727 15.5703C229.727 17.5674 230.102 19.2951 230.79 20.6066C232.507 23.8848 235.35 25.0473 237.786 25.0473C238.192 25.0473 239.723 24.988 240.815 24.3611C241.971 23.7365 242.815 22.8707 243.532 21.6504C243.908 20.9947 244.128 20.7253 244.376 20.7253C244.721 20.7253 244.721 21.5006 244.627 21.8292C244.471 22.5725 243.971 23.8848 243.689 24.422C243.595 24.6897 243.033 25.166 242.565 25.3744C242.127 25.5227 239.972 26.2371 237.097 26.2371C232.475 26.2371 229.197 24.2713 227.915 22.8707C226.728 21.5607 225.291 19.4746 225.291 16.1668C225.291 12.5607 227.415 10.0281 228.727 9.01395C231.381 6.92869 234.599 6.33301 237.16 6.33301C238.6 6.33301 240.098 6.54146 241.223 6.8108Z" fill="#A58069"/>
<path d="M262.508 6.8108C263.257 6.9888 264.036 7.16758 264.755 7.25736C264.974 7.25736 265.224 7.61493 265.224 8.06227C265.255 8.89528 265.318 9.93831 265.379 10.8033C265.412 11.4287 265.192 11.9353 264.849 11.9353C264.694 11.9353 264.412 11.5778 264.257 11.1304C263.943 10.2076 263.474 9.40274 262.944 9.01473C261.599 7.94282 260.008 7.28625 258.322 7.28625C253.355 7.28625 251.012 11.0414 251.012 15.5703C251.012 17.5674 251.387 19.2951 252.075 20.6066C253.792 23.8848 256.634 25.0473 259.072 25.0473C259.477 25.0473 261.009 24.988 262.1 24.3611C263.257 23.7365 264.099 22.8707 264.818 21.6504C265.192 20.9947 265.413 20.7253 265.662 20.7253C266.004 20.7253 266.004 21.5006 265.91 21.8292C265.756 22.5725 265.255 23.8848 264.973 24.422C264.881 24.6897 264.318 25.166 263.85 25.3744C263.412 25.5227 261.256 26.2371 258.382 26.2371C253.759 26.2371 250.48 24.2713 249.199 22.8707C248.013 21.5607 246.576 19.4746 246.576 16.1668C246.576 12.5607 248.701 10.0281 250.012 9.01395C252.666 6.92869 255.884 6.33301 258.445 6.33301C259.883 6.33301 261.382 6.54146 262.508 6.8108Z" fill="#A58069"/>
<path d="M49.4356 35.6371C49.9741 35.6371 51.1018 35.5887 51.3039 35.5887C51.6239 35.5887 51.8252 35.6691 51.8252 35.7987C51.8252 35.9431 51.6574 36.0548 51.2867 36.1508C50.5633 36.3288 50.5126 36.4732 50.4618 36.9541C50.3947 37.6115 50.3775 38.6568 50.3775 40.3736C50.3775 41.9319 50.4111 43.8743 50.4283 44.406C50.4446 45.0305 50.6304 45.1281 51.2867 45.2882C51.506 45.3514 51.7581 45.4794 51.7581 45.609C51.7581 45.7855 51.5396 45.8651 51.236 45.8651C50.9496 45.8651 49.9225 45.8019 49.4176 45.8019C49.0305 45.8019 47.8194 45.8823 47.4822 45.8823C47.078 45.8823 46.893 45.7855 46.893 45.6418C46.893 45.4958 47.1279 45.3842 47.3644 45.3358C48.1729 45.1429 48.24 44.9829 48.3071 43.7939C48.3243 43.4715 48.3407 41.8359 48.3407 40.1972C48.3579 38.4804 48.3071 36.9541 48.2907 36.5833C48.2907 36.3748 48.1385 36.2952 48.0542 36.2952C46.8431 36.2952 43.762 36.2468 43.3078 36.2952C43.2235 36.2952 43.0885 36.4232 43.0722 36.5364C43.0214 36.9541 42.987 38.7037 42.987 40.4236C42.987 42.0607 43.0042 43.6502 43.0042 44.0507C43.0042 44.8057 43.1384 45.0477 43.8291 45.239C44.1826 45.3358 44.4175 45.4638 44.4175 45.5934C44.4347 45.7535 44.0984 45.8495 43.879 45.8495C43.7604 45.8495 42.3635 45.8011 41.7751 45.8011C41.3888 45.8011 40.5639 45.8815 40.0083 45.8815C39.5369 45.8815 39.3691 45.7691 39.3691 45.641C39.3691 45.463 39.7055 45.3678 39.8912 45.3202C40.6654 45.1593 40.7661 44.9173 40.8168 44.228C40.8503 43.6495 40.9682 41.9475 40.9682 39.9567C40.9682 38.6233 41.0017 37.6607 40.9682 37.0494C40.9338 36.5044 40.7489 36.2944 40.2268 36.1664C39.8405 36.0711 39.6547 35.9416 39.6547 35.8135C39.6547 35.6527 39.8741 35.5879 40.176 35.5879C40.631 35.5879 41.5566 35.6363 42.0116 35.6363H49.4356V35.6371Z" fill="#A58069"/>
<path d="M59.115 40.1983C59.57 40.6957 59.9399 41.435 59.9399 42.3016C59.9399 43.4742 59.4014 44.422 58.4923 45.0957C57.5495 45.8022 56.4898 45.9154 55.9014 45.9154C55.5969 45.9154 55.2778 45.8991 55.0757 45.8663C55.0086 45.8506 54.9415 46.0115 54.9415 46.0919C54.9243 46.814 54.9586 48.1623 55.0086 48.5168C55.0593 48.9493 55.1436 49.1897 55.8163 49.3826C56.1534 49.4794 56.2704 49.6074 56.2704 49.7206C56.2704 49.8658 56.002 49.9291 55.7999 49.9291C55.3285 49.9291 54.1673 49.8486 53.5609 49.8486C53.1403 49.8486 52.9218 49.897 52.1975 49.897C51.9119 49.897 51.709 49.801 51.709 49.6558C51.709 49.5582 51.8784 49.4302 52.1468 49.3669C52.9373 49.2069 53.0388 49.0141 53.0887 48.0663C53.1059 47.505 53.1395 46.2199 53.1395 44.5984C53.1395 43.5226 53.1566 41.7231 53.1223 41.1141C53.1059 40.7768 53.0543 40.712 53.0036 40.6652C52.7016 40.4396 52.3645 40.1663 52.3645 40.0867C52.3645 40.0055 52.5502 39.7807 52.718 39.7159C53.0543 39.6198 53.9799 39.3466 54.4349 39.0905C54.6043 38.9937 54.7385 38.9453 54.7721 38.9453C54.8392 38.9453 54.9734 39.0905 54.9734 39.1709C54.9398 39.459 54.9398 39.6675 54.9226 39.9251C54.9226 39.9899 55.0069 40.0531 55.0577 40.0383C55.3613 39.8455 55.8146 39.6198 56.0503 39.5246C56.3367 39.4114 56.7238 39.2998 57.2107 39.2998C57.8867 39.299 58.6617 39.7003 59.115 40.1983ZM55.1608 40.4388C55.11 40.4872 54.9922 40.68 54.975 40.8573C54.8743 41.5622 54.8743 42.8629 54.9079 43.7146C54.9079 44.0027 54.975 44.2768 55.0765 44.4532C55.4308 45.0465 56.1035 45.369 56.457 45.369C56.6428 45.369 56.8269 45.3206 57.0291 45.1761C57.9047 44.5664 58.0397 43.1853 58.0397 42.752C58.0397 42.3164 57.9546 41.4998 57.3327 40.8401C56.9619 40.4388 56.3392 40.246 56.0708 40.246C55.7492 40.246 55.3793 40.3264 55.1608 40.4388Z" fill="#A58069"/>
<path d="M68.6259 42.6074C68.6259 43.9713 67.7511 44.9511 67.1275 45.3368C66.4377 45.8029 65.58 45.9941 64.8059 45.9941C64.0481 45.9941 63.1054 45.6577 62.4826 45.1596C61.7592 44.5982 61.2207 43.5872 61.2207 42.6879C61.2207 41.5652 61.7412 40.7127 62.3811 40.199C62.886 39.7828 63.8288 39.2676 65.0743 39.2676C66.7584 39.266 68.6259 40.5191 68.6259 42.6074ZM63.9311 40.1506C63.5432 40.487 63.2412 41.1936 63.2412 42.253C63.2412 42.7823 63.3083 43.392 63.4425 43.7949C63.796 44.9199 64.5702 45.4648 65.2781 45.4648C65.4466 45.4648 65.7658 45.3368 66.0178 45.0487C66.3714 44.6302 66.6406 43.7785 66.6406 42.8635C66.6406 42.189 66.4884 41.146 65.9671 40.4394C65.6635 40.0686 65.2265 39.7977 64.756 39.7977C64.4687 39.7969 64.2003 39.9101 63.9311 40.1506Z" fill="#A58069"/>
<path d="M75.5965 39.6992C75.8158 39.8444 75.8829 40.0692 75.8829 40.2777C75.8829 40.5658 75.3272 41.0318 75.2266 41.0318C75.0752 41.0318 74.8051 40.9194 74.4524 40.6306C73.9974 40.2777 73.6439 39.9388 73.1226 39.9388C72.9376 39.9388 72.6512 40.0364 72.3992 40.2925C71.9777 40.7102 71.7437 41.5127 71.7437 42.2521C71.7437 43.2951 72.1979 43.8416 72.2813 43.9384C72.6013 44.3553 73.2077 44.8042 74.1161 44.8042C74.6046 44.8042 75.1603 44.6129 75.7323 44.2749C75.8166 44.2265 75.9516 44.2749 75.9516 44.4045C75.9516 44.5645 75.8166 44.773 75.6824 44.901C75.1104 45.4779 74.1333 45.9768 73.0907 45.9768C71.8623 45.9768 70.9196 45.3679 70.4482 44.6918C70.1111 44.1945 69.8926 43.4879 69.8926 42.829C69.8926 41.5775 70.5661 40.6633 71.5759 40.0364C72.1651 39.6352 73.2756 39.3447 73.9491 39.3447C74.4524 39.3455 75.2928 39.4751 75.5965 39.6992Z" fill="#A58069"/>
<path d="M78.3397 45.8493C78.1376 45.8493 77.9191 45.8009 77.9191 45.6565C77.9191 45.5285 78.0369 45.4332 78.3225 45.3505C78.7767 45.2396 79.0296 45.1256 79.064 44.8211C79.0983 44.3387 79.1483 43.312 79.1483 42.1394V40.2439C79.1483 40.1791 79.1139 40.1002 79.0124 40.0838C78.7939 40.0674 78.3741 40.051 78.2391 40.051C77.7342 40.051 77.5157 40.5171 77.3471 40.966C77.2121 41.2721 77.0778 41.4165 76.9428 41.4165C76.7914 41.4165 76.7243 41.1268 76.7407 40.8872C76.7579 40.3415 76.8585 39.891 76.8585 39.5373C76.8413 39.4421 76.9772 39.2969 77.0607 39.2969C77.1449 39.2969 77.2464 39.3617 77.3634 39.4093C77.4813 39.4577 78.0198 39.4905 78.424 39.4905H81.722C82.1262 39.4905 82.749 39.4421 82.8832 39.3945C83.0018 39.3461 83.1197 39.2977 83.204 39.2977C83.2883 39.2977 83.3562 39.4429 83.3562 39.5381C83.3055 40.0042 83.3218 40.3883 83.339 40.9364C83.3562 41.2572 83.1884 41.4501 83.0354 41.4501C82.9176 41.4501 82.8333 41.3525 82.7498 41.0316C82.6148 40.4375 82.3284 40.0518 81.8905 40.0518C81.5542 40.0518 81.1671 40.0682 81.0493 40.0846C80.9642 40.101 80.9314 40.2298 80.9143 40.3251C80.8971 40.774 80.9143 41.6101 80.9143 42.3487C80.9143 43.5213 80.9314 44.195 80.9822 44.6455C81.0329 45.1108 81.1508 45.2076 81.6213 45.3356C81.8905 45.416 82.0092 45.5285 82.0092 45.5933C82.0092 45.7197 81.7727 45.8493 81.5869 45.8493C81.0149 45.8493 80.3422 45.8009 79.9715 45.8009C79.5853 45.8009 78.8954 45.8493 78.3397 45.8493Z" fill="#A58069"/>
<path d="M90.8982 40.1983C91.3532 40.6957 91.7231 41.435 91.7231 42.3016C91.7231 43.4742 91.1846 44.422 90.2755 45.0957C89.3327 45.8022 88.273 45.9154 87.6846 45.9154C87.3802 45.9154 87.061 45.8991 86.8589 45.8663C86.7918 45.8506 86.7247 46.0115 86.7247 46.0919C86.7075 46.814 86.7418 48.1623 86.7918 48.5168C86.8425 48.9493 86.9268 49.1897 87.5995 49.3826C87.9366 49.4794 88.0536 49.6074 88.0536 49.7206C88.0536 49.8658 87.7844 49.9291 87.5823 49.9291C87.1117 49.9291 85.9497 49.8486 85.3441 49.8486C84.9235 49.8486 84.705 49.897 83.9807 49.897C83.6951 49.897 83.4922 49.801 83.4922 49.6558C83.4922 49.5582 83.6616 49.4302 83.93 49.3669C84.7205 49.2069 84.822 49.0141 84.8719 48.0663C84.8891 47.505 84.9227 46.2199 84.9227 44.5984C84.9227 43.5226 84.9398 41.7231 84.9055 41.1141C84.8891 40.7768 84.8375 40.712 84.7868 40.6652C84.4848 40.4396 84.1477 40.1663 84.1477 40.0867C84.1477 40.0055 84.3334 39.7807 84.5012 39.7159C84.8375 39.6198 85.7639 39.3466 86.2181 39.0905C86.3875 38.9937 86.5217 38.9453 86.5553 38.9453C86.6224 38.9453 86.7566 39.0905 86.7566 39.1709C86.723 39.459 86.723 39.6675 86.7058 39.9251C86.7058 39.9899 86.7901 40.0531 86.8409 40.0383C87.1445 39.8455 87.5978 39.6198 87.8335 39.5246C88.1199 39.4114 88.507 39.2998 88.9939 39.2998C89.6691 39.299 90.4449 39.7003 90.8982 40.1983ZM86.9431 40.4388C86.8924 40.4872 86.7746 40.68 86.7574 40.8573C86.6567 41.5622 86.6567 42.8629 86.6903 43.7146C86.6903 44.0027 86.7574 44.2768 86.8589 44.4532C87.2132 45.0465 87.8859 45.369 88.2394 45.369C88.4252 45.369 88.6093 45.3206 88.8114 45.1761C89.6871 44.5664 89.8221 43.1853 89.8221 42.752C89.8221 42.3164 89.737 41.4998 89.115 40.8401C88.7443 40.4388 88.1216 40.246 87.8531 40.246C87.5315 40.246 87.1616 40.3264 86.9431 40.4388Z" fill="#A58069"/>
<path d="M97.7006 40.1326C97.9027 40.3902 98.0705 40.7923 98.0705 41.5145C98.0705 42.1414 98.0034 44.051 98.0034 44.229C98.0034 44.6779 98.3405 44.8707 98.6261 44.8707C98.7104 44.8707 99.0468 44.7427 99.2162 44.6779C99.2661 44.6451 99.2833 44.6623 99.316 44.6935C99.3504 44.7583 99.3667 44.8715 99.3667 44.9191C99.3667 45.2244 98.5762 46.0105 97.6335 46.0105C97.1457 46.0105 96.6236 45.8653 96.3716 45.24C96.3544 45.1767 96.2537 45.1439 96.2202 45.1767C95.7996 45.4648 95.1089 45.7709 94.8904 45.8505C94.7046 45.9137 94.3691 45.9785 94.1498 45.9785C93.527 45.9785 92.8543 45.2564 92.8543 44.357C92.8543 44.0666 92.9885 43.7629 93.1563 43.5373C93.3257 43.3124 93.6113 43.2164 93.7627 43.1532C94.1334 43.0079 95.6645 42.6074 96.0516 42.4942C96.2546 42.431 96.3552 42.3162 96.3552 42.253C96.3724 42.1078 96.406 41.2256 96.3896 41.0171C96.3724 40.6315 96.0189 39.9882 95.2611 39.9882C95.0262 39.9882 94.8405 40.021 94.7226 40.1014C94.6547 40.1334 94.6211 40.2958 94.6211 40.8399C94.6211 40.9047 94.5868 40.9531 94.5532 40.9859C94.4362 41.0983 93.1899 41.6277 93.0728 41.6277C92.9714 41.6277 92.8535 41.4981 92.8535 41.402C92.8535 40.9375 93.2234 40.5042 94.2676 39.8617C94.8904 39.476 95.7153 39.2676 95.9501 39.2676C96.9772 39.2668 97.4485 39.7797 97.7006 40.1326ZM96.1359 44.8223C96.2038 44.7739 96.2709 44.5811 96.2709 44.5163C96.3045 44.2914 96.338 43.6185 96.338 43.0876C96.338 43.0243 96.2709 42.9275 96.2202 42.9275C95.933 42.9275 95.1588 43.168 94.8568 43.3436C94.6539 43.4889 94.5524 43.5693 94.5524 43.9869C94.5524 44.6919 95.1588 45.0144 95.4796 45.0144C95.6302 45.0151 95.9673 44.9183 96.1359 44.8223Z" fill="#A58069"/>
<path d="M107.596 45.8643C107.176 45.8643 106.351 45.801 105.98 45.801C105.594 45.801 105.105 45.8323 104.617 45.8323C104.415 45.8323 104.162 45.769 104.162 45.5926C104.162 45.4474 104.347 45.3826 104.633 45.3029C104.937 45.2397 105.104 45.0469 105.121 44.9173C105.155 44.6448 105.172 44.0827 105.172 43.0069C105.172 42.8937 105.121 42.8141 105.037 42.8141L102.832 42.8304C102.714 42.8304 102.681 42.8937 102.663 43.1349C102.646 43.4082 102.663 44.2755 102.697 44.6768C102.714 45.0477 102.816 45.2405 103.101 45.3037C103.37 45.3841 103.523 45.4958 103.523 45.5934C103.523 45.6886 103.388 45.8494 103.034 45.8494C102.916 45.8494 102.176 45.801 101.805 45.801C101.266 45.801 100.543 45.8494 100.257 45.8494C99.971 45.8494 99.8359 45.7042 99.8359 45.5762C99.8359 45.4802 99.9873 45.3677 100.257 45.3029C100.644 45.2069 100.729 45.0922 100.796 44.9321C100.863 44.6924 100.897 43.9859 100.897 42.7656C100.897 41.5454 100.897 40.9029 100.88 40.5984C100.863 40.2127 100.812 40.1011 100.308 39.9567C100.055 39.8755 99.9202 39.7638 99.9202 39.6506C99.9202 39.4906 100.122 39.4422 100.341 39.4422C100.745 39.4422 101.419 39.4906 101.789 39.4906C102.327 39.4906 102.563 39.4422 103.085 39.4422C103.354 39.4422 103.505 39.507 103.505 39.6506C103.505 39.7459 103.42 39.8435 103.169 39.9387C102.748 40.0847 102.697 40.1963 102.681 40.4852C102.663 40.9825 102.663 41.9311 102.663 42.0919C102.681 42.1403 102.73 42.2199 102.798 42.2199H105.019C105.07 42.2199 105.171 42.1395 105.171 42.0763C105.188 41.6422 105.188 40.678 105.171 40.5016C105.154 40.1159 105.019 40.0355 104.75 39.9379C104.548 39.8575 104.347 39.7779 104.347 39.6171C104.347 39.4898 104.548 39.4414 104.784 39.4414C105.087 39.4414 105.642 39.4898 106.062 39.4898C106.618 39.4898 106.988 39.4414 107.442 39.4414C107.73 39.4414 107.897 39.5218 107.897 39.6342C107.897 39.7927 107.73 39.8575 107.528 39.9223C106.972 40.0831 106.989 40.2284 106.938 40.6289C106.921 40.7725 106.921 41.6891 106.921 42.5549C106.921 43.4066 106.938 44.1779 106.972 44.6753C106.989 45.0914 107.241 45.1741 107.629 45.317C107.898 45.3982 108.015 45.5098 108.015 45.6223C108.017 45.7846 107.782 45.8643 107.596 45.8643Z" fill="#A58069"/>
<path d="M114.615 39.6992C114.834 39.8444 114.902 40.0692 114.902 40.2777C114.902 40.5658 114.346 41.0318 114.245 41.0318C114.094 41.0318 113.824 40.9194 113.471 40.6306C113.016 40.2777 112.662 39.9388 112.141 39.9388C111.956 39.9388 111.67 40.0364 111.418 40.2925C110.996 40.7102 110.761 41.5127 110.761 42.2521C110.761 43.2951 111.216 43.8416 111.3 43.9384C111.62 44.3553 112.225 44.8042 113.134 44.8042C113.622 44.8042 114.178 44.6129 114.751 44.2749C114.835 44.2265 114.969 44.2749 114.969 44.4045C114.969 44.5645 114.834 44.773 114.7 44.901C114.128 45.4779 113.15 45.9768 112.108 45.9768C110.879 45.9768 109.937 45.3679 109.466 44.6918C109.129 44.1945 108.91 43.4879 108.91 42.829C108.91 41.5775 109.584 40.6633 110.593 40.0364C111.183 39.6352 112.293 39.3447 112.966 39.3447C113.47 39.3455 114.311 39.4751 114.615 39.6992Z" fill="#A58069"/>
<path d="M117.361 45.8493C117.159 45.8493 116.941 45.8009 116.941 45.6565C116.941 45.5285 117.058 45.4332 117.344 45.3505C117.798 45.2396 118.051 45.1256 118.085 44.8211C118.12 44.3387 118.17 43.312 118.17 42.1394V40.2439C118.17 40.1791 118.135 40.1002 118.034 40.0838C117.815 40.0674 117.396 40.051 117.261 40.051C116.756 40.051 116.537 40.5171 116.369 40.966C116.234 41.2721 116.099 41.4165 115.964 41.4165C115.813 41.4165 115.746 41.1268 115.762 40.8872C115.779 40.3415 115.88 39.891 115.88 39.5373C115.863 39.4421 115.999 39.2969 116.082 39.2969C116.167 39.2969 116.268 39.3617 116.385 39.4093C116.503 39.4577 117.042 39.4905 117.446 39.4905H120.744C121.149 39.4905 121.771 39.4421 121.905 39.3945C122.024 39.3461 122.141 39.2977 122.226 39.2977C122.31 39.2977 122.378 39.4429 122.378 39.5381C122.327 40.0042 122.343 40.3883 122.36 40.9364C122.378 41.2572 122.209 41.4501 122.057 41.4501C121.939 41.4501 121.855 41.3525 121.771 41.0316C121.636 40.4375 121.351 40.0518 120.913 40.0518C120.577 40.0518 120.189 40.0682 120.072 40.0846C119.987 40.101 119.954 40.2298 119.937 40.3251C119.92 40.774 119.937 41.6101 119.937 42.3487C119.937 43.5213 119.954 44.195 120.004 44.6455C120.055 45.1108 120.173 45.2076 120.644 45.3356C120.913 45.416 121.031 45.5285 121.031 45.5933C121.031 45.7197 120.795 45.8493 120.609 45.8493C120.037 45.8493 119.364 45.8009 118.994 45.8009C118.607 45.8009 117.916 45.8493 117.361 45.8493Z" fill="#A58069"/>
<path d="M128.507 42.2699C128.423 42.2863 128.473 42.3511 128.54 42.3823C128.842 42.4635 129.214 42.6399 129.347 42.736C129.601 42.9288 129.954 43.2169 129.954 43.8758C129.954 44.7432 129.28 45.3053 128.557 45.5606C127.917 45.7862 127.093 45.8182 126.403 45.8182C126.031 45.8182 125.662 45.8026 125.225 45.8026C124.685 45.8026 124.013 45.8354 123.423 45.851C123.187 45.8666 122.986 45.7229 122.986 45.5933C122.986 45.4497 123.188 45.4005 123.407 45.3521C123.995 45.2085 124.013 44.9836 124.046 44.5979C124.097 44.2607 124.114 43.7306 124.114 42.4791C124.114 41.8522 124.13 41.2909 124.097 40.6648C124.08 40.2611 124.03 40.1331 123.458 39.973C123.256 39.9246 123.087 39.7966 123.087 39.6038C123.087 39.5234 123.154 39.4422 123.441 39.4422C123.743 39.4422 124.434 39.4913 124.77 39.4913C125.09 39.4913 126.504 39.4102 127.043 39.4102C128.103 39.4102 129.516 39.6662 129.516 40.9364C129.516 41.6929 129.011 42.0443 128.507 42.2699ZM126.386 39.9426C126.15 39.9426 125.999 39.991 125.931 40.0386C125.88 40.087 125.847 40.1823 125.83 40.3915C125.813 40.6156 125.797 41.7562 125.83 41.9966C125.847 42.1262 125.914 42.1575 126.015 42.1575C126.301 42.1575 126.824 42.1418 127.093 42.0443C127.531 41.8858 127.766 41.5321 127.766 41.066C127.766 40.632 127.362 39.9426 126.386 39.9426ZM127.513 42.9288C127.261 42.768 126.739 42.6548 126.436 42.6548C126.234 42.6548 126.133 42.6548 125.981 42.6876C125.914 42.7032 125.88 42.768 125.864 42.8804C125.83 43.0404 125.83 43.6502 125.847 44.1795C125.847 44.4871 125.881 44.7432 126.032 44.968C126.167 45.1444 126.521 45.3373 126.689 45.3373C127.497 45.3373 128.103 44.6955 128.103 43.9562C128.103 43.4745 127.817 43.1365 127.513 42.9288Z" fill="#A58069"/>
<path d="M138.438 42.6074C138.438 43.9713 137.564 44.9511 136.941 45.3368C136.251 45.8029 135.393 45.9941 134.618 45.9941C133.86 45.9941 132.918 45.6577 132.295 45.1596C131.572 44.5982 131.033 43.5872 131.033 42.6879C131.033 41.5652 131.554 40.7127 132.194 40.199C132.699 39.7828 133.641 39.2676 134.887 39.2676C136.57 39.266 138.438 40.5191 138.438 42.6074ZM133.743 40.1506C133.355 40.487 133.052 41.1936 133.052 42.253C133.052 42.7823 133.119 43.392 133.254 43.7949C133.608 44.9199 134.382 45.4648 135.088 45.4648C135.257 45.4648 135.577 45.3368 135.829 45.0487C136.183 44.6302 136.452 43.7785 136.452 42.8635C136.452 42.189 136.299 41.146 135.779 40.4394C135.475 40.0686 135.039 39.7977 134.568 39.7977C134.281 39.7969 134.012 39.9101 133.743 40.1506Z" fill="#A58069"/>
<path d="M144.43 45.8015C144.297 45.8015 144.128 45.8499 143.993 45.9607C143.605 46.2988 143.522 47.085 143.455 47.697C143.405 48.0655 143.269 48.1936 143.134 48.1936C142.967 48.1936 142.865 47.9531 142.848 47.7603C142.781 47.1185 142.747 45.8343 142.713 45.4486C142.697 45.3354 142.781 45.2386 142.848 45.2386C143.05 45.2386 143.252 45.2222 143.454 45.1902C143.522 45.1746 143.623 45.1418 143.673 45.0465C143.993 44.34 144.951 42.0416 145.474 40.6613C145.507 40.5653 145.574 40.3889 145.625 40.2288C145.676 40.0508 145.895 39.8431 146.35 39.4403C146.468 39.3123 146.585 39.249 146.686 39.249C146.787 39.249 146.888 39.3771 147.108 39.9228C147.595 41.2547 148.707 44.322 148.992 44.9177C149.043 45.0458 149.144 45.1738 149.295 45.1738C149.515 45.2214 149.817 45.2214 150.054 45.2214C150.121 45.2214 150.171 45.3026 150.154 45.4143C150.103 45.8327 149.766 46.6829 149.666 47.6143C149.615 47.9836 149.43 48.1912 149.261 48.1912C149.093 48.1912 149.009 48.0312 149.009 47.6619V47.1482C149.009 46.2004 148.672 45.7991 148.218 45.7991H144.43V45.8015ZM145.862 41.499C145.828 41.3858 145.743 41.4342 145.709 41.499C145.355 42.4616 144.548 44.5344 144.396 45.0629C144.379 45.1277 144.414 45.2066 144.48 45.2066C144.75 45.2066 146.804 45.2394 147.04 45.191C147.107 45.1754 147.141 45.1277 147.123 45.0793C146.989 44.5969 146.063 41.9799 145.862 41.499Z" fill="#A58069"/>
<path d="M157.999 42.6074C157.999 43.9713 157.123 44.9511 156.501 45.3368C155.811 45.8029 154.952 45.9941 154.178 45.9941C153.42 45.9941 152.478 45.6577 151.855 45.1596C151.131 44.5982 150.594 43.5872 150.594 42.6879C150.594 41.5652 151.114 40.7127 151.755 40.199C152.259 39.7828 153.203 39.2676 154.447 39.2676C156.131 39.266 157.999 40.5191 157.999 42.6074ZM153.303 40.1506C152.915 40.487 152.613 41.1936 152.613 42.253C152.613 42.7823 152.68 43.392 152.814 43.7949C153.169 44.9199 153.942 45.4648 154.649 45.4648C154.817 45.4648 155.138 45.3368 155.389 45.0487C155.744 44.6302 156.013 43.7785 156.013 42.8635C156.013 42.189 155.861 41.146 155.339 40.4394C155.037 40.0686 154.6 39.7977 154.128 39.7977C153.842 39.7969 153.573 39.9101 153.303 40.1506Z" fill="#A58069"/>
<path d="M164.28 42.2699C164.195 42.2863 164.247 42.3511 164.314 42.3823C164.616 42.4635 164.987 42.6399 165.121 42.736C165.374 42.9288 165.727 43.2169 165.727 43.8758C165.727 44.7432 165.054 45.3053 164.329 45.5606C163.691 45.7862 162.866 45.8182 162.176 45.8182C161.805 45.8182 161.435 45.8026 160.998 45.8026C160.459 45.8026 159.785 45.8354 159.197 45.851C158.961 45.8666 158.76 45.7229 158.76 45.5933C158.76 45.4497 158.961 45.4005 159.18 45.3521C159.77 45.2085 159.785 44.9836 159.82 44.5979C159.87 44.2607 159.887 43.7306 159.887 42.4791C159.887 41.8522 159.905 41.2909 159.87 40.6648C159.853 40.2611 159.803 40.1331 159.23 39.973C159.029 39.9246 158.861 39.7966 158.861 39.6038C158.861 39.5234 158.928 39.4422 159.215 39.4422C159.517 39.4422 160.208 39.4913 160.543 39.4913C160.864 39.4913 162.278 39.4102 162.815 39.4102C163.876 39.4102 165.289 39.6662 165.289 40.9364C165.289 41.6929 164.784 42.0443 164.28 42.2699ZM162.158 39.9426C161.923 39.9426 161.772 39.991 161.704 40.0386C161.653 40.087 161.62 40.1823 161.603 40.3915C161.586 40.6156 161.57 41.7562 161.603 41.9966C161.62 42.1262 161.688 42.1575 161.789 42.1575C162.076 42.1575 162.597 42.1418 162.866 42.0443C163.303 41.8858 163.539 41.5321 163.539 41.066C163.539 40.632 163.135 39.9426 162.158 39.9426ZM163.287 42.9288C163.034 42.768 162.514 42.6548 162.21 42.6548C162.009 42.6548 161.907 42.6548 161.755 42.6876C161.688 42.7032 161.654 42.768 161.637 42.8804C161.603 43.0404 161.603 43.6502 161.62 44.1795C161.62 44.4871 161.653 44.7432 161.805 44.968C161.94 45.1444 162.293 45.3373 162.462 45.3373C163.269 45.3373 163.876 44.6955 163.876 43.9562C163.875 43.4745 163.59 43.1365 163.287 42.9288Z" fill="#A58069"/>
<path d="M172.121 39.9398C172.507 40.2934 172.759 40.7923 172.759 41.3536C172.759 41.4668 172.592 41.7393 172.39 41.7393H168.72C168.636 41.7393 168.552 41.7877 168.535 41.8525C168.484 41.9805 168.468 42.2218 168.468 42.431C168.468 42.7823 168.67 43.5216 168.989 43.9229C169.411 44.4366 170.118 44.7271 170.858 44.7271C171.565 44.7271 172.053 44.5662 172.372 44.1634C172.44 44.0674 172.525 43.9721 172.593 43.9721C172.66 43.9721 172.744 44.0838 172.744 44.1806C172.744 44.2766 172.693 44.4538 172.61 44.5818C172.088 45.3516 171.296 45.9785 169.917 45.9785C167.981 45.9785 166.803 44.5818 166.803 42.7519C166.803 41.4668 167.543 40.1826 168.94 39.5721C169.361 39.3792 169.866 39.2676 170.321 39.2676C170.993 39.2668 171.682 39.5229 172.121 39.9398ZM168.636 41.0804C168.619 41.1608 168.687 41.2412 168.754 41.2412C169.191 41.2576 169.714 41.2412 170.555 41.2412C170.842 41.2412 171.144 41.0804 171.144 40.6947C171.144 40.2458 170.673 39.7149 170.201 39.7149C169.495 39.7149 168.838 40.3411 168.636 41.0804Z" fill="#A58069"/>
<path d="M180.506 40.1983C180.961 40.6957 181.331 41.435 181.331 42.3016C181.331 43.4742 180.793 44.422 179.883 45.0957C178.941 45.8022 177.88 45.9154 177.292 45.9154C176.988 45.9154 176.669 45.8991 176.466 45.8663C176.399 45.8506 176.332 46.0115 176.332 46.0919C176.315 46.814 176.349 48.1623 176.399 48.5168C176.45 48.9493 176.533 49.1897 177.208 49.3826C177.543 49.4794 177.661 49.6074 177.661 49.7206C177.661 49.8658 177.392 49.9291 177.19 49.9291C176.718 49.9291 175.558 49.8486 174.952 49.8486C174.531 49.8486 174.313 49.897 173.589 49.897C173.302 49.897 173.1 49.801 173.1 49.6558C173.1 49.5582 173.268 49.4302 173.537 49.3669C174.329 49.2069 174.43 49.0141 174.48 48.0663C174.497 47.505 174.531 46.2199 174.531 44.5984C174.531 43.5226 174.548 41.7231 174.514 41.1141C174.497 40.7768 174.447 40.712 174.395 40.6652C174.093 40.4396 173.757 40.1663 173.757 40.0867C173.757 40.0055 173.942 39.7807 174.11 39.7159C174.447 39.6198 175.372 39.3466 175.827 39.0905C175.995 38.9937 176.13 38.9453 176.163 38.9453C176.231 38.9453 176.365 39.0905 176.365 39.1709C176.332 39.459 176.332 39.6675 176.315 39.9251C176.315 39.9899 176.399 40.0531 176.449 40.0383C176.752 39.8455 177.208 39.6198 177.442 39.5246C177.729 39.4114 178.115 39.2998 178.603 39.2998C179.277 39.299 180.052 39.7003 180.506 40.1983ZM176.551 40.4388C176.501 40.4872 176.383 40.68 176.365 40.8573C176.264 41.5622 176.264 42.8629 176.298 43.7146C176.298 44.0027 176.365 44.2768 176.466 44.4532C176.82 45.0465 177.493 45.369 177.847 45.369C178.033 45.369 178.218 45.3206 178.42 45.1761C179.294 44.5664 179.429 43.1853 179.429 42.752C179.429 42.3164 179.344 41.4998 178.722 40.8401C178.353 40.4388 177.729 40.246 177.46 40.246C177.14 40.246 176.769 40.3264 176.551 40.4388Z" fill="#A58069"/>
<path d="M182.712 39.4443C183.033 39.4443 183.621 39.4927 184.127 39.4927C184.531 39.4927 185.07 39.4443 185.575 39.4443C185.743 39.4443 185.963 39.5091 185.963 39.62C185.963 39.748 185.844 39.8776 185.575 39.9409C185.003 40.0868 185.071 40.3117 185.036 40.5194C184.986 41.4187 184.986 42.6874 185.003 43.4423C185.02 43.5376 185.071 43.5547 185.138 43.4899C185.795 42.7834 186.77 41.7404 187.427 41.0338C187.612 40.841 187.679 40.6653 187.679 40.5849V40.3921C187.679 40.1673 187.612 40.0392 187.191 39.9112C187.09 39.8784 186.905 39.766 186.905 39.6536C186.905 39.5255 187.056 39.4451 187.325 39.4451C187.679 39.4451 188.134 39.4935 188.638 39.4935C189.126 39.4771 189.513 39.4287 189.95 39.4287C190.252 39.4287 190.371 39.5255 190.371 39.6387C190.371 39.7668 190.252 39.8636 189.968 39.9424C189.496 40.0884 189.429 40.2976 189.412 40.5061C189.412 40.6341 189.395 41.2282 189.395 41.9184C189.395 42.8677 189.428 44.0708 189.446 44.6329C189.463 45.1466 189.8 45.2426 190.103 45.3074C190.371 45.3722 190.506 45.5159 190.506 45.6127C190.506 45.7087 190.304 45.8539 190.118 45.8539C189.698 45.8539 189.176 45.8055 188.655 45.8055C188.216 45.8055 187.628 45.8539 187.022 45.8539C186.82 45.8539 186.6 45.7735 186.6 45.6127C186.6 45.4846 186.719 45.4042 187.004 45.3394C187.392 45.2262 187.576 45.0029 187.594 44.7937C187.628 44.3596 187.678 43.7499 187.678 41.6951C187.678 41.6139 187.611 41.5975 187.561 41.6623C186.787 42.482 185.775 43.5399 185.171 44.2316C185.103 44.312 185.002 44.4401 185.002 44.5681V44.8109C185.002 45.0193 185.121 45.1802 185.44 45.2902C185.641 45.3394 185.827 45.4526 185.827 45.5479C185.827 45.7087 185.608 45.8367 185.39 45.8367C185.22 45.8367 184.279 45.8055 183.891 45.8055C183.336 45.8055 182.932 45.8539 182.629 45.8539C182.478 45.8539 182.158 45.8211 182.158 45.6283C182.158 45.5003 182.326 45.3878 182.595 45.323C183.016 45.2114 183.151 45.067 183.202 44.8741C183.235 44.6485 183.252 44.3448 183.252 43.5571C183.252 42.1112 183.252 40.9238 183.235 40.6029C183.218 40.2336 183.116 40.136 182.678 39.976C182.377 39.8643 182.292 39.7504 182.292 39.6551C182.292 39.5091 182.444 39.4443 182.712 39.4443Z" fill="#A58069"/>
<path d="M198.705 39.6036C198.705 39.7496 198.57 39.9096 198.301 39.9573C197.73 40.1009 197.73 40.2937 197.712 40.503C197.712 40.631 197.678 41.3055 197.678 42.2205C197.678 43.1831 197.695 44.0669 197.712 44.629C197.729 45.1427 198.014 45.1911 198.317 45.2879C198.586 45.3668 198.739 45.4964 198.739 45.6244C198.739 45.7376 198.519 45.85 198.301 45.85C198.184 45.85 196.838 45.8016 196.482 45.8016C195.927 45.8016 195.675 45.85 195.372 45.85C195.119 45.85 194.884 45.7696 194.884 45.6088C194.884 45.4636 195.036 45.3988 195.288 45.3355C195.675 45.2403 195.877 45.0295 195.91 44.8546C195.944 44.6618 195.944 43.4236 195.944 42.9442C195.944 42.8466 195.893 42.8146 195.859 42.8146C195.607 42.8146 195.321 43.0395 194.951 43.5212C194.513 44.0669 194.212 44.5158 193.823 45.0147C193.352 45.6088 192.865 45.9297 191.77 45.9297C191.652 45.9297 191.265 45.9453 191.08 45.8812C190.962 45.8492 190.76 45.7844 190.76 45.6564C190.76 45.5268 190.911 45.4956 191.062 45.448C191.466 45.3348 191.82 45.1575 192.813 43.9061C193.251 43.3752 193.705 42.9435 193.941 42.8139C193.974 42.7975 193.974 42.7655 193.941 42.7655C192.779 42.525 192.19 41.8989 192.19 41.1767C192.19 40.3094 192.746 39.4404 195.118 39.4404C195.892 39.4404 196.818 39.4896 197.391 39.4724C197.728 39.4724 198.03 39.4568 198.266 39.4568C198.453 39.474 198.705 39.4912 198.705 39.6036ZM195.927 40.2937C195.927 40.1501 195.876 39.9729 195.808 39.9729C195.691 39.9416 195.674 39.9245 195.422 39.9245C194.698 39.9245 194.059 40.3101 194.059 41.0651C194.059 41.9481 194.866 42.3813 195.858 42.3985C195.926 42.3985 195.943 42.3501 195.943 42.2853C195.961 41.7872 195.944 40.8551 195.927 40.2937Z" fill="#A58069"/>
</svg>
